<svg version="1.2" xmlns="http://www.w3.org/2000/svg" viewBox="0 0 126 125" width="126" height="125">
	<title>&lt;Group&gt;</title>
	<style>
		.s0 { fill: #2f312e } 
		.s1 { fill: #ffffff } 
		.s2 { fill: #efebe4 } 
	</style>
	<g id="&lt;Group&gt;">
		<path id="&lt;Path&gt;" class="s0" d="m63.1 124.8c-0.5 0-0.3 0.1-0.4 0.1 0.9 0 0.4-0.2 0.4-0.1z"/>
		<path id="&lt;Path&gt;" class="s0" d="m72.4 123.7l1.4-0.3-1.2 0.2z"/>
		<path id="&lt;Path&gt;" class="s0" d="m76.3 122.8l-0.6 0.4c1.8-0.5 4.2-1.3 5.5-1.5-0.8 0-3.1 0.8-4.6 1.1z"/>
		<path id="&lt;Path&gt;" class="s0" d="m84.8 120.8c0.1 0 0.2 0 0.2 0 0.2-0.1 0.4-0.2 0.9-0.3-0.3 0 0.9-0.4-1.1 0.3z"/>
		<path id="&lt;Path&gt;" class="s0" d="m85 120.8c-0.9 0.3 0.6-0.1 0 0z"/>
		<path id="&lt;Path&gt;" class="s0" d="m89 119.1l-1.1 0.6c0.3-0.1 1.3-0.6 0.9-0.4 1.2-0.6 0.9-0.5 0.2-0.2z"/>
		<path id="&lt;Path&gt;" class="s0" d="m90 118.4l-0.6 0.3c0.1 0 0.3-0.1 0.6-0.3z"/>
		<path id="&lt;Path&gt;" class="s0" d="m88.2 119.4l1.2-0.7c-0.2 0-0.2 0-0.5 0.3 0-0.1-0.2 0.1-0.7 0.4z"/>
		<path id="&lt;Path&gt;" class="s0" d="m87.1 119.7c-1 0.4-1.5 0.6-1.4 0.6 0.1 0 0.8-0.1 1.8-0.6-0.6 0.2-1.5 0.5-0.4 0z"/>
		<path id="&lt;Path&gt;" class="s0" d="m79.9 121.8c0.2-0.1 0.7-0.2 1-0.3 0.4-0.1 0.7-0.2 0.7-0.2q-0.4 0.1-0.9 0.2z"/>
		<path id="&lt;Path&gt;" class="s0" d="m95.9 115.5c0-0.1-0.5 0.1-0.6 0.1l-0.7 0.5c0.4-0.2 1.2-0.7 1.3-0.6z"/>
		<path id="&lt;Path&gt;" class="s0" d="m95.3 115.6l1.1-0.8c-1 0.6-1.2 0.8-1.1 0.8z"/>
		<path id="&lt;Path&gt;" class="s0" d="m88.1 119.2l2.4-1.3-0.4 0.2z"/>
		<path id="&lt;Path&gt;" class="s0" d="m99.6 113.1l1-1-0.4 0.4z"/>
		<path id="&lt;Path&gt;" class="s0" d="m103.2 110.4c0.7-0.7 1.2-1.3 1.7-1.8-0.5 0.5-1.1 1.1-2 1.8-0.3 0.4 0.7-0.5 0.3 0z"/>
		<path id="&lt;Path&gt;" class="s0" d="m98.4 113.5c0.1 0 0.3-0.1 0.9-0.5l-0.5 0.2q-0.2 0.1-0.4 0.3z"/>
		<path id="&lt;Path&gt;" class="s0" d="m98.8 113.2q0.7-0.5 1-0.7c-0.2 0.1-0.4 0.3-1 0.7z"/>
		<path id="&lt;Path&gt;" class="s0" d="m93.9 115.8c-0.4 0.4 0.4 0-0.6 0.7 0.7-0.5 2-1.4 0.6-0.7z"/>
		<path id="&lt;Path&gt;" class="s0" d="m96.4 114.8c0.4-0.3 0.9-0.6 1.3-1-0.4 0.3-0.9 0.5-1.3 0.8 0.1 0 0.3-0.1 0 0.2z"/>
		<path id="&lt;Path&gt;" class="s0" d="m98.1 113.5l0.1-0.1-0.5 0.4z"/>
		<path id="&lt;Path&gt;" class="s0" d="m103.8 109.3c0.4-0.5 1-0.9 1.5-1.5-0.6 0.6-1.3 1.1-1.9 1.7 0 0.1-0.2 0.4 0.4-0.2z"/>
		<path id="&lt;Path&gt;" class="s0" d="m101.4 111.2q0.1 0 0.1 0c0 0-0.1 0-0.1 0z"/>
		<path id="&lt;Path&gt;" class="s0" d="m110.6 102.3l-0.1 0.1z"/>
		<path id="&lt;Path&gt;" class="s0" d="m103.3 109.6c-0.5 0.4-0.7 0.6-1 0.9q0.6-0.5 1.1-1c0.1-0.1 0.1-0.1-0.1 0.1z"/>
		<path id="&lt;Path&gt;" class="s0" d="m107.3 106.2q-0.4 0.3-0.9 0.7c0.3-0.2 0.8-0.6 0.9-0.7z"/>
		<path id="&lt;Path&gt;" class="s0" d="m101.7 111.1c0.1-0.1 0.1-0.1 0 0z"/>
		<path id="&lt;Path&gt;" class="s0" d="m101.7 111.1c0.3-0.2 0.5-0.4 0.6-0.6q-0.4 0.4-0.8 0.7 0.2-0.1 0.2-0.1z"/>
		<path id="&lt;Path&gt;" class="s0" d="m108.6 104.4l-0.3 0.4c0.4-0.4 0.8-0.8 1.5-1.4 0.6-0.7 0.7-0.9 0.7-1l-2 2.2z"/>
		<path id="&lt;Path&gt;" class="s0" d="m106.9 105.8c-1.2 1.3-0.8 0.9-1.5 1.7 2-1.9-0.5 0.6 1-0.7q-0.6 0.5-1.1 1 0.6-0.5 1.1-0.9 0 0 0 0c-0.1 0.1-0.2 0.1-0.1 0q0.1 0 0.1 0 0 0 0-0.1c0.7-0.5 0.2-0.1 0 0.1q0 0 0 0c0.7-0.6 1.2-1.4 1.9-2.1-0.5 0.5-0.9 1-1.9 2 0.3-0.4 1.2-1.5 0.5-1z"/>
		<path id="&lt;Path&gt;" class="s0" d="m95.1 115l0.1-0.1c0.8-0.4 1.8-0.9 2.1-1-0.3 0.1-0.6 0.1-1.3 0.4-0.1 0.1-0.2 0.2-0.8 0.6-0.5 0.2 0-0.1-0.1-0.1-0.3 0.2-1.1 0.8 0 0.2z"/>
		<path id="&lt;Path&gt;" class="s0" d="m97.3 113.9q0 0 0.1 0 0-0.1-0.1 0z"/>
		<path id="&lt;Path&gt;" class="s0" d="m101.5 110.7c0.6-0.4 1.1-1 1.7-1.5l-1 0.7h0.1c-1 0.8-0.8 0.7-0.8 0.8z"/>
		<path id="&lt;Path&gt;" class="s0" d="m110.7 102.5c0.3-0.4 0.5-0.8 0.7-1.2l-0.6 0.8z"/>
		<path id="&lt;Path&gt;" class="s0" d="m112.7 99.9l0.4-0.7-0.5 0.5z"/>
		<path id="&lt;Path&gt;" class="s0" d="m114.8 27.8v0.3c0.4 0.6 0.7 1.1 0.9 1.5-0.4-0.9-0.9-2-0.9-1.8z"/>
		<path id="&lt;Path&gt;" class="s0" d="m124.3 71.3c0.2-0.9 0.3-1.6 0.4-2.1-0.2 1-0.4 1.8-0.4 2.1z"/>
		<path id="&lt;Path&gt;" class="s0" d="m32.6 7.8q-0.5 0.4-0.4 0.4c0.3-0.3 0.5-0.4 0.4-0.4z"/>
		<path id="&lt;Path&gt;" class="s0" d="m124.9 66.7q0 0.2 0 0.4c-0.1 0.6 0 1.3-0.2 2.1 0.2-0.8 0.2-1.7 0.2-2.5z"/>
		<path id="&lt;Path&gt;" class="s0" d="m53.2 123.8c0.2 0.1 0.6 0.1 1.2 0.2-0.3 0-0.7-0.1-1.2-0.2z"/>
		<path id="&lt;Path&gt;" class="s0" d="m119 89.3c-0.3 0.6 0 0.1 0 0z"/>
		<path id="&lt;Path&gt;" class="s0" d="m117.2 91.9q0-0.2 0-0.3 0 0.1 0 0.3z"/>
		<path id="&lt;Path&gt;" class="s0" d="m118.5 90.1q0.2-0.3 0.4-0.7c0 0.1-0.2 0.4-0.4 0.7z"/>
		<path id="&lt;Path&gt;" class="s0" d="m118.6 90.1q-0.1 0.2-0.2 0.5c0 0 0 0 0.2-0.5z"/>
		<path id="&lt;Path&gt;" class="s0" d="m119 89.3c0.1-0.2 0.2-0.4 0.4-0.8q-0.3 0.5-0.5 0.9 0.1-0.1 0.1-0.1z"/>
		<path id="&lt;Compound Path&gt;" fill-rule="evenodd" class="s0" d="m125 58.8c0.1 0.5 0.2 3.1 0.1 4.3l-0.1 0.4c-0.1 1.6-0.1 2.6-0.1 3.6-0.2 1.7-0.5 3.3-0.7 4.8-0.2 1.6-0.3 3.1-0.8 4.5l-0.7 2.9c0.1-0.8 0 0.6-0.3 1.5-0.2 0.9-0.8 2.3-1.2 3.3l-0.7 1.8c0.6-2-0.2 0.1-0.4 0.1q-0.1 0.6-0.4 1.2c-0.2 0.4 0.3-0.7-0.1 0-0.3 0.8-1.4 2.9-1.6 3.7 0.1-0.1 0.3-0.3 0.5-0.7q0-0.1 0 0v-0.1q0 0.1 0 0.1c-0.1 0.1-0.1 0.3-0.1 0.4-0.7 1.3-0.4 0.8-0.3 0.8-0.5 0.7-0.9 1.3-1.2 1.8-0.3 0.5-0.6 0.9-1 1.3 0.8-0.7-2.1 3.5-1.3 2.8-1 0.9-0.6 0.6-1.2 1.2 1.2-1.4 1.8-3.1 2.5-4.3l-0.8 1.1c0.2-0.9 1.7-2.7 2-3.4-0.2 0.5-0.8 1.4-1 1.5l0.4-0.2q0.4-0.6 0.8-1.2 0.2-0.6 0.5-1.2 0.5-1.1 0.9-2.1c-0.7 1.1 0.5-1.4 0-0.8q-1.8 4.1-4.2 7.8l-0.2 0.5-0.3 0.2q-0.8 1.3-1.8 2.6c-0.2 0.5-1.2 2-0.8 1.6-0.3 0.3-0.4 0.4-0.6 0.6-0.2 0.2-0.4 0.5-1 1.2-0.7 1 1.2-0.9 1.5-1.3-0.8 1.2-0.8 1.2-0.8 1.3-0.9 0.6-1.7 1-1.3 0.3q-0.6 0.7-1.2 1.4-0.2 0.2-0.5 0.6c-3.7 3.8-7.8 7.2-12.3 10q0 0-0.1 0.1 0 0 0 0c-9.5 5.8-20.5 9.2-32.4 9.2q-1.6 0-3.2-0.1c0.6 0.2 1 0.3 0.3 0.4h1.1c-0.3 0.2-3.5-0.2-4.2 0-1.2-0.2-2.4-0.5-3.5-0.7 0.1 0.1-0.5 0.1 0 0.2-0.9-0.1-1.6-0.2-0.5 0.1-8.4-1.9-16.9-4.7-23.9-9.5-0.5-0.3-0.3-0.1-0.1 0.1-1.2-1-1.3-0.8-2-1.3l-1.7-1.6c-0.8-0.5-0.2 0.1-0.3 0.1-1.8-1.2-3.3-2.8-4.8-4.2q-0.5-0.5-1.1-1c-0.3-0.4-0.6-0.8-1-1.1q-0.9-1.1-1.9-2c-0.6-0.9 0.4 0-0.6-1.1 0.6 0.8-0.2 0.1-0.9-0.8-0.7-0.8-1.4-1.7-1.2-1.4-0.4-0.7-1.1-1.7-1.7-2.5-0.6-0.9-0.9-1.7-0.6-1.5-0.9-1.5-0.9-1.1-0.7-0.7q-0.8-1.3-1.4-2.4-0.4-0.5-0.7-1.1-0.3-0.5-0.6-1.1c-0.2-0.5-1.3-2.6-2.3-4.8-0.8-2.2-1.6-4.5-1.7-5.5 0.1 1.2-0.2-0.1-0.6-1.2l0.1 1.1-0.6-2.6c-0.2-0.6-0.2-0.7-0.2-0.7-0.1-0.5 0.1 0.1-0.1-1.1-0.2-0.9-0.4-1.3-0.4-1.7-0.1-0.4-0.2-0.6-0.3-1.1v0.3l-0.2-1.3c-0.2-0.9 0.6 3.2 0.3 0.2-0.1 0-0.6-1.7-0.6-2.5 0.2 1.5 0.3 1.3 0.3 0.7-0.1-0.7-0.2-1.4-0.3-2.1 0 0.3-0.1 0.5-0.1 0.7-0.6-6.1-0.3-12.5 0.9-18.9 0.1 0.1 1.2-4.5 1.3-3.9l-0.1 0.3c-0.2 1.1 0 0.4 0.3-0.4q0.2-0.6 0.3-1.1 0-0.1 0.1-0.2c-0.5 1.3 0.3-2.4-0.6 0.8 0.2-0.9 0.3-1.7 0.6-2.5-0.1-0.8 0.6-2.4 1.3-4.3 0.3-0.9 0.9-1.9 1.4-2.9 0.5-0.9 0.9-1.9 1.3-2.8-0.1 0.3-0.1 0.4-0.1 0.4 0.3-0.8 0.8-1.6 1.3-2.4 0.5-0.7 0.9-1.5 1.4-2.2 0.8-1.3 1.7-2.3 1.9-2.6l0.3-0.2c1.6-2.5 1.6-2.9 4.1-5.4 0 0-0.2 0.4 0.2 0 0.2-0.4 0.5-0.7 0.8-1.2 0.5-0.5 0.9-1.2 1.9-1.9l-0.1 0.1 2.8-2.6c0.2 0.3 4.9-4.2 6.2-4.4 0.5-0.5 2.8-2 3.9-2.7q0 0 0.2-0.1c1.2-1 3.8-1.8 5.2-2.5 1-0.5 0.5-0.4 0.1-0.3 1.9-0.7 5.3-2.2 6-2.4 1.5-0.5 0.6 0 1 0 2.2-0.7-0.5-0.4 2.5-0.9-0.3 0.1-0.9 0.2-0.7 0.2 1.2-0.2 3.3-0.3 4.4-0.5q-0.4 0-0.8 0c2.1-0.5 5-0.4 5.3-0.7l-0.2-0.2c0.9-0.1 1.4-0.1 1.8-0.1 0.4 0 0.6 0 0.7 0 0.4-0.1 0.8-0.1 2.7-0.1h-0.1c1.6-0.1 2.5 0 3.3-0.2h-0.6c2 0.1 2.2 0.1 4.2 0.2 0.2 0 1.2 0 1.5 0.1 0.1-0.3 4.7 0.6 5.6 0.7-1.6-0.2-0.9 0-0.5 0.1 0.5 0 0.9 0.1 1.4 0.1 0.4 0.1 0.9 0.3 1.5 0.5 0.2-0.2 0.5-0.4 3.1 0.2-0.4-0.1-1.1-0.2-0.8-0.1 0.2 0.1 0.8 0.2 1 0.3 0.3 0.1-0.6-0.1-0.3 0.1 1.8 0.1 2.9 0.9 5.3 1.6-0.8-0.2-0.1 0.1 0.1 0.3 0.1-0.1 0.9 0.3 1.6 0.6 0.6 0.3 1.1 0.6 0.8 0.2 4.5 2.1 11 6 12.3 7.6 0.4 0.3 1.6 1 2.3 1.6h-0.2c2 1.4 1.5 1.2 3.7 2.9-0.9-0.7-0.6-0.3 0.2 0.6l0.8 0.5 0.7 0.7 0.1 0.4c0.6 0.5 1.2 1.2 1.8 1.9 0.3 0.2 0.9 0.8 1.5 1.4 0.6 0.7 1.2 1.5 1.4 1.7 0.3 0.9 1.5 1.8 1.7 2.5 0.2 0.2 0.4 0.5 0.7 0.8-0.2-0.4-0.1-0.6 0.2 0.1q0.1 0.1 0.1 0.1l0.1 0.4c0.4 0.7 0.9 1.4 1.2 1.8q-0.2-0.3-0.4-0.7 0.2 0.5 0.4 0.9 0.1 0.1 0.2 0.2-0.1 0-0.1-0.1c0.2 0.4 0.5 0.9 0.9 1.4 0.6 1.3 1.3 2.7 2 4.1 0.4 0.7 0.8 1.4 1.1 2.1q0.5 1.2 0.8 2.3c-0.2-0.4-0.4-1.1-0.5-1.2 0.9 2.4 1.7 4.9 2.1 6.5l0.1-0.2c0.5 1.9 1 3.3 1.3 4.8h0.1c0.2 1.1 0.5 2.9 0.8 4.5q0.1 0.6 0.1 1.2 0 0.6 0.1 1.1c0 0.7 0 1.2-0.1 1.6zm-15.8-37.3c-0.3-0.3-0.2-0.1-0.2-0.1q0.1 0 0.2 0.1zm0 0q0 0 0 0 0 0 0 0 0 0 0 0zm-105.8 59q0 0 0.1 0-0.1 0-0.1 0zm9.8 19.7q0-0.1 0-0.1 0 0 0 0.1zm102.9-6.7q0 0 0-0.1zm-1.5 3.8q0 0 0 0 0 0 0 0zm1.2-2.5q0.1-0.1 0.1-0.2 0 0.1-0.1 0.2zm6.6-47.6q0.3 1.1 0.5 2.2l0.3 0.2-0.2 0.1q0.2 1 0.4 2.1 0 0 0-0.1c-0.1-0.4 0-1.4-0.2-2.3-0.2-0.9-0.3-1.8-0.4-1.9q-0.2-0.3-0.4-0.3zm-3.3-10.5c-0.6-1.1-1.3-2-1.9-2.8q0.9 1.5 1.6 3.2c0.6 0.8 1.1 1.5 1.3 1.9-0.2-0.6-0.6-1.2-0.9-1.8zm-14.6-19.4q0.5 0.4 0.9 0.8c0.1-0.1 0.1-0.2 0.2-0.1q-0.5-0.4-1.1-0.7zm-30.9-15.5c0.2 0 0.6 0.1 0.9 0.2q0.4 0.1 0.7 0.2 0.3 0 0.6 0.1-0.1-0.1-0.3-0.1 0.6 0.2 1.2 0.3-0.1-0.1-0.5-0.2-0.2 0-0.4 0c0.4 0 0.7 0 0.4-0.1-0.9-0.3-1.7-0.3-2.6-0.4zm-71.3 75.2l0.1 0.4c0.1 0.2 0.2 0.5-0.1-0.4zm108.6 23.8q-0.6 0.8-1.2 1.5c0.5-0.5 0.9-1 1.2-1.5zm12.9-30.8q-0.1 1.4-0.3 2.7 0-0.1 0 0l-0.2 1.6c-0.1 0.3 0-0.3 0-0.7q0-0.1 0-0.1-0.5 3-1.3 5.9c-0.1 0.4-0.2 0.8-0.3 1l0.5-1.5c-0.1 0.6-0.3 1.2-0.5 1.8-0.2 0.6-0.5 1.3-0.8 2.2 0.2-0.3-0.1 1.1 0.6-0.2 0.7-1.7 0.8-2.5 0.9-3.3 0.1-0.8 0.2-1.8 0.8-3.9 0-0.2 0 0.1 0.1 0.1 0 0 0.2-0.3 0.3-1.4 0.2-1.8 0.3-3.3 0.2-4.2zm-2.2 12.8q0 0 0 0c0.3-0.6 0.4-1 0 0zm2.7-22.8q0-0.5-0.1-0.9 0 0.5 0.1 1c0-0.1 0-0.2 0-0.1z"/>
		<path id="&lt;Path&gt;" class="s0" d="m115.9 95.2l0.7-1.2c-0.4 0.6-0.5 0.7-0.7 1 0 0 0.2-0.2 0 0.2z"/>
		<path id="&lt;Path&gt;" class="s0" d="m114.8 96c-0.2 0-0.6 0.8-1.2 1.6l0.1-0.1c0 0.3 0.6-0.5 1.1-1.5z"/>
		<path id="&lt;Path&gt;" class="s0" d="m113 98.5c0 0.1 0.2-0.3 0.5-0.7q-0.3 0.4-0.5 0.7z"/>
		<path id="&lt;Path&gt;" class="s0" d="m119.8 87.3c-0.2 0.5 0 0.4-0.1 0.6-0.1 0.5 1.1-2.9 0.1-0.6z"/>
		<path id="&lt;Path&gt;" class="s0" d="m117.2 91.3c0 0-0.1 0.1-0.2 0.4 0.4-0.9 0.9-1.8 0.9-1.8z"/>
		<path id="&lt;Path&gt;" class="s0" d="m117 91.7c-0.2 0.4-0.5 0.8-0.6 1 0.2-0.2 0.5-0.7 0.6-1z"/>
		<path id="&lt;Path&gt;" class="s0" d="m59.1 124.6l1.3 0.1-0.8-0.1z"/>
		<path id="&lt;Path&gt;" class="s0" d="m61.6 124.5l0.3 0.2 0.8-0.1c-0.3 0-0.9 0-1.1-0.1z"/>
		<path id="&lt;Path&gt;" class="s1" d="m53.1 99.6h15v-37.5h10.5l1.1-12.6h-11.6c0 0 0-4.7 0-7.1 0-3 0.6-4.2 3.5-4.2 2.3 0 8.1 0 8.1 0v-13c0 0-8.6 0-10.4 0-11.2 0-16.2 4.9-16.2 14.3 0 8.2 0 10 0 10h-7.8v12.7h7.8z"/>
		<g id="&lt;Group&gt;">
			<path id="&lt;Path&gt;" class="s2" d="m54.1 99.4c-0.1 0.3 0.1 0.2 0.1 0.2 0-0.5-0.2-0.2-0.1-0.2z"/>
			<path id="&lt;Path&gt;" class="s2" d="m53.7 93.7l0.1 0.1-0.2-0.8z"/>
			<path id="&lt;Path&gt;" class="s2" d="m53.7 88.4c-0.3 0.5 0 1.9-0.1 2.9v0.1l0.2 0.4c0-1.1-0.2-2.6-0.1-3.4z"/>
			<path id="&lt;Path&gt;" class="s2" d="m54.3 85.6c-0.1 0.1-0.1-0.7 0 0.6q0-0.1 0-0.1c0-0.1 0-0.3 0-0.5z"/>
			<path id="&lt;Path&gt;" class="s2" d="m54.3 86.1c0 0.6 0.1-0.4 0 0z"/>
			<path id="&lt;Path&gt;" class="s2" d="m54.2 83.5l0.1 0.8c0.1-0.2 0.1-0.9 0.1-0.6 0-0.8-0.1-0.6-0.2-0.2z"/>
			<path id="&lt;Path&gt;" class="s2" d="m54 82.8l0.1 0.4c0-0.1 0-0.2-0.1-0.4z"/>
			<path id="&lt;Path&gt;" class="s2" d="m54.2 84l-0.1-0.8c-0.1 0.1-0.2 0.1 0 0.4-0.1-0.1 0 0.1 0.1 0.4z"/>
			<path id="&lt;Path&gt;" class="s2" d="m54.1 84.5c-0.1 0.4-0.1 0.9-0.2 0.2 0.1 1.4 0.2 1.2 0.2-0.2z"/>
			<path id="&lt;Path&gt;" class="s2" d="m53.4 88.1l-0.1 0.6 0.1 0.4c0-0.2 0.1-1 0-1z"/>
			<path id="&lt;Path&gt;" class="s2" d="m54.4 78.9c-0.1 0-0.2 0.3-0.3 0.3l0.1 0.6c0-0.3 0.1-0.8 0.2-0.9z"/>
			<path id="&lt;Path&gt;" class="s2" d="m54.1 79.2l-0.1-0.8c0 0.7 0.1 0.9 0.1 0.8z"/>
			<path id="&lt;Path&gt;" class="s2" d="m53.7 82.7l0.2 1.3-0.2-1.6z"/>
			<path id="&lt;Path&gt;" class="s2" d="m54.4 75.8l0.1 0.5-0.2-0.8z"/>
			<path id="&lt;Path&gt;" class="s2" d="m54.4 73.8c0.1 0.3 0.1-0.5 0.2-0.1 0-0.6-0.1-1.1-0.2-1.5 0.1 0.4 0 0.9 0 1.6z"/>
			<path id="&lt;Path&gt;" class="s2" d="m54.3 71.5q0 0.3 0.1 0.7 0-0.4-0.1-0.7z"/>
			<path id="&lt;Path&gt;" class="s2" d="m54.1 77c0 0 0.1-0.1 0.1-0.6l-0.1 0.3q0 0.2 0 0.3z"/>
			<path id="&lt;Path&gt;" class="s2" d="m54.1 76.7q0-0.5 0-0.7c0 0.1 0 0.3 0 0.7z"/>
			<path id="&lt;Path&gt;" class="s2" d="m54.1 77.1q0 0 0-0.1-0.1 0.1 0 0.1z"/>
			<path id="&lt;Path&gt;" class="s2" d="m53.9 80.6c-0.1-0.5-0.2-1.5-0.4-0.6 0.1 0.4 0.2-0.2 0.4 0.6z"/>
			<path id="&lt;Path&gt;" class="s2" d="m53.9 77.5l-0.1 0.9c0.1 0 0.1-0.2 0.2 0z"/>
			<path id="&lt;Path&gt;" class="s2" d="m53.8 77.1l0.1 0.4v-0.3z"/>
			<path id="&lt;Path&gt;" class="s2" d="m54.1 72.9c0-0.3-0.1-0.7-0.1-1.2q0 0.8 0 1.5c0 0.1 0.1 0.3 0.1-0.3z"/>
			<path id="&lt;Path&gt;" class="s2" d="m54.1 74.8q0-0.1 0-0.1-0.1 0.1 0 0.1z"/>
			<path id="&lt;Path&gt;" class="s2" d="m54 67.2v0.1z"/>
			<path id="&lt;Path&gt;" class="s2" d="m54 73.3c-0.1 0.3 0 0.6 0 0.8q0-0.4 0-0.9c0 0-0.1 0 0 0.1z"/>
			<path id="&lt;Path&gt;" class="s2" d="m54.2 70.2q0 0.3-0.1 0.6c0.1-0.1 0.1-0.5 0.1-0.6z"/>
			<path id="&lt;Path&gt;" class="s2" d="m54.1 74.6c0.1-0.1 0-0.1 0 0z"/>
			<path id="&lt;Path&gt;" class="s2" d="m54.1 74.6q0-0.3-0.1-0.5 0 0.3 0.1 0.6 0-0.1 0-0.1z"/>
			<path id="&lt;Path&gt;" class="s2" d="m53 65.8c0.1 0.1 0.3 1 0.1 1.9 0.1 0.8 0.6 0.3 0.9-0.5-0.1 0-0.1 0-0.2-0.8-0.1 0.3-0.2 1.9-0.3 1.1-0.1-1.1 0-0.9 0.1-1.4-0.2 0.4-0.3-1.5-0.6-1.2l0.1 1c0 0-0.1-0.4-0.1-0.1z"/>
			<path id="&lt;Path&gt;" class="s2" d="m54 68.9v0.3c0-0.4 0.1-0.7 0.2-1.2-0.1-0.6-0.1-0.7-0.2-0.7v1.7z"/>
			<path id="&lt;Path&gt;" class="s2" d="m54 70.8c-0.2-0.3-0.2-1.1-0.4-0.6 0 1 0.1 0.7 0.2 1.3 0-1.6 0.1 0.5 0.2-0.7q0 0.5 0 0.9 0.1-0.4 0.1-0.9v0.1q0 0.1 0 0 0 0 0 0-0.1-0.1-0.1-0.1c0-0.5 0.1-0.1 0.1 0.1q0 0 0 0l-0.1-1.7c0 0.4 0 0.8 0 1.6z"/>
			<path id="&lt;Path&gt;" class="s2" d="m53.2 79.2q0-0.1 0-0.1c0-0.1 0-0.1 0 0.1z"/>
			<path id="&lt;Path&gt;" class="s2" d="m53.3 78.5c0 0.1 0.1 0.2 0 0.6 0 0.3 0 0-0.1 0 0.1 0.2 0.1 0.8 0.2 0.1v-0.1c0-0.7 0.3-1.6 0.3-1.4-0.2 0.2-0.3 0.3-0.4 0.8z"/>
			<path id="&lt;Path&gt;" class="s2" d="m53.6 74.6l-0.1-1.4-0.1 0.7h0.1c-0.1 0.8 0 0.6 0.1 0.7z"/>
			<path id="&lt;Path&gt;" class="s2" d="m54.1 67l0.2 0.2-0.3-0.8z"/>
			<path id="&lt;Path&gt;" class="s2" d="m54.1 65.2l0.2 0.1-0.1-0.5z"/>
			<path id="&lt;Path&gt;" class="s2" d="m69.2 40.4q0 0.1 0 0.3 0-0.2 0-0.3z"/>
			<path id="&lt;Path&gt;" class="s2" d="m70.6 39.2v-0.1c-0.1 0.1-0.1 0.1 0 0.1z"/>
			<path id="&lt;Path&gt;" class="s2" d="m54.3 36.6c0.2-0.5 0.6-1.1 0.4-1l-0.2 0.1c-0.1 0.4-0.2 0.7-0.2 0.9z"/>
			<path id="&lt;Path&gt;" class="s2" d="m77.8 25.1h-0.1q-0.3 0.1-0.4 0.1 0.2 0 0.5-0.1z"/>
			<path id="&lt;Path&gt;" class="s2" d="m78.3 24.4l1.1 0.1q-0.3 0-1.1-0.1z"/>
			<path id="&lt;Path&gt;" class="s2" d="m74.8 48.4l0.5-0.2c-0.7 0-0.4 0.1-0.5 0.2z"/>
			<path id="&lt;Path&gt;" class="s2" d="m46.2 54.5q0.1-0.7 0.1-1.3c-0.1 0.7-0.2 1.2-0.1 1.3z"/>
			<path id="&lt;Path&gt;" class="s2" d="m68.2 38.5c-0.2 0.3-0.2 0.5-0.2 0.5 0.1-0.3 0.3-0.5 0.2-0.5z"/>
			<path id="&lt;Path&gt;" class="s2" d="m46.3 51.8q0 0.1 0 0.2c0 0.4 0.1 0.8 0 1.2 0.1-0.4 0.2-0.9 0-1.4z"/>
			<path id="&lt;Path&gt;" class="s2" d="m69.1 92.6v0.2q0 0 0-0.2z"/>
			<path id="&lt;Path&gt;" class="s2" d="m58.1 98.9c0.1 0 0.4 0 0.7 0-0.2 0-0.4 0-0.7 0z"/>
			<path id="&lt;Path&gt;" class="s2" d="m48.8 61.2c0.4 0 0.1 0 0 0z"/>
			<path id="&lt;Path&gt;" class="s2" d="m50.7 61.9q-0.2 0-0.2 0 0.1 0 0.2 0z"/>
			<path id="&lt;Path&gt;" class="s2" d="m46.9 49.5c-0.1 0-0.1 0 0 0z"/>
			<path id="&lt;Path&gt;" class="s2" d="m49.4 61.3q-0.2-0.1-0.5-0.1 0.1 0 0.5 0.1z"/>
			<path id="&lt;Path&gt;" class="s2" d="m49.3 61.2q0.2 0 0.3 0c0.1 0 0 0-0.3 0z"/>
			<path id="&lt;Path&gt;" class="s2" d="m48.3 61.2q0.3 0 0.6 0-0.1 0-0.1 0-0.1 0-0.5 0z"/>
			<path id="&lt;Path&gt;" class="s2" d="m69.1 62.6q0 0 0 0c-0.2 0.1-0.1 0 0 0z"/>
			<path id="&lt;Path&gt;" class="s2" d="m57.5 27.4q0 0 0.1 0z"/>
			<path id="&lt;Path&gt;" class="s2" d="m58.7 26.5c-0.4 0.5-0.7 0.7-1.1 0.9 0.2 0 0.4 0.1 0.6 0.1q0.2-0.5 0.5-1z"/>
			<path id="&lt;Compound Path&gt;" fill-rule="evenodd" class="s2" d="m69.1 46c-0.2 0.7-0.1 1.3-0.1 1.8v0.2l0.1 0.1q0 0.1 0 0.1 0.1 0.1 0.1 0.1c0 0.2-0.2 0.2-0.3 0.4q0.1 0 0.3 0c0.5-0.1 0.4-0.2 0.4-0.2q-0.1-0.2 0-0.3c0.2 0.1 0.6 0.2 0.8 0.3 1.5-0.2 2.6 0 3.9 0 0.3 0 0.4 0 0.5 0 0.7 0 1.4-0.1 2-0.1 0.7-0.1 1.1-0.2 2.3-0.1-0.5 0 0.9 0.1 1.1 0.2h0.6v2.3c0-1.3-0.2-1.1-0.3-1.3-0.1 0.8 0 1.4-0.1 1.8 0-0.2 0-0.7-0.1-0.2l0.1 2c0-0.1 0-0.3 0.1-0.5-0.1 0.4-0.1 1.5-0.3 2.2 0-0.1-0.1-0.3-0.1-0.4 0.2-0.6 0.1-0.9 0-1.2-0.1 1.3-0.1 0.3-0.2 0.9-0.1 1 0.1 1.4 0.2 1.1-0.1 1.1-0.2 1.4-0.1 2.5l-0.2-0.2-0.1 1-0.1-0.9c-0.4 1.9 0.3 0.4 0 2.5h-0.2c0 0.4 0.1 0.6 0.1 1 0 0.4 0 0.8-0.1 1.3 0 0.6 0.1 0.2 0.1-0.1 0.1-0.3 0.2-0.5 0.1 0.9q-0.1 0-0.3 0c-0.3 0-0.7-0.1-1.2-0.1-0.4-0.1-0.9-0.1-1.2-0.1-0.5 0.1 0.1 0.2 0.8 0.2q-0.2 0-0.5 0-0.2 0-0.4 0-0.3 0-0.6-0.1c-0.3 0-0.5-0.1-0.7-0.2-0.4-0.1-0.8-0.2-2-0.1 0.8 0.1-0.7 0.4 1.3 0.4-1 0.1-1.9-0.3-2.9-0.1l0.6-0.3c-0.3 0-0.7 0.1-0.9 0.2l0.1-0.2c-0.7 0.1-1.2 0.1-1.7 0.1q-0.2 0-0.4 0-0.1 0-0.2 0-0.1 0-0.2 0.1c0-0.1-0.1-0.1-0.2-0.1 0 0.2 0 0.4 0 0.4q-0.1-0.2-0.1-0.5c0.2 0 0.5 0 0.7 0 0.3 0 0.6-0.1 0.7-0.2-0.3 0-0.5 0-0.7 0-0.2 0-0.3 0-0.5 0 0.2 0 0.5-0.1 0.7-0.2-0.6-0.1-1 0-1.4 0q0.1 0.5 0.2 0.8c0 0.2 0.1 0.3 0.1 0.6l-0.1-1.2c0.3 0.4 0.1 0.6 0.3 0.9 0 0 0 0.3 0 0.5q0 0.2 0 0.5c0 0.4 0 0.7 0 1 0-0.1 0-0.2 0-0.3 0 1.8-0.5 2.3-0.5 3-0.1 0.7 0.1 2.1 0.2 1.6 0.1 0.6-0.1-2.4 0.3-1.4-0.4 1.1 0.2 2.2-0.1 4.5-0.2-1-0.3 0.5-0.4-0.3 0 1 0.1 1.1 0.2 1.6l-0.1 0.3c0.3 1.4 0.3 0.3 0.5 2.5-0.2-0.7-0.3 0.8-0.4 0.3 0 0.6 0.1 1.2 0.2 1.6l-0.1-0.1c0.1 2.2-0.1 1.8 0 3.8l0.1-0.2c0.2 2.6 0.1 5.9 0.2 8.5l0.1-0.8c0 0.4 0.1 1.8 0 2.5 0-0.1-0.1-0.4-0.1-0.6-0.1 0.1-0.2 0.4-0.2 1l0.1 0.3-0.1 0.2c0 1 0.2-0.3 0.2 0.7-0.2 0.3-0.2 1.4-0.2 2.5 0 0.5 0 1-0.1 1.6 0 0.7 0 1.2-0.1 1.4 0.3 1.2 0-2.6 0.3-1.5 0 0.5-0.1 0.6-0.1 1.6q0.1-0.1 0.2-0.3c0 0.4-0.1 0.7-0.1 1q-1.4-0.1-2.5-0.1-0.7 0-1.4-0.1c-0.9 0-1.8 0-3 0l0.1-0.1c-1 0-1.5 0-1.9 0.2-0.2-0.1 0.5-0.2 0.1-0.3-1.7 0.5-3.3-0.3-4.3 0 0.1-0.3-2.1-0.7-1.2-1l-0.6 0.1c0.2-0.3 2.1 0 2.5-0.3l2.1 0.3c0-0.1 0.3-0.3 0-0.3 0.5 0 1 0 0.3-0.2q2.2 0.3 4.5 0.3c1.4 0.1 3.3 0 3.9 0v-1-1.6q0-1.6 0.1-3.2c-0.1-0.3-0.1-0.1-0.2 0 0.2-0.9-0.1-0.9-0.2-1.4l0.4-1.4c-0.1-0.5-0.2-0.1-0.3-0.1-0.1-2.6 0.3-5.1 0.1-7.2 0.1-0.7 0.2 0.2 0.3-0.7-0.3 1.1-0.2-2.3-0.4-1.9 0.3-0.9 0.1-3.1 0.6-2.7 0-1-0.2-0.9-0.3-0.6 0-1.2 0-2.2-0.1-3.1 0.1-0.7-0.2-5.5 0.2-6.7-0.2 0.7-0.1-0.1-0.2-0.8l-0.2 0.7v-1.6c0-0.4 0-0.5 0-0.5 0-0.2 0.1 0.1 0.2-0.6 0-0.5 0-0.8-0.1-1.1 0-0.3-0.1-0.5-0.1-1l-0.1 0.2v-1.2c0-0.4 0.1 0.4 0.1 0.9 0.1 0.6 0.2 0.8 0.2-0.4 0 0 0-0.3-0.1-0.6 0.4-0.1 1.3-0.2 1.8-0.1-1.4 0-1.1 0.2-0.6 0.2h1.5l-0.4-0.2q2.2 0 4.4 0 1.9 0.1 3.9 0.1l0.1-0.6 0.1-1.2c0.2 0 0.2-2.8 0.6-2.4l-0.1 0.1c0 1 0.3-0.2 0.3-1-0.1 0.8-0.2-1.5-0.4 0.5l-0.1-1.5c-0.2-0.5-0.2-1.4 0-2.4q0.1-0.8 0.2-1.7c0.1-0.4 0.2-0.6 0.2-0.9q-0.2 0-0.4 0 0.2 0 0.2-0.1-0.2 0.1-0.4 0.1h-0.2-0.4q-0.8 0-1.5-0.1c-1 0-1.7-0.1-2 0l-0.2-0.2c-1.7 0.3-1.9 0.3-4 0.2 0-0.1 0.2-0.1-0.1-0.2-0.1 0.1-0.2 0.1-0.3 0.1q-0.3 0.1-0.6 0.1c-0.4 0-0.9 0.1-1.7 0.1q0-0.5 0.1-1v-2.6c0.6 0-0.4-3.9 0.3-4.6-0.2-0.4-0.2-2.2 0.3-3.1q0 0 0.2-0.2c0.2-0.6 1-1.1 1.8-1.2 0.7-0.1 1.4 0 1.9 0 0.6-0.1 0.3-0.2 0.1-0.3 1.2 0.3 3.4-0.3 3.8-0.1 0.9 0 0.4 0.2 0.6 0.3 1.4 0-0.2-0.5 1.6-0.3-0.2 0-0.6 0.1-0.4 0.1 0.2 0 0.6 0.1 0.8 0.3 0.2 0.1 0.6 0.2 0.9 0.3q0.1-0.2 0.1-0.4-0.1 0.2-0.2 0.3c0-0.6 0.1-0.8 0.2-1.6 0.1-0.6 0.1-1.1-0.1-1.2l-0.2 0.1c0.3-2.1 0-0.9 0.2-3.1v0.1c0-1 0.2-1.5-0.1-2v0.3c-0.1-1.1 0-1.3 0-2.5 0-0.1-0.1-0.7 0-0.9q-0.1 0-0.1-0.1 0-0.2-0.1-0.4 0-0.3 0-0.7c-0.3 0-0.7 0-0.8 0 0.6 0 0.4-0.2 0.2-0.3-0.5 0.2-0.9 0.3-1.7 0.1-0.1 0.3-0.3 0.7-1.8 0.7 0.2-0.1 0.6-0.1 0.5-0.2-0.2 0-0.6 0-0.7 0.1-0.1-0.1 0.4-0.1 0.2-0.3-1.1 0.3-1.8 0.1-3.3 0.2 0.5-0.1 0-0.2-0.1-0.3-0.1 0.4-2.1-0.3-1.5 0.2-1.5-0.2-3.3-0.1-4.9 0.1-0.8 0.1-1.6 0.2-2.1 0.4-0.7 0.1-1.1 0.2-1.4 0.3-0.3-0.1-1 0.4-1.4 0.6l-0.1-0.1c-0.5 0.4-0.7 0.5-1 0.7-0.2 0.2-0.5 0.4-1 1 0.4-0.6 0.1-0.5-0.5-0.2-0.2 0.3-0.4 0.7-0.6 1h-0.3c-0.3 0.4-0.6 0.8-0.9 1.2 0 0.2-0.2 0.7-0.4 1.1-0.2 0.5-0.4 1-0.4 1.2-0.5 0.3-0.3 1.3-0.7 1.5q0 0.3 0 0.6c0.2-0.2 0.3-0.2 0.2 0.2q0 0.1 0 0.1l-0.3 0.2c0 0.4 0 0.9-0.1 1.2q0.1-0.2 0.2-0.5-0.1 0.3-0.2 0.6 0 0.1 0 0.1 0 0 0-0.1c-0.1 0.3-0.1 0.6-0.1 1-0.4 1.6 0.4 3.7 0 5.5 0-0.3 0-0.6 0-0.8 0 1.6-0.3 3.1-0.1 4.1l0.1-0.1q0.1 0.4 0.1 0.7 0 0.2 0 0.4 0 0.2 0 0.5 0 1.1 0.1 2.1h-0.6l0.1 0.2q-0.5 0-1.1-0.1-0.5 0.1-1.1 0.1-0.7 0-1.4 0c-1 0-1.9 0-2.3-0.2-0.2 0.1-0.7 0.1-1 0-0.1 0-0.3 0-0.4 0q0 0 0 0-0.1 0-0.1 0c-0.1 0.2-0.1 0.3-0.1 0.5q0.1 0.5 0.1 0.9c-0.3 2 0 3.9 0 5.6h-0.1l0.1 1.8c-0.1-0.5 0.1 0.3 0.1 0.9q0 0.2 0 0.4c0 0.1 0 0.1 0 0.2q0 0.1 0 0.3h0.3q-0.3 0.1-0.2 0.2c0.1 0.1 0.3 0.1 0.3 0.2l0.7-0.1c0.3 0.1-0.5 0.1 0.1 0.2 0.4-0.1 1.9-0.1 2.3-0.3q-0.1-0.1-0.4-0.1-0.1 0-0.1 0 0 0 0 0c0.1 0 0.2-0.1 0.2-0.1 0.9 0 0.6 0 0.6-0.1 0.5 0.1 0.9 0.2 1.2 0.2q0.4 0 0.8 0 0.3 0.1 0.6 0.2c-0.3-0.2 0.4-0.2 1.2-0.2 0 1.1 0 2.4 0.2 1.8q-0.1 0.5-0.1 0.7 0 0.1 0 0.1c0 0.1 0 0.2-0.1 0.4q0-0.2 0-0.5 0-0.4-0.1-0.8 0-0.8-0.1-1.4-0.7 0-1.3 0.1l0.9 0.2c-0.8 0.3-2.2-0.1-2.7 0 0.3-0.1 1.1 0 1.1 0 0-0.1-0.1-0.1-0.2-0.2-1.2-0.1-2.2 0.1-3 0.2 0.8 0.1-1 0.1-0.4 0.3h0.6c0.3 0.1-0.3 0.1-0.7 0.2-0.7-0.1-1.8-0.1-2.8-0.1 0-1.7 0-3.2 0.1-3.7-0.1 0.4 0 1.2 0 1.6l0.1-1c0 0.8-0.2 1.4-0.1 2.5 0.1-0.2 0.2-0.1 0.3-0.1q0.1 0 0.3-0.4 0-0.3 0-0.4c0-0.2 0-0.4 0-0.5 0-0.4-0.1-0.6-0.1-0.8-0.1-0.5-0.3-1.1-0.3-2.4 0-0.2 0.3 0.5 0.2-0.8-0.1-1.8-0.5-3.1-0.8-3.1 0.1 0.8 0.3 2.2 0 2.5-0.1-0.8-0.1-2-0.3-2.1 0.3-0.8 0.1 1.4 0.3 0.4 0-0.5-0.1-0.8-0.1-1 0.1 0.3 0.2-0.5 0.2-0.6 0-0.6 0.1-1 0.1-1.5q0-0.7 0-1.5 0.8 0.1 1.7 0.1c0.1 0 0.3 0.1 0.2 0.2 0.9-0.1 2.2-0.5 1.8-0.7 1.1 0 1.1 0.2 2 0.1-1.4-0.3 0.3 0 0.4-0.2 0.5-0.1 0.4 0 0.5 0 0 0.1 0 0.1 0.1 0.1 0.1 0 0.3-0.1 0.2-0.1 0.3 0.1 0.2 0.2 0.1 0.3-0.2 0.2-0.4 0.3 0 0.4 0.2 0.1 0.6 0.1 1.2 0.2 0.1-0.7 0.2-1.7 0.2-1.8-0.1-0.2-0.4-0.3-0.7-0.2-0.2 0-0.6 0.3-0.7 0.3q-0.1 0 0 0 0-0.1 0-0.1 0-0.1 0-0.2c0.1-0.2 0.2-0.5 0.2-0.7 0.2-1.1-0.2-1.7-0.1-2.7l0.1 0.7c0.1-0.1 0-1.5-0.1-1.7 0.1-0.1 0.5 0.7 0.6 0.3 0-1.7-0.5-3.4-0.7-3.3l0.2 2.7c-0.2 0-0.2-1.9-0.4-1.8 0-0.8 0-1.6 0.1-2.4-0.1 0.3 0 1.2 0.1 0.9 0-1.1 0.1-0.6 0.2-1.3 0.2 1.3 1 3.4 1.3 4.2l-0.2-1.3 0.2-0.3c-0.2-1.6-1-3-1.2-3.5 0.2-1 0.6-0.6 0.7-0.4 0-0.9 0-1.3-0.1-1.8-0.1-0.5-0.1-1 0.2-1.9l-0.3 0.6c0.1-0.2 0.2-0.7 0.4-1.1 0.1-0.4 0.3-0.8 0.2-0.7 0.3-0.3 0.6-0.5 0.6-0.2 0.1-0.5 0.3-1 0.4-1.5 0 0.2 0.3 0.2 0.3 0.3 0.4-0.5 0.4-1.1 0-0.9 1-0.9 0.8-0.7 1.7-1.2 0.3-0.3-0.3-0.3-0.5-0.1 0.5-0.8 1.1-1 1.4-1.3-1.1 1.1 0.2 0.9 0.2 1.3q0.3-0.7 0.9-1.3 0.5-0.6 1.1-1.2c-0.1 0.1-0.2 0.5-0.1 0.5 0-0.2 0.9-0.7 1.9-1.1 1.1-0.4 2.4-0.6 3.3-0.7h-0.3c-0.3 0.2 1.2 0 1.8-0.1-0.1 0.1-0.2 0.1-0.5 0.1 1.2 0.1 1.5-0.7 2.7-0.4-1.1 0-1.3 0.1-1.2 0.3 0.8-0.2 2.8-0.1 2.4-0.5 0.6 0.1 1.1 0.1 1 0.3l2.1-0.3c-0.1 0.1-0.3 0.2 0.3 0.2-1.1 0-2.3 0.3-2.9 0.1 0 0.2 0.4 0.3-0.2 0.5 2.3-0.1 3.6-0.5 5-0.8l2 0.2 0.1-0.1 0.4 0.3c0.2-0.1 0.4-0.1 0.4-0.1 0.1 0 0 0-0.1 0.1q0.3 0 0.6-0.1c0 0.2-0.4 0.3-0.7 0.5l-0.6-0.2c-0.4 0.2-0.7 0.3-0.1 0.4q0.1 0 0.3-0.1c-0.3 0.1-0.5 0.2-0.3 0.3l1.5-0.2c-0.1 0-0.4-0.1-0.7-0.2 0.9-0.1 2.6-0.4 1.6-0.6l0.8 0.1v0.8c0.2 1.8 0.2 1.4 0.4 3.1-0.1 0.1-0.2-0.4-0.3-0.1 0.3 1.3-0.3 3-0.1 3.3 0.1 1 0.3 0.4 0.4 1-0.1 0-0.1-0.1-0.1 0.1l0.2 0.8c-0.1 0.3-0.2-0.7-0.3 0.1 0.1 0.7 0.2 1.3 0.2 1.8q0 0.5 0 0.9 0 0.5 0 1.1c0 1.4 0.1 1.2 0.2 0.8 0.1-0.3 0.2-0.7 0.1 0.6 0 0.1-0.1 0.2-0.2 0.4-0.4-0.1-0.9-0.2-1.7-0.2-0.4 0.1-0.5 0.1-0.8 0.2-0.1 0-0.3 0.1-0.7 0.1v-0.2c-0.7 0-1.3 0-1.3-0.2-0.6 0.1-1.1 0.1-1.4 0.1-1.1 0.1 0.9 0.5 1.1 0.6-1.1-0.2-1.9-0.1-2.5-0.4l1-0.1c-2.1-0.3-2 0.4-3-0.1 0.7 0 1.6-0.2 1.2-0.3l-1.1 0.1c-0.1 0 0.6 0 0.2-0.1-0.3 0.1-0.9 0.2-1.1 0.3q-0.7 0.2-1 0.5c0-0.1 0-0.1-0.1 0q-0.2 0.3-0.3 0.8c0-0.3-0.1-0.1-0.3 0.4-0.2 1.5 0.5 1.2 0.3 2.4 0-0.2-0.1-0.2-0.1-0.4l-0.1 0.6c0.6 0.2 0.1 3.8 0.6 3.9-0.2 0.9-0.1 0.1-0.4-1.1l-0.1 1c0-0.4 0-0.7 0-1.2zm0.4-6.3q0-0.1 0.1-0.1-0.1 0-0.1 0.1zm-14.6-9.6q0-0.1 0-0.1 0 0 0 0.1zm-0.3 0.4q0 0 0 0.1 0-0.1 0-0.1zm-0.4 1.7q0 0 0-0.1 0 0.1 0 0.1zm-3.5 29.7q0 0 0 0 0 0 0 0zm2.3-0.4q-0.1 0-0.2 0 0.1 0 0.2 0zm2.8-30.6q0 0 0 0.1 0 0 0 0 0 0 0 0 0 0 0 0 0 0 0 0c0.1-0.2 0-0.1 0-0.1zm11.9 36.5q0 0 0 0 0 0 0 0zm-0.4 13.2q0-0.1 0-0.1 0 0.1 0 0.1zm1.8 9.4v0.1q0-0.1 0-0.1zm-0.2-24.8q0 0 0 0 0 0 0 0zm0.3-2.2q0 0 0 0 0 0 0 0zm8.9 0.2q-0.2 0-0.4 0 0.2 0 0.4 0zm2.6-12.3l0.1-0.1q-0.1 0-0.1 0.1zm-6.9-11.8c0.2 0.1 0.7 0 1 0-0.5-0.1-0.7-0.2-1 0zm2.8-14.3c-0.4-0.1-0.7-0.1-0.9 0q0.5 0 0.9 0zm-30.4 36.3c0.1-0.2 0.1-0.3 0 0zm0.2 0.3q0.1 0 0.1-0.1c-0.1 0.1-0.2 0.1-0.3 0.1q0 0.1 0.2 0zm21 3.7v0.3c0 0.1 0.1 0.3 0-0.3z"/>
			<path id="&lt;Path&gt;" class="s2" d="m78.2 24.5c0.1 0.1 0.1 0.1 0.2 0.1 0.1 0 0.1 0-0.2-0.1z"/>
			<path id="&lt;Path&gt;" class="s2" d="m74.7 48.5h0.1q0-0.1 0-0.1z"/>
			<path id="&lt;Path&gt;" class="s2" d="m51.8 48.8q0.2 0 0.3 0.1 0-0.1-0.3-0.1z"/>
			<path id="&lt;Path&gt;" class="s2" d="m53.6 61.1l-1.4 0.1c0.7-0.1 0.9 0 1.2 0 0 0-0.2-0.1 0.2-0.1z"/>
			<path id="&lt;Path&gt;" class="s2" d="m53.1 69.1c0 0.1 0 0.3 0 0.4l0.1-0.1c0-0.5-0.1-0.8-0.1-0.3z"/>
			<path id="&lt;Path&gt;" class="s2" d="m53.6 62.3c-0.1 0.2-0.1 0.8 0 1.5v-0.1c0.2 0.3 0.1-0.6 0-1.4z"/>
			<path id="&lt;Path&gt;" class="s2" d="m53.6 64q0 0.2 0 0.5c0.1 0.1 0-0.2 0-0.5z"/>
			<path id="&lt;Path&gt;" class="s2" d="m47.6 61.3c0.2 0.1 0.1-0.2 0.3-0.1 0.3-0.2-1.9 0.2-0.3 0.1z"/>
			<path id="&lt;Path&gt;" class="s2" d="m53.1 63.1q0.1-0.1 0.2-0.3-0.1-0.1-0.1-0.2z"/>
			<path id="&lt;Path&gt;" class="s2" d="m49.4 62.1l1 0.1c-0.1-0.1 0.1-0.1 0.2-0.1-0.6 0-1.2-0.1-1.2 0z"/>
			<path id="&lt;Path&gt;" class="s2" d="m50.6 62.1c0.3 0 0.6 0 0.7 0-0.1 0-0.5 0-0.7 0z"/>
			<path id="&lt;Path&gt;" class="s2" d="m52.7 62.3h-0.2-0.7z"/>
			<path id="&lt;Path&gt;" class="s2" d="m45.5 56.4l-0.1-1c0-0.1-0.1 0.1 0 0.5 0 0.3 0 0.6 0.1 0.5z"/>
			<path id="&lt;Path&gt;" class="s2" d="m45 59.4c0-0.2 0.1-0.3 0.1-0.4h-0.2z"/>
			<path id="&lt;Path&gt;" class="s2" d="m44.9 56.5c-0.1-0.1-0.2-1.5-0.2-0.2 0.1 0.1 0.2 1.1 0.2 0.2z"/>
			<path id="&lt;Path&gt;" class="s2" d="m53 49v0.2l0.4 0.3q-0.2-0.3-0.4-0.5z"/>
			<path id="&lt;Path&gt;" class="s2" d="m52.4 35.4c-0.3 1.2 0.2 0.3 0 1.4 0 0.3 0.2-0.9 0.2-0.6 0-0.7 0.2-1.1-0.2-0.8z"/>
			<path id="&lt;Path&gt;" class="s2" d="m52.6 36.2q0 0.2 0 0.4c0-0.2 0-0.3 0-0.4z"/>
			<path id="&lt;Path&gt;" class="s2" d="m55.2 98.7l-0.7-0.1 0.5 0.1z"/>
			<path id="&lt;Path&gt;" class="s2" d="m53.8 99l-0.2-0.3-0.5 0.3c0.2 0 0.5-0.1 0.7 0z"/>
			<path id="&lt;Path&gt;" class="s2" d="m76.9 39.6l0.1-0.1c-0.1 0-0.3-0.1-0.7-0.1z"/>
			<path id="&lt;Path&gt;" class="s2" d="m69.3 41.2v-0.2l-0.2 0.3z"/>
			<path id="&lt;Path&gt;" class="s2" d="m69.6 48.1q0 0 0 0-0.1 0-0.1 0c0.1 0 0 0 0 0 0 0.1 0 0.1 0.1 0z"/>
		</g>
	</g>
</svg>