<svg version="1.2" xmlns="http://www.w3.org/2000/svg" viewBox="0 0 126 125" width="126" height="125">
	<title>&lt;Group&gt;</title>
	<style>
		.s0 { fill: #2f312e } 
		.s1 { fill: #ede9e2 } 
		.s2 { fill: #ffffff } 
		.s3 { fill: #efebe4 } 
	</style>
	<g id="&lt;Group&gt;">
		<path id="&lt;Path&gt;" class="s0" d="m63.3 124.8c-0.6 0-0.4 0.1-0.5 0.1 1 0 0.4-0.2 0.5-0.1z"/>
		<path id="&lt;Path&gt;" class="s0" d="m72.6 123.7l1.3-0.3-1.2 0.2z"/>
		<path id="&lt;Path&gt;" class="s0" d="m76.5 122.8l-0.7 0.4c1.9-0.5 4.3-1.3 5.6-1.5-0.9 0-3.1 0.8-4.7 1.1z"/>
		<path id="&lt;Path&gt;" class="s0" d="m85 120.8c0.1 0 0.1 0 0.2 0 0.1-0.1 0.4-0.2 0.8-0.3-0.3 0 1-0.4-1 0.3z"/>
		<path id="&lt;Path&gt;" class="s0" d="m85.2 120.8c-0.9 0.3 0.6-0.1 0 0z"/>
		<path id="&lt;Path&gt;" class="s0" d="m89.1 119.1l-1 0.6c0.2-0.1 1.2-0.6 0.9-0.4 1.1-0.6 0.8-0.5 0.1-0.2z"/>
		<path id="&lt;Path&gt;" class="s0" d="m90.1 118.4l-0.5 0.3c0.1 0 0.2-0.1 0.5-0.3z"/>
		<path id="&lt;Path&gt;" class="s0" d="m88.4 119.4l1.2-0.7c-0.2 0-0.3 0-0.6 0.3 0.1-0.1-0.1 0.1-0.6 0.4z"/>
		<path id="&lt;Path&gt;" class="s0" d="m87.3 119.7c-1.1 0.4-1.6 0.6-1.5 0.6 0.1 0 0.8-0.1 1.9-0.6-0.7 0.2-1.5 0.5-0.4 0z"/>
		<path id="&lt;Path&gt;" class="s0" d="m80.1 121.8c0.2-0.1 0.6-0.2 1-0.3 0.4-0.1 0.7-0.2 0.6-0.2q-0.4 0.1-0.9 0.2z"/>
		<path id="&lt;Path&gt;" class="s0" d="m88.3 119.2l2.3-1.3-0.4 0.2z"/>
		<path id="&lt;Path&gt;" class="s0" d="m94 115.8c-0.4 0.4 0.4 0-0.6 0.7 0.7-0.5 2.1-1.4 0.6-0.7z"/>
		<path id="&lt;Compound Path&gt;" fill-rule="evenodd" class="s0" d="m125.1 58.8c0.2 0.5 0.2 3.1 0.2 4.3l-0.2 0.4c-0.1 1.6-0.1 2.6-0.1 3.6-0.2 1.7-0.5 3.3-0.7 4.8-0.2 1.6-0.3 3.1-0.7 4.5h-0.1l-0.6 2.9c0.1-0.8-0.1 0.6-0.3 1.5-0.3 0.9-0.9 2.3-1.3 3.3l-0.7 1.8c0.7-2-0.2 0.1-0.4 0.1q-0.1 0.6-0.3 1.2c-0.3 0.4 0.2-0.7-0.2 0-0.3 0.8-1.3 2.9-1.5 3.7 0.1-0.1 0.2-0.3 0.4-0.7q0-0.1 0 0l0.1-0.1q-0.1 0.1-0.1 0.1c0 0.1-0.1 0.3-0.1 0.4-0.7 1.3-0.4 0.8-0.3 0.8-0.4 0.7-0.8 1.3-1.2 1.8-0.3 0.5-0.6 0.9-0.9 1.3 0.7-0.7-2.2 3.5-1.4 2.8-0.9 0.9-0.5 0.6-1.2 1.2 1.2-1.4 1.9-3.1 2.5-4.3l-0.8 1.1c0.3-0.9 1.7-2.7 2.1-3.4-0.2 0.5-0.9 1.4-1 1.5l0.3-0.2q0.4-0.6 0.8-1.2 0.3-0.6 0.5-1.2 0.5-1.1 0.9-2.1c-0.6 1.1 0.5-1.4 0.1-0.8q-1.9 4.1-4.3 7.8l-0.2 0.5-0.3 0.2q-0.8 1.3-1.7 2.6c-0.3 0.5-1.3 2-0.8 1.6-0.3 0.3-0.5 0.4-0.6 0.6-0.2 0.2-0.5 0.5-1.1 1.2-0.7 1 1.2-0.9 1.5-1.3-0.8 1.2-0.8 1.2-0.8 1.3-0.9 0.6-1.7 1-1.3 0.3q-0.6 0.7-1.2 1.4-0.2 0.2-0.5 0.6c-3.6 3.8-7.8 7.2-12.3 10q0.1 0-0.1 0.1 0 0 0 0c-9.4 5.8-20.5 9.2-32.4 9.2q-1.6 0-3.1-0.1c0.6 0.2 0.9 0.3 0.2 0.4h1.2c-0.4 0.2-3.6-0.2-4.3 0-1.2-0.2-2.3-0.5-3.5-0.7 0.1 0.1-0.5 0.1 0.1 0.2-0.9-0.1-1.7-0.2-0.6 0.1-8.3-1.9-16.9-4.7-23.9-9.5-0.5-0.3-0.2-0.1-0.1 0.1-1.2-1-1.3-0.8-2-1.3l-1.6-1.6c-0.8-0.5-0.3 0.1-0.4 0.1-1.8-1.2-3.3-2.8-4.8-4.2q-0.5-0.5-1.1-1c-0.3-0.4-0.6-0.8-0.9-1.1q-1-1.1-1.9-2c-0.7-0.9 0.3 0-0.6-1.1 0.5 0.8-0.3 0.1-1-0.8-0.6-0.8-1.3-1.7-1.2-1.4-0.3-0.7-1.1-1.7-1.7-2.5-0.6-0.9-0.9-1.7-0.6-1.5-0.8-1.5-0.9-1.1-0.6-0.7q-0.8-1.3-1.5-2.4-0.3-0.5-0.7-1.1-0.3-0.5-0.6-1.1c-0.2-0.5-1.3-2.6-2.2-4.8-0.8-2.2-1.7-4.5-1.8-5.5 0.1 1.2-0.2-0.1-0.5-1.2l0.1 1.1-0.7-2.6c-0.2-0.6-0.2-0.7-0.2-0.7-0.1-0.5 0.2 0.1-0.1-1.1-0.2-0.9-0.3-1.3-0.4-1.7-0.1-0.4-0.2-0.6-0.3-1.1v0.3l-0.2-1.3c-0.1-0.9 0.7 3.2 0.3 0.2 0 0-0.6-1.7-0.5-2.5 0.2 1.5 0.3 1.3 0.2 0.7 0-0.7-0.2-1.4-0.2-2.1-0.1 0.3-0.1 0.5-0.2 0.7-0.5-6.1-0.3-12.5 1-18.9 0.1 0.1 1.1-4.5 1.3-3.9l-0.1 0.3c-0.3 1.1 0 0.5 0.3-0.4q0.1-0.6 0.3-1.1 0-0.1 0-0.2c-0.4 1.3 0.3-2.4-0.6 0.8 0.2-0.9 0.3-1.7 0.6-2.5 0-0.8 0.6-2.4 1.3-4.3 0.4-0.9 1-1.9 1.4-2.9 0.5-0.9 1-1.9 1.4-2.8-0.1 0.3-0.1 0.4-0.1 0.4 0.3-0.8 0.7-1.6 1.2-2.4 0.5-0.7 1-1.5 1.4-2.2 0.8-1.3 1.7-2.3 1.9-2.6l0.3-0.2c1.6-2.5 1.7-2.9 4.2-5.4-0.1 0-0.3 0.4 0.1 0 0.2-0.4 0.5-0.7 0.9-1.2 0.4-0.5 0.9-1.2 1.8-1.9v0.1l2.7-2.6c0.2 0.3 4.9-4.2 6.2-4.4 0.5-0.5 2.9-2 3.9-2.7q0 0 0.3-0.1c1.1-1 3.8-1.8 5.2-2.5 0.9-0.5 0.5-0.4 0-0.3 2-0.7 5.3-2.2 6-2.4 1.5-0.5 0.6 0 1.1 0 2.1-0.7-0.5-0.4 2.5-0.9-0.4 0.1-1 0.2-0.7 0.2 1.1-0.2 3.2-0.3 4.3-0.5q-0.4 0-0.7 0c2-0.5 4.9-0.4 5.2-0.7l-0.2-0.2c0.9-0.1 1.5-0.1 1.8-0.1 0.4 0 0.6 0 0.8 0 0.4-0.1 0.8-0.1 2.6-0.1 1.6-0.1 2.4 0 3.2-0.2h-0.5c1.9 0.1 2.1 0.1 4.1 0.2 0.3 0 1.3 0 1.5 0.1 0.2-0.3 4.7 0.6 5.6 0.7-1.6-0.2-0.9 0-0.4 0.1 0.5 0 0.9 0.1 1.3 0.1 0.4 0.1 0.9 0.3 1.5 0.5 0.3-0.2 0.6-0.4 3.1 0.2-0.4-0.1-1-0.2-0.8-0.1 0.3 0.1 0.9 0.2 1.1 0.3 0.2 0.1-0.6-0.1-0.4 0.1 1.8 0.1 2.9 0.9 5.3 1.6-0.7-0.2-0.1 0.1 0.1 0.3 0.2-0.1 1 0.3 1.6 0.6 0.7 0.3 1.2 0.6 0.8 0.2 4.5 2.1 11.1 6 12.4 7.6 0.3 0.3 1.5 1 2.2 1.6h-0.2c2 1.4 1.5 1.2 3.8 2.9-1-0.7-0.7-0.3 0.1 0.6l0.8 0.5 0.8 0.7 0.1 0.4c0.6 0.5 1.1 1.2 1.7 1.9 0.3 0.2 0.9 0.8 1.5 1.4 0.6 0.7 1.3 1.5 1.5 1.7 0.3 0.9 1.4 1.8 1.6 2.5 0.2 0.2 0.5 0.5 0.7 0.8-0.1-0.4-0.1-0.6 0.3 0.1q0 0.1 0.1 0.1v0.4c0.5 0.7 0.9 1.4 1.2 1.8q-0.2-0.3-0.4-0.7 0.3 0.5 0.5 0.9 0.1 0.1 0.1 0.2 0 0-0.1-0.1c0.2 0.4 0.5 0.9 0.9 1.4 0.6 1.3 1.3 2.7 2.1 4.1 0.4 0.7 0.8 1.4 1.1 2.1q0.4 1.2 0.7 2.3c-0.1-0.4-0.3-1.1-0.5-1.2 0.9 2.4 1.7 4.9 2.1 6.5l0.1-0.2c0.5 1.9 1 3.3 1.3 4.8h0.2c0.1 1.1 0.4 2.9 0.7 4.5q0.1 0.6 0.2 1.2 0 0.6 0 1.1c0 0.7 0 1.2-0.1 1.6zm-15.8-37.3c-0.3-0.3-0.1-0.1-0.1-0.1q0 0 0.1 0.1zm0 0q0 0 0 0 0 0 0 0 0 0 0 0zm-105.7 59q0 0 0 0 0 0 0 0zm9.7 19.7q0-0.1 0-0.1 0 0 0 0.1zm103-6.7q0 0 0-0.1zm-0.4 1.3q0.1-0.1 0.2-0.2-0.1 0.1-0.2 0.2zm6.6-47.6q0.3 1.1 0.5 2.2l0.3 0.2-0.2 0.1q0.2 1 0.4 2.1 0 0 0-0.1c0-0.4 0-1.4-0.2-2.3-0.2-0.9-0.3-1.8-0.3-1.9q-0.2-0.3-0.5-0.3zm-3.3-10.5c-0.6-1.1-1.2-2-1.8-2.8q0.8 1.5 1.5 3.2c0.6 0.8 1.1 1.5 1.4 1.9-0.3-0.6-0.6-1.2-1-1.8zm-14.5-19.4q0.4 0.4 0.9 0.8c0-0.1 0-0.2 0.2-0.1q-0.6-0.4-1.1-0.7zm-30.9-15.5c0.2 0 0.5 0.1 0.8 0.2q0.4 0.1 0.8 0.2 0.3 0 0.5 0.1-0.1-0.1-0.2-0.1 0.5 0.2 1.1 0.3-0.1-0.1-0.4-0.2-0.2 0-0.5 0c0.4 0 0.7 0 0.4-0.1-0.8-0.3-1.7-0.3-2.5-0.4zm-71.4 75.2l0.1 0.4c0.1 0.2 0.2 0.5-0.1-0.4zm108.7 23.8q-0.6 0.8-1.3 1.5c0.5-0.5 1-1 1.3-1.5zm12.9-30.8q-0.2 1.4-0.4 2.7 0-0.1 0.1 0l-0.3 1.6c0 0.3 0-0.3 0-0.7q0.1-0.1 0.1-0.1-0.6 3-1.4 5.9c-0.1 0.4-0.2 0.8-0.2 1l0.5-1.5c-0.2 0.6-0.4 1.2-0.6 1.8-0.2 0.6-0.5 1.3-0.8 2.2 0.2-0.3-0.1 1.1 0.6-0.2 0.7-1.7 0.8-2.5 0.9-3.3 0.1-0.8 0.3-1.8 0.8-3.9 0-0.2 0 0.1 0.1 0.1 0 0 0.2-0.3 0.3-1.4 0.2-1.8 0.3-3.3 0.3-4.2zm-2.2 12.8q0 0-0.1 0c0.3-0.6 0.5-1 0.1 0zm2.7-22.8q-0.1-0.5-0.1-0.9 0 0.5 0 1c0-0.1 0-0.2 0.1-0.1z"/>
		<path id="&lt;Path&gt;" class="s0" d="m61.7 124.5l0.3 0.2 0.8-0.1c-0.3 0-0.9 0-1.1-0.1z"/>
		<g id="&lt;Group&gt;">
			<g id="&lt;Group&gt;">
				<path id="&lt;Compound Path&gt;" fill-rule="evenodd" class="s1" d="m77 28.8c3.6 0.2 6.1 0.8 8.2 1.6 2.2 0.9 4.1 2 6 3.9 1.9 1.9 3 3.8 3.9 6 0.8 2.1 1.4 4.6 1.6 8.2 0.1 3.6 0.2 4.7 0.2 13.9 0 9.2-0.1 10.3-0.2 13.9-0.2 3.6-0.8 6.1-1.6 8.2-0.9 2.2-2 4.1-3.9 6-1.9 1.9-3.8 3-6 3.9-2.1 0.8-4.6 1.4-8.2 1.6-3.6 0.1-4.7 0.2-13.9 0.2-9.2 0-10.3-0.1-13.9-0.2-3.6-0.2-6.1-0.8-8.2-1.6-2.3-0.9-4.1-2-6-3.9-1.9-1.9-3-3.8-3.9-6-0.8-2.1-1.4-4.6-1.6-8.2-0.1-3.6-0.2-4.7-0.2-13.9 0-9.2 0.1-10.3 0.2-13.9 0.2-3.6 0.8-6.1 1.6-8.2 0.9-2.2 2-4.1 3.9-6 1.9-1.9 3.7-3 6-3.9 2.1-0.8 4.6-1.4 8.2-1.6 3.6-0.1 4.7-0.2 13.9-0.2 9.2 0 10.3 0.1 13.9 0.2zm-27.6 6.1c-3.2 0.2-5 0.7-6.2 1.2-1.6 0.6-2.7 1.3-3.9 2.5-1.2 1.2-1.9 2.3-2.5 3.9-0.5 1.2-1.1 3-1.2 6.3-0.2 3.5-0.2 4.6-0.2 13.6 0 9 0 10.1 0.2 13.6 0.1 3.3 0.7 5.1 1.2 6.3 0.6 1.6 1.3 2.7 2.5 3.9 1.2 1.2 2.3 1.9 3.9 2.5 1.2 0.5 3 1 6.2 1.2 3.6 0.2 4.7 0.2 13.7 0.2 9 0 10.1 0 13.6-0.2 3.3-0.2 5.1-0.7 6.3-1.2 1.6-0.6 2.7-1.3 3.9-2.5 1.2-1.2 1.9-2.3 2.5-3.9 0.5-1.2 1-3 1.2-6.3 0.1-3.5 0.2-4.6 0.2-13.6 0-9-0.1-10.1-0.2-13.6-0.2-3.3-0.7-5.1-1.2-6.3-0.6-1.6-1.3-2.7-2.5-3.9-1.2-1.2-2.3-1.9-3.9-2.5-1.2-0.5-3-1-6.3-1.2-3.5-0.2-4.6-0.2-13.6-0.2-9 0-10.1 0-13.7 0.2z"/>
				<g id="&lt;Group&gt;">
					<path id="&lt;Compound Path&gt;" fill-rule="evenodd" class="s2" d="m77 28.8c3.6 0.2 6.1 0.8 8.2 1.6 2.2 0.9 4.1 2 6 3.9 1.9 1.9 3 3.8 3.9 6 0.8 2.1 1.4 4.6 1.6 8.2 0.1 3.6 0.2 4.7 0.2 13.9 0 9.2-0.1 10.3-0.2 13.9-0.2 3.6-0.8 6.1-1.6 8.2-0.9 2.2-2 4.1-3.9 6-1.9 1.9-3.8 3-6 3.9-2.1 0.8-4.6 1.4-8.2 1.6-3.6 0.1-4.7 0.2-13.9 0.2-9.2 0-10.3-0.1-13.9-0.2-3.6-0.2-6.1-0.8-8.2-1.6-2.3-0.9-4.1-2-6-3.9-1.9-1.9-3-3.8-3.9-6-0.8-2.1-1.4-4.6-1.6-8.2-0.1-3.6-0.2-4.7-0.2-13.9 0-9.2 0.1-10.3 0.2-13.9 0.2-3.6 0.8-6.1 1.6-8.2 0.9-2.2 2-4.1 3.9-6 1.9-1.9 3.7-3 6-3.9 2.1-0.8 4.6-1.4 8.2-1.6 3.6-0.1 4.7-0.2 13.9-0.2 9.2 0 10.3 0.1 13.9 0.2zm-27.6 6.1c-3.2 0.2-5 0.7-6.2 1.2-1.6 0.6-2.7 1.3-3.9 2.5-1.2 1.2-1.9 2.3-2.5 3.9-0.5 1.2-1.1 3-1.2 6.3-0.2 3.5-0.2 4.6-0.2 13.6 0 9 0 10.1 0.2 13.6 0.1 3.3 0.7 5.1 1.2 6.3 0.6 1.6 1.3 2.7 2.5 3.9 1.2 1.2 2.3 1.9 3.9 2.5 1.2 0.5 3 1 6.2 1.2 3.6 0.2 4.7 0.2 13.7 0.2 9 0 10.1 0 13.6-0.2 3.3-0.2 5.1-0.7 6.3-1.2 1.6-0.6 2.7-1.3 3.9-2.5 1.2-1.2 1.9-2.3 2.5-3.9 0.5-1.2 1-3 1.2-6.3 0.1-3.5 0.2-4.6 0.2-13.6 0-9-0.1-10.1-0.2-13.6-0.2-3.3-0.7-5.1-1.2-6.3-0.6-1.6-1.3-2.7-2.5-3.9-1.2-1.2-2.3-1.9-3.9-2.5-1.2-0.5-3-1-6.3-1.2-3.5-0.2-4.6-0.2-13.6-0.2-9 0-10.1 0-13.7 0.2z"/>
					<g id="&lt;Group&gt;">
						<path id="&lt;Path&gt;" class="s3" d="m63.4 29.6c-0.4 0-0.3 0.1-0.3 0.1 0.6 0 0.3-0.2 0.3-0.1z"/>
						<path id="&lt;Path&gt;" class="s3" d="m69.1 29.3l-0.1 0.1 0.9-0.2z"/>
						<path id="&lt;Path&gt;" class="s3" d="m74.5 29.4c-0.5-0.3-2 0-2.9-0.1l-0.2-0.1-0.4 0.2c1.1 0 2.7-0.1 3.5 0z"/>
						<path id="&lt;Path&gt;" class="s3" d="m77.3 30c-0.2-0.1 0.6-0.1-0.7 0q0.1 0 0.2 0c0.1 0 0.2 0 0.5 0z"/>
						<path id="&lt;Path&gt;" class="s3" d="m76.8 30c-0.6 0 0.3 0.1 0 0z"/>
						<path id="&lt;Path&gt;" class="s3" d="m79.3 30.1h-0.7c0.1 0.1 0.8 0.2 0.5 0.2 0.7 0 0.6 0 0.2-0.2z"/>
						<path id="&lt;Path&gt;" class="s3" d="m80 30h-0.4c0.1 0 0.2 0 0.4 0z"/>
						<path id="&lt;Path&gt;" class="s3" d="m78.8 30h0.8c-0.1-0.1-0.1-0.2-0.3 0 0-0.1-0.1 0-0.5 0z"/>
						<path id="&lt;Path&gt;" class="s3" d="m78.4 29.9c-0.4-0.1-0.9-0.2-0.2-0.2-1.4-0.1-1.2 0.1 0.2 0.2z"/>
						<path id="&lt;Path&gt;" class="s3" d="m74.8 29.1l-0.6-0.1-0.5 0.1c0.3-0.1 1.1 0.1 1.1 0z"/>
						<path id="&lt;Path&gt;" class="s3" d="m83.6 31.2c0.1-0.1-0.2-0.3-0.2-0.4h-0.5c0.2 0.1 0.7 0.3 0.7 0.4z"/>
						<path id="&lt;Path&gt;" class="s3" d="m83.4 30.8l0.8 0.2c-0.7-0.2-0.8-0.2-0.8-0.2z"/>
						<path id="&lt;Path&gt;" class="s3" d="m80.2 29.7q-0.7 0-1.4 0.1 0.8-0.1 1.6 0z"/>
						<path id="&lt;Path&gt;" class="s3" d="m86.3 32.3l-0.4-0.1 0.8 0.2z"/>
						<path id="&lt;Path&gt;" class="s3" d="m88 33.2c-0.3-0.1 0.2 0.4-0.1 0.3 0.5 0.3 0.9 0.5 1.2 0.7-0.3-0.3-0.7-0.6-1.1-1z"/>
						<path id="&lt;Path&gt;" class="s3" d="m89.7 34.5q-0.2-0.2-0.6-0.3 0.3 0.1 0.6 0.3z"/>
						<path id="&lt;Path&gt;" class="s3" d="m85.4 31.5c0 0.1 0.1 0.2 0.5 0.4l-0.2-0.3q-0.1 0-0.3-0.1z"/>
						<path id="&lt;Path&gt;" class="s3" d="m85.7 31.6q0.4 0.2 0.6 0.3c-0.1 0-0.3-0.1-0.6-0.3z"/>
						<path id="&lt;Path&gt;" class="s3" d="m85.3 31.5q0.1 0 0.1 0 0 0-0.1 0z"/>
						<path id="&lt;Path&gt;" class="s3" d="m82.2 30.2c0.5 0.1 1.5 0.2 0.6-0.2-0.4 0.1 0.1 0.3-0.6 0.2z"/>
						<path id="&lt;Path&gt;" class="s3" d="m85.1 31.1l-0.8-0.3c0 0 0.1 0.2-0.1 0.1z"/>
						<path id="&lt;Path&gt;" class="s3" d="m85.5 31.2l-0.4-0.1 0.2 0.2z"/>
						<path id="&lt;Path&gt;" class="s3" d="m88.8 33.5q0.4 0.2 0.9 0.7-0.5-0.5-1.1-1c0 0-0.3 0 0.2 0.3z"/>
						<path id="&lt;Path&gt;" class="s3" d="m87.3 32.5h0.1q-0.1-0.1-0.1 0z"/>
						<path id="&lt;Path&gt;" class="s3" d="m92.6 37.4z"/>
						<path id="&lt;Path&gt;" class="s3" d="m88.6 33.2c-0.3-0.3-0.5-0.4-0.7-0.4q0.4 0.2 0.7 0.4c0.1 0 0.1 0 0 0z"/>
						<path id="&lt;Path&gt;" class="s3" d="m90.7 35.3q-0.2-0.2-0.4-0.5c0.1 0.2 0.3 0.5 0.4 0.5z"/>
						<path id="&lt;Path&gt;" class="s3" d="m87.5 32.6h-0.1c0.1 0.1 0.1 0.1 0.1 0z"/>
						<path id="&lt;Path&gt;" class="s3" d="m87.5 32.6q0.2 0.1 0.4 0.2-0.3-0.2-0.5-0.3 0.1 0.1 0.1 0.1z"/>
						<path id="&lt;Path&gt;" class="s3" d="m94.2 38c-0.1 0.1-0.7-0.7-1.1-1.5-0.6-0.6-0.7 0.1-0.5 0.9 0.1-0.1 0.1-0.1 0.6 0.6 0-0.3-0.8-1.7-0.3-1.2 0.7 0.9 0.4 0.8 0.7 1.3-0.1-0.5 0.9 1.1 1 0.8q-0.3-0.4-0.5-0.8c0-0.1 0.2 0.2 0.1-0.1z"/>
						<path id="&lt;Path&gt;" class="s3" d="m91.7 36.1l-0.3-0.2c0.3 0.3 0.4 0.5 0.6 1 0.4 0.4 0.5 0.5 0.6 0.5q-0.5-0.7-1-1.4z"/>
						<path id="&lt;Path&gt;" class="s3" d="m90.4 34.8c0.3 0 0.9 0.6 0.7 0.1-0.7-0.7-0.6-0.4-1.1-0.8 1.2 1.1-0.4-0.2 0.4 0.6q-0.4-0.3-0.7-0.5 0.3 0.3 0.6 0.6-0.1-0.2 0-0.1 0 0 0 0 0 0 0.1 0.1c0.3 0.3 0 0-0.1-0.1q0 0 0 0.1 0.6 0.5 1.1 1.1c-0.2-0.3-0.5-0.6-1-1.1z"/>
						<path id="&lt;Path&gt;" class="s3" d="m83.7 29.9q0.1 0.1 0.1 0.1c0.1 0 0.1 0-0.1-0.1z"/>
						<path id="&lt;Path&gt;" class="s3" d="m84.4 30.3c-0.2-0.1-0.3 0-0.6-0.2-0.4-0.1 0 0 0-0.1-0.3 0-0.9-0.1-0.2 0.2h0.2c0.6 0.2 1.3 0.7 1.2 0.7-0.1-0.2-0.3-0.4-0.6-0.6z"/>
						<path id="&lt;Path&gt;" class="s3" d="m87.7 32.2q0.6 0.3 1.2 0.7-0.2-0.3-0.5-0.6v0.1c-0.6-0.4-0.5-0.2-0.7-0.2z"/>
						<path id="&lt;Path&gt;" class="s3" d="m92.6 37.6h-0.2q0.3 0.2 0.6 0.5z"/>
						<path id="&lt;Path&gt;" class="s3" d="m93.5 39.1h-0.2l0.3 0.4z"/>
						<path id="&lt;Path&gt;" class="s3" d="m42.8 96l-0.4-0.1q0.3 0.1 0.4 0.1z"/>
						<path id="&lt;Path&gt;" class="s3" d="m45.9 96.6l0.1-0.1c-0.2 0.1-0.2 0.1-0.1 0.1z"/>
						<path id="&lt;Path&gt;" class="s3" d="m94.7 82.8c-0.3 0.5-0.8 1-0.6 1l0.2-0.1q0.2-0.5 0.4-0.9z"/>
						<path id="&lt;Path&gt;" class="s3" d="m70.5 96.1l0.2 0.1q0.2-0.1 0.4-0.2-0.3 0-0.6 0.1z"/>
						<path id="&lt;Path&gt;" class="s3" d="m70.1 96.8l-0.8-0.1q0.3 0.1 0.8 0.1z"/>
						<path id="&lt;Path&gt;" class="s3" d="m30.2 85.2l-0.4-0.4c0.3 0.7 0.3 0.4 0.4 0.4z"/>
						<path id="&lt;Path&gt;" class="s3" d="m95.9 57q-0.1 0.8-0.1 1.3c0.1-0.6 0.2-1.1 0.1-1.3z"/>
						<path id="&lt;Path&gt;" class="s3" d="m44.4 94.5q-0.4 0-0.3 0.1c0.2 0 0.4 0 0.3-0.1z"/>
						<path id="&lt;Path&gt;" class="s3" d="m95.8 59.8q0-0.1 0-0.2c0-0.4 0-0.8 0-1.3-0.1 0.5-0.1 1 0 1.5z"/>
						<path id="&lt;Path&gt;" class="s3" d="m40.6 29.5h0.2q0-0.1-0.2 0z"/>
						<path id="&lt;Path&gt;" class="s3" d="m58.1 29.4c-0.2 0-0.5 0-0.7 0.1 0.1 0 0.3 0 0.7-0.1z"/>
						<path id="&lt;Path&gt;" class="s3" d="m95.4 45.8c-0.1-0.4 0-0.1 0 0z"/>
						<path id="&lt;Path&gt;" class="s3" d="m95.7 43.9q0.1 0.1 0.2 0.1-0.1 0-0.2-0.1z"/>
						<path id="&lt;Path&gt;" class="s3" d="m96.9 63.7c0-0.1 0-0.1 0 0z"/>
						<path id="&lt;Path&gt;" class="s3" d="m95.4 45.2q0 0.3 0 0.5 0-0.1 0-0.5z"/>
						<path id="&lt;Path&gt;" class="s3" d="m95.3 45.3q0-0.2 0-0.3c-0.1 0-0.1 0 0 0.3z"/>
						<path id="&lt;Path&gt;" class="s3" d="m95.5 46.3q-0.1-0.3-0.1-0.6 0 0.1 0 0.1 0 0.2 0.1 0.5z"/>
						<path id="&lt;Path&gt;" class="s3" d="m28.9 57.4q0 0 0 0c-0.1-0.4-0.1-0.3 0 0z"/>
						<path id="&lt;Path&gt;" class="s3" d="m90.7 92.1v-0.1q0 0 0 0.1z"/>
						<path id="&lt;Path&gt;" class="s3" d="m89.6 93.1c0.4-0.6 0.7-0.8 1.1-1l-0.7-0.1q-0.2 0.5-0.4 1.1z"/>
						<path id="&lt;Compound Path&gt;" fill-rule="evenodd" class="s2" d="m37.1 93.5c-1-1-2.1-1.6-2.7-2-0.4-0.4 0.5 0-0.6-1-1.4-1.5 0 0.6-0.9-0.4q-0.2-0.4-0.3-0.8c-1.2-1.2-1.6-2.4-2.1-3.6-0.1-0.3-0.2-0.4-0.3-0.5-0.4-1.3-1.2-2.7-1.3-3.8 0.1 0.2 0-0.7 0.1-0.8q-0.3-0.9-0.5-1.9c0.2 0.8 0.3 0.8 0.5 0.9-0.1-0.6-0.2-0.8-0.3-1.2 0.1 0.2 0.2 0.4 0.2 0.1q-0.2-0.9-0.4-1.9c0 0.1 0 0.3 0 0.5 0-0.5-0.1-1.5 0-2.2 0.1 0 0.1 0.3 0.2 0.3-0.2 0.6 0 0.9 0.1 1.2-0.1-1.3 0-0.3 0.1-1 0-0.9-0.2-1.3-0.3-1 0-1.1 0-1.4-0.1-2.5l0.2 0.2-0.1-1 0.3 0.8c0.1-2-0.4-0.4-0.3-2.5h0.2c-0.1-0.8-0.4-1.1-0.2-1.8-0.1-0.8-0.3 1.4-0.3-0.5 0.1-0.3 0.1-1 0.2-1.6-0.1-0.5-0.2 0.3-0.2 0.8-0.1-2.7 0.6-1.7 0.3-4.2-0.1 0.9-0.4-0.7-0.3 1.3-0.2-1 0.2-1.9 0-2.9l0.3 0.6c0-0.3-0.1-0.7-0.1-0.9h0.2c-0.3-1.2 0.2-2.3-0.3-3.1 0.4 0.6 0-0.9 0.2-1.4 0.2 1.1-0.1 3 0.2 3.1 0.1-0.5 0-0.9 0.1-1.4 0 0.4 0.1 0.8 0.2 1 0.2-1.6-0.2-2.5-0.3-3.5l0.1 1.7c-0.3-0.1-0.1-0.8-0.3-1.2 0.2-0.9 0-1.6 0.1-2.3 0 0.2 0 0.2 0 0.4 0-1.9 0.5-2.3 0.5-3.1 0.1-0.7-0.1-2.1-0.2-1.6-0.1-0.6 0.1 2.5-0.3 1.4 0.5-1-0.2-2.2 0.4-4.5 0 1 0.3-0.6 0.3 0.3 0.1-1.1 0.1-1.1 0-1.6l0.2-0.4c0-1.5-0.2-0.4 0.2-2.6-0.1 0.8 0.5-0.8 0.4-0.2 0.2-0.6 0.4-1.2 0.5-1.6v0.1c0.4-1.1 0.6-1.5 0.9-1.9 0.2-0.3 0.4-0.7 1-1.6l-0.2 0.1c1.3-2.4 4.1-4.7 6.6-6q-0.5 0.2-0.9 0.4c0.3-0.1 1.7-1 2.5-1.2-0.1 0.1-0.4 0.2-0.6 0.3 0.1 0.1 0.5 0 1.1-0.2l0.2-0.2h0.3c1-0.3-0.4-0.1 0.6-0.4 0.4 0.1 1.5-0.2 2.6-0.4 1.1-0.2 2.3-0.3 2.7-0.1 0.7-0.4-1.9 0.1-1.2-0.2 0.3 0 0.5 0 1.1 0l-0.2-0.2c1.6-0.1 2.6 0 3.6 0 1 0.1 2 0.1 3.3 0l-0.1 0.1c1 0 1.5 0 1.9-0.2 0.2 0.1-0.5 0.2-0.1 0.2 1.7-0.5 3.4 0.3 4.4 0-0.1 0.4 2.1 0.7 1.2 1l0.6-0.1c-0.2 0.3-2.1 0.1-2.5 0.3l-2.2-0.2c0.1 0.1-0.3 0.2 0.1 0.3-0.6 0-1 0-0.3 0.1-2.6-0.3-5.3-0.2-7.9-0.2q-3.9 0.3-7.5 1.3c-0.3 0.1-0.1 0.2 0.1 0.2-1 0.1-0.8 0.4-1.3 0.6q-0.6 0.1-1.3 0.3c-0.4 0.3 0 0.2 0 0.3-2.1 1.2-4.2 2.7-5.2 4.5-0.5 0.4-0.2-0.3-0.7 0.4 0.5-0.4 0.1 0.1-0.2 0.7-0.3 0.5-0.6 1.1-0.4 1-0.8 0.7-1.3 2.8-1.6 2.2-0.4 1-0.1 0.9 0.1 0.7-0.4 1.1-0.6 2.1-0.6 3.1-0.2 0.3-0.3 1.6-0.4 3.1-0.1 1.4-0.1 2.8-0.3 3.4 0.2-0.6 0.1 0.2 0.2 0.9l0.2-0.7v1.7c0 0.3 0 0.4 0 0.4-0.1 0.3-0.2-0.1-0.2 0.6-0.1 1.1 0.1 1.2 0.2 1.8v-0.2 0.8c0 0.5-0.2-2-0.3-0.2 0 0 0.3 1.1 0.2 1.6 0-0.9-0.2-0.8-0.3-0.5v1.3l0.3-0.4c-0.1 3.7-0.2 7.5-0.1 11.5-0.3-0.1 0 2.8-0.4 2.4v-0.1c0-1-0.2 0.2-0.2 1 0.1-0.8 0.4 1.5 0.4-0.5l0.2 1.5c0.4 0.4 0.4 1.5 0.3 2.7 0 1.2 0 2.6 0.4 3.7-0.1-0.2-0.1-0.2-0.2-0.2 0.6 1.9 1.1 4.4 1.4 4.8l-0.1 0.2c1 1.5 1.1 1.6 2.3 3.3-0.1 0-0.3-0.1-0.1 0.2 0.4 0.2 0.8 0.5 1.8 1.5l-0.1 0.1q0.8 0.7 1.7 1.3c-0.2 0.3 0.7 0.8 1.6 1.2 0.9 0.4 2 0.7 2.2 1.1 0.5 0.1 2 0.5 2.8 0.6q-0.1 0 0.1 0.1c0.9-0.1 2.4 0.5 3.4 0.5 0.6 0 0.3-0.1 0.1-0.2 1.2 0.4 3.4-0.2 3.8-0.1 1 0.1 0.4 0.3 0.6 0.4 1.4 0-0.2-0.5 1.6-0.3-0.2 0-0.6 0.1-0.4 0.1 0.7 0.1 1.9 0.8 2.6 0.6l-0.5-0.1c1.3-0.1 3 0.5 3.3 0.1l-0.2-0.1c2.2 0.2 1-0.1 3.2 0.2 0.9 0 1.5 0.2 1.9-0.1h-0.3c1.2-0.1 1.3-0.1 2.5-0.1 0.2 0 0.8-0.1 0.9 0 0.1-0.2 2.9-0.1 3.4-0.1-0.9 0-0.5 0.1-0.2 0.2 0.6-0.2 1-0.2 1.8-0.1 0.1-0.3 0.2-0.6 1.8-0.7-0.3 0.1-0.7 0.1-0.5 0.2 0.2 0 0.5 0 0.6-0.1 0.2 0.1-0.3 0.1-0.1 0.2 1-0.3 1.8 0 3.3-0.1-0.5 0.1 0 0.1 0.1 0.2 0.1-0.3 2.1 0.2 1.5-0.2 1.5 0 3.3-0.3 4.9-0.7 1.6-0.5 2.8-1.1 3.4-1.2 0.3 0 0.9-0.6 1.4-0.9v0.2c1-1 0.9-0.7 1.9-2-0.4 0.6-0.1 0.5 0.5 0.1q0.3-0.5 0.6-1h0.3c0.3-0.4 0.6-0.8 1-1.2 0.1-0.5 1-1.9 1-2.3 0.5-0.3 0.5-1.2 0.9-1.4q0.1-0.3 0.2-0.7c-0.2 0.2-0.4 0.2-0.2-0.2q0 0 0-0.1l0.3-0.1c0.1-0.5 0.2-0.9 0.3-1.2q-0.1 0.2-0.2 0.4 0.1-0.2 0.2-0.5 0-0.1 0.1-0.1 0 0-0.1 0.1c0.2-0.3 0.3-0.6 0.3-1 0.6-1.6 0.2-3.6 0.6-5.4 0 0.2-0.1 0.6 0 0.7 0-1.5 0.3-3.1 0.2-4.1l-0.2 0.1c-0.1-1.1-0.1-2-0.1-2.9l-0.2-0.1c0.1-1.3-0.2-4.2 0.3-5-0.2-0.4 0-1.9 0-2.6l0.1-0.2c0.1-1 0-1.6-0.1-2.2 0.3-2.1 0-3.9 0-5.7l-0.1-1.8c0.1 0.5-0.1-0.3-0.1-0.9-0.1-0.5 0-1.5 0.1-2.1q0-0.6-0.1-1.1c0.2 1.2 0.2-0.1 0.4-0.2l-0.2-0.7c0.1-0.3 0.2 0.4 0.2-0.1-0.1-0.5-0.3-1.9-0.6-2.3q0 0.1 0 0.5 0 0 0 0 0 0 0 0c0-0.1-0.1-0.2-0.1-0.2-0.1-0.9-0.1-0.5-0.2-0.5 0.1-1-0.2-1.5-0.2-2.2 0 0.3-0.1-0.2-0.3-0.7-0.2-0.6-0.4-1.2-0.5-0.8 0-0.8-0.2-0.5-0.1-1 0.3 0.9 0.9 1.8 1.2 2.6l-0.1-0.8c0.5 0.4 0.4 1.8 0.6 2.3-0.1-0.3-0.2-1-0.2-1.1l-0.1 0.2c0.2 1.2 0.5 2.1 0.7 3 0-0.9 0.3 0.9 0.4 0.3l-0.1-0.6c0-0.3 0.2 0.3 0.3 0.6 0 2.1 0.1 5.8 0 6.6 0-0.4 0-1.2-0.1-1.6l-0.1 1c0-0.8 0.2-1.4 0.1-2.6-0.2 0.2-0.4-0.6-0.6 0.3-0.2 2.2 0.4 1.8 0.4 4.4 0.1 0.3-0.2-0.5-0.1 0.9 0.2 1.8 0.5 3.1 0.8 3-0.1-0.7-0.3-2.2 0-2.4 0.1 0.7 0.1 2 0.3 2.1-0.3 0.7-0.1-1.4-0.3-0.4 0 0.5 0.1 0.7 0.1 1-0.1-0.4-0.1 0.4-0.2 0.6 0 1.7-0.1 2.7-0.1 4.5-0.1 0.1-0.2 0.3-0.2 0.2 0 0.9 0.4 2.2 0.6 1.9 0 1-0.1 1.1-0.1 2 0.3-1.5 0 0.2 0.2 0.4 0.1 0.9-0.1 0.3-0.1 0.7 0 0.2 0.1 0.5 0.1 0.6-0.2 0.5-0.5-1.1-0.7-0.5-0.2 0.5-0.5 2.4-0.5 2.5 0.2 0.5 1.2 0.4 1.5-0.3 0.1 0.1-0.2 0.9-0.2 1.3-0.3 1.1 0.1 1.8 0 2.7l-0.1-0.7c-0.1 0.1 0 1.6 0.1 1.8-0.1 0-0.5-0.8-0.6-0.3-0.1 1.7 0.2 3.4 0.5 3.3q0-1.3-0.1-2.7c0.3-0.1 0.1 1.9 0.4 1.8q-0.2 1.3-0.5 2.5c0.1-0.3 0.2-1.3 0-0.9-0.2 1.1-0.1 0.6-0.4 1.2 0-1.2-0.4-3.5-0.7-4.3v1.3l-0.1 0.3c0 1.6 0.5 3.2 0.6 3.7-0.3 0.9-0.7 0.4-0.7 0.2-0.6 1.8 0.1 2-0.8 3.7l0.4-0.6c-0.1 0.5-0.9 1.9-0.8 1.8-0.3 0.2-0.7 0.4-0.6 0.1q-0.2 0.8-0.5 1.5c0-0.2-0.3-0.3-0.3-0.4-0.4 0.5-0.4 1.1-0.1 0.9-1 0.9-0.7 0.7-1.7 1.3-0.3 0.3 0.3 0.2 0.5 0-0.5 0.7-0.9 1.1-1.3 1.3 1-1.1-0.3-0.9-0.2-1.3q-0.8 1.5-1.8 2.8c0-0.1 0.1-0.5 0-0.6 0 0.3-0.8 0.9-1.8 1.4-1 0.6-2.3 1-3.2 1.3l0.3-0.1c0.3-0.2-1.2 0.1-1.8 0.4 0.1-0.1 0.3-0.1 0.5-0.2-1.2 0-1.4 0.8-2.6 0.7 1.1-0.1 1.3-0.3 1.2-0.4-0.9 0.3-2.9 0.4-2.5 0.7-0.5 0-1.1 0-1-0.2-0.7 0.2-1.4 0.2-2.2 0.3 0.2 0 0.3-0.1-0.2-0.1 1.1 0 2.3-0.4 2.9-0.2 0-0.2-0.4-0.3 0.1-0.6-2.3 0.3-3.5 0.6-5 1l-2-0.2-0.1 0.1-0.4-0.2c-0.2 0-0.4 0.1-0.5 0.1 0-0.1 0.1-0.1 0.2-0.1-0.3 0-0.4 0-0.5 0-0.1-0.1 0.2-0.3 0.6-0.4l0.6 0.1c0.4-0.1 0.7-0.3 0.1-0.4q-0.1 0.1-0.3 0.1c0.3-0.1 0.4-0.2 0.2-0.2l-1.5 0.1q0.3 0.1 0.7 0.2c-0.9 0.2-2.1 0.4-1.2 0.6l-1.2-0.1c-1.4 0.3-1.1 0.2-2.8 0.4-0.1-0.1 0.3-0.2 0-0.2-1.2 0.3-3-0.3-3.3-0.1-1 0.1-0.4 0.2-1 0.3 0 0 0.1-0.1-0.1-0.1l-0.8 0.2c-0.3-0.1 0.7-0.1-0.1-0.2-1.5 0.1-2.3 0.2-3.6 0.1-1.7 0 0.8 0.4-0.7 0.3-0.2-0.1-0.4-0.3-1.3-0.4-0.5 0.1-0.4 0.3-1.3 0.3l0.1-0.2c-0.8 0-1.4 0-1.4-0.2-0.6 0.1-1 0.1-1.3 0-1.2 0.2 0.8 0.6 1 0.7-1.1-0.2-1.9-0.1-2.5-0.5h1c-2.1-0.4-2.1 0.2-3.1-0.4 0.8 0.1 1.7 0.1 1.3-0.1h-1.1c-0.1 0 0.6 0 0.1-0.1-0.3 0.1-0.9 0.1-1.2 0.1q-0.9-0.1-1.8-0.2c0.2 0 0.2-0.1-0.1-0.1q-0.6-0.1-1.3-0.2c0.4 0 0.1-0.1-0.5-0.3-1.5-0.6-1.4 0.1-2.6-0.7 0.2 0.1 0.2 0.1 0.4 0.2l-0.6-0.4c-0.1 0.2-1.1-0.2-1.9-0.7-0.9-0.5-1.7-1.2-2-1-0.6-0.8 0-0.1 1.2 0.4q-0.4-0.4-0.7-0.7c0.3 0.2 0.6 0.4 1 0.7zm6.9 2.7q0.1 0.1 0.2 0.1-0.1 0-0.2-0.1zm31.3 0.5q0 0 0.1 0-0.1 0-0.1 0zm17.9-7.3q0 0 0 0 0 0 0 0zm0.3-0.4q0-0.1 0.1-0.1-0.1 0-0.1 0.1zm0.6-1.7q0 0 0 0.1 0-0.1 0-0.1zm1.5-44.5q0 0-0.1 0zm-0.6-0.6q0 0.1 0 0.1 0 0 0-0.1zm-2.5 46.2c-0.2 0.2-0.1 0.1 0 0.1q0 0 0-0.1zm0 0q0 0 0 0 0 0 0 0 0 0 0 0zm-62.5-37.1q0 0 0-0.1 0 0.1 0 0.1zm2.8-12.6q0 0 0 0 0 0 0 0zm5.4-8q0 0 0 0 0 0 0 0zm-9.4 22.8q0 0 0 0 0 0 0 0zm-0.4 12.9q0-0.1 0-0.1 0 0 0 0.1zm21.1 30.5c0.2 0.1 0.7 0 1-0.1-0.5 0-0.7-0.1-1 0.1zm22.4-0.5c0.4 0.1 0.7 0.1 0.9 0q-0.5 0-0.9 0zm24-46.4c-0.1 0.4-0.1 0.6 0 0zm0-1.4c0-0.1 0-0.1 0 0 0 0.1 0 0.4 0 0.7 0.1-0.1 0.1-0.3 0-0.7zm-65.7 5l0.1-0.3c-0.1-0.1-0.1-0.3-0.1 0.3z"/>
						<path id="&lt;Path&gt;" class="s3" d="m70.2 96.7q-0.1 0-0.1-0.1c-0.2 0.1-0.2 0.1 0.1 0.1z"/>
						<path id="&lt;Path&gt;" class="s3" d="m30.2 85.3v-0.1q0 0 0 0z"/>
						<path id="&lt;Path&gt;" class="s3" d="m97.5 68.9c0 0.3 0 0.5-0.1 0.6 0.1 0 0.1-0.1 0.1-0.6z"/>
						<path id="&lt;Path&gt;" class="s3" d="m94.5 42.1l0.3 0.7c-0.1-0.3-0.1-0.5-0.2-0.7 0 0.1 0 0.2-0.1 0z"/>
						<path id="&lt;Path&gt;" class="s3" d="m92.2 35.4c-0.1-0.1-0.2-0.2-0.3-0.3v0.1c0.3 0.3 0.6 0.6 0.3 0.2z"/>
						<path id="&lt;Path&gt;" class="s3" d="m94.9 41.2c0.1-0.1-0.1-0.6-0.4-1.1l0.1 0.1c-0.3-0.1 0 0.4 0.3 1z"/>
						<path id="&lt;Path&gt;" class="s3" d="m94.5 40l-0.2-0.5c-0.1-0.1 0 0.2 0.2 0.5z"/>
						<path id="&lt;Path&gt;" class="s3" d="m95.6 47c0.1-0.3-0.2-0.1-0.1-0.3-0.2-0.3 0.4 1.8 0.1 0.3z"/>
						<path id="&lt;Path&gt;" class="s3" d="m95.2 40.6l-0.1 0.2 0.2 0.3z"/>
						<path id="&lt;Path&gt;" class="s3" d="m96.2 45.1l-0.1-1c0 0.1-0.1 0-0.1-0.2 0.1 0.6 0.1 1.2 0.2 1.2z"/>
						<path id="&lt;Path&gt;" class="s3" d="m96 43.9c-0.1-0.3-0.1-0.6-0.2-0.7 0 0.1 0.1 0.5 0.2 0.7z"/>
						<path id="&lt;Path&gt;" class="s3" d="m95.7 41.8v0.2l0.2 0.7z"/>
						<path id="&lt;Path&gt;" class="s3" d="m96.6 55.2l0.1 1c0 0.1 0.1-0.2 0-0.6 0-0.2-0.1-0.6-0.1-0.4z"/>
						<path id="&lt;Path&gt;" class="s3" d="m97.1 52c-0.1 0.3-0.1 0.3-0.2 0.5h0.3z"/>
						<path id="&lt;Path&gt;" class="s3" d="m97.2 55c0 0.1 0.2 1.5 0.1 0.2 0-0.1-0.1-1.1-0.1-0.2z"/>
						<path id="&lt;Path&gt;" class="s3" d="m96.9 70.5v-0.2h-0.4z"/>
						<path id="&lt;Path&gt;" class="s3" d="m96.3 84.3c0.5-1.1-0.1-0.3 0.3-1.4 0-0.3-0.4 0.9-0.3 0.6-0.2 0.7-0.4 1.1 0 0.8z"/>
						<path id="&lt;Path&gt;" class="s3" d="m96.3 83.5q0-0.2 0-0.4c0 0.2 0 0.3 0 0.4z"/>
						<path id="&lt;Path&gt;" class="s3" d="m60.9 29.6l0.8 0.1-0.5-0.1z"/>
						<path id="&lt;Path&gt;" class="s3" d="m62.4 29.3l0.2 0.2 0.5-0.2c-0.2 0-0.5 0-0.7 0z"/>
						<path id="&lt;Path&gt;" class="s3" d="m52.6 97.4v-0.1c-0.1 0-0.3-0.1-0.6-0.1z"/>
						<path id="&lt;Path&gt;" class="s3" d="m41.8 95.9l0.2 0.1-0.3-0.3z"/>
						<path id="&lt;Path&gt;" class="s3" d="m33.6 91.2c0.3 0.3 0.6 0.6 0.9 0.8-0.6-0.5-0.8-1.1-0.9-0.8z"/>
					</g>
					<g id="&lt;Group&gt;">
						<path id="&lt;Path&gt;" class="s3" d="m62.9 33.8c0.3 0 0.1-0.2 0.2-0.2-0.5 0-0.2 0.2-0.2 0.2z"/>
						<path id="&lt;Path&gt;" class="s3" d="m58 34.2l0.1-0.1-0.7 0.2z"/>
						<path id="&lt;Path&gt;" class="s3" d="m53.5 34.3c0.4 0.2 1.6-0.1 2.5 0h0.1l0.3-0.2c-0.9 0.1-2.2 0.2-2.9 0.2z"/>
						<path id="&lt;Path&gt;" class="s3" d="m51.1 33.7c0.1 0.1-0.5 0.1 0.5 0q0 0-0.1 0-0.1 0-0.4 0z"/>
						<path id="&lt;Path&gt;" class="s3" d="m51.5 33.7c0.5 0-0.3-0.1 0 0z"/>
						<path id="&lt;Path&gt;" class="s3" d="m49.3 33.8l0.7-0.1c-0.2-0.1-0.7-0.1-0.5-0.1-0.7 0.1-0.5 0.1-0.2 0.2z"/>
						<path id="&lt;Path&gt;" class="s3" d="m48.7 34h0.4c-0.1 0-0.2-0.1-0.4 0z"/>
						<path id="&lt;Path&gt;" class="s3" d="m49.8 33.9q-0.4 0-0.7 0.1c0.1 0 0.1 0.1 0.3-0.1-0.1 0.1 0.1 0 0.4 0z"/>
						<path id="&lt;Path&gt;" class="s3" d="m50.2 33.9c0.3 0.1 0.8 0.1 0.1 0.2 1.2-0.1 1.1-0.3-0.1-0.2z"/>
						<path id="&lt;Path&gt;" class="s3" d="m53.3 34.6h0.5l0.4-0.1c-0.2 0.1-0.9 0-0.9 0.1z"/>
						<path id="&lt;Path&gt;" class="s3" d="m45.3 34.1c-0.1 0.1 0.2 0.2 0.3 0.2l0.5-0.1c-0.3 0-0.8 0-0.8-0.1z"/>
						<path id="&lt;Path&gt;" class="s3" d="m45.6 34.3l-0.7 0.3c0.6-0.2 0.7-0.2 0.7-0.3z"/>
						<path id="&lt;Path&gt;" class="s3" d="m48.6 34.4q0.6-0.2 1.2-0.3-0.7 0.1-1.4 0.3z"/>
						<path id="&lt;Path&gt;" class="s3" d="m42.5 35l0.4-0.3-0.6 0.5z"/>
						<path id="&lt;Path&gt;" class="s3" d="m40.8 35.8c0.2-0.2-0.5 0.1-0.2-0.1-0.5 0.3-0.8 0.6-1.1 0.9 0.3-0.3 0.7-0.5 1.3-0.8z"/>
						<path id="&lt;Path&gt;" class="s3" d="m39.1 37.2q0.2-0.3 0.4-0.6-0.2 0.3-0.4 0.6z"/>
						<path id="&lt;Path&gt;" class="s3" d="m43.7 34.9c-0.1 0-0.2-0.1-0.6 0l0.3 0.1q0.1-0.1 0.3-0.1z"/>
						<path id="&lt;Path&gt;" class="s3" d="m43.4 35q-0.4 0.1-0.6 0.2 0.1-0.1 0.6-0.2z"/>
						<path id="&lt;Path&gt;" class="s3" d="m43.7 34.9q0 0 0 0 0 0 0 0z"/>
						<path id="&lt;Path&gt;" class="s3" d="m46.8 34.4c-0.4 0.1-1.3 0.4-0.4 0.4 0.3-0.2-0.2-0.2 0.4-0.4z"/>
						<path id="&lt;Path&gt;" class="s3" d="m44.2 35l0.7-0.2c0 0-0.2-0.1 0-0.2q-0.4 0.2-0.7 0.4z"/>
						<path id="&lt;Path&gt;" class="s3" d="m43.8 35.1l0.4-0.1h-0.3z"/>
						<path id="&lt;Path&gt;" class="s3" d="m40.3 36.4c-0.3 0.3-0.6 0.5-0.9 0.8q0.6-0.4 1.1-0.8c0.1 0 0.2-0.2-0.2 0z"/>
						<path id="&lt;Path&gt;" class="s3" d="m41.8 35.6l-0.1 0.1q0.1 0 0.1-0.1z"/>
						<path id="&lt;Path&gt;" class="s3" d="m36.7 40.4l0.1-0.1z"/>
						<path id="&lt;Path&gt;" class="s3" d="m40.6 36.4c0.3-0.1 0.5-0.3 0.6-0.4q-0.3 0.2-0.7 0.4c0 0.1 0 0.1 0.1 0z"/>
						<path id="&lt;Path&gt;" class="s3" d="m38.3 38q0.2-0.1 0.5-0.3c-0.2 0.1-0.5 0.3-0.5 0.3z"/>
						<path id="&lt;Path&gt;" class="s3" d="m41.6 35.7v-0.1c-0.1 0.1-0.1 0.1 0 0.1z"/>
						<path id="&lt;Path&gt;" class="s3" d="m41.6 35.7q-0.2 0.1-0.4 0.3 0.3-0.2 0.5-0.3-0.1 0-0.1 0z"/>
						<path id="&lt;Path&gt;" class="s3" d="m37.1 41.9c-0.1-0.1 0.1-0.9 0.7-1.4 0.3-0.7-0.4-0.6-1-0.2 0 0.1 0.1 0.1-0.2 0.9 0.2-0.3 1-1.4 0.8-0.8-0.4 0.9-0.4 0.7-0.7 1.1 0.3-0.3-0.3 1.2 0.1 1.2q0.1-0.5 0.2-0.9c0.1 0 0 0.3 0.1 0.1z"/>
						<path id="&lt;Path&gt;" class="s3" d="m37.7 39.1l0.1-0.3c-0.2 0.3-0.4 0.5-0.8 0.8-0.3 0.5-0.2 0.7-0.2 0.7q0.4-0.7 0.9-1.3z"/>
						<path id="&lt;Path&gt;" class="s3" d="m38.8 37.8c0 0.3-0.5 0.9-0.1 0.7 0.7-0.7 0.4-0.6 0.7-1-1 1 0.3-0.4-0.6 0.3q0.3-0.3 0.6-0.6-0.3 0.3-0.6 0.5 0.1-0.1 0 0 0 0 0 0.1c-0.3 0.3-0.1 0 0-0.1q0 0 0 0-0.5 0.5-1 1.1c0.3-0.2 0.5-0.5 1-1z"/>
						<path id="&lt;Path&gt;" class="s3" d="m45.7 35.3q-0.1 0 0-0.1c-0.1 0.1-0.2 0.1 0 0.1z"/>
						<path id="&lt;Path&gt;" class="s3" d="m45.1 35.3c0.1 0 0.2-0.1 0.5-0.2 0.3 0 0 0.1 0.1 0.1 0.1 0 0.6-0.2 0-0.2l-0.1 0.1c-0.6 0-1.4 0-1.3 0 0.2 0.1 0.4 0.1 0.8 0.2z"/>
						<path id="&lt;Path&gt;" class="s3" d="m41.8 36.1q-0.5 0.3-1 0.7 0.3-0.1 0.6-0.2h-0.1c0.7-0.3 0.5-0.4 0.5-0.5z"/>
						<path id="&lt;Path&gt;" class="s3" d="m36.6 40.5l-0.1-0.3q-0.1 0.4-0.1 0.8z"/>
						<path id="&lt;Path&gt;" class="s3" d="m35.9 42l-0.1-0.1-0.1 0.4z"/>
						<path id="&lt;Path&gt;" class="s3" d="m79.8 88.7l0.3-0.1q-0.3 0-0.3 0.1z"/>
						<path id="&lt;Path&gt;" class="s3" d="m77.4 88.9l-0.1 0.1c0.1 0 0.2-0.1 0.1-0.1z"/>
						<path id="&lt;Path&gt;" class="s3" d="m35.1 80c-0.1 0.6-0.1 1.2 0 1.1l0.2-0.2q-0.2-0.5-0.2-0.9z"/>
						<path id="&lt;Path&gt;" class="s3" d="m56.9 90l-0.2-0.1q-0.2 0.1-0.3 0.2 0.2-0.1 0.5-0.1z"/>
						<path id="&lt;Path&gt;" class="s3" d="m57.2 89.3l0.7 0.1q-0.2-0.1-0.7-0.1z"/>
						<path id="&lt;Path&gt;" class="s3" d="m88.7 80.9v-0.4c-0.2 0.6 0 0.4 0 0.4z"/>
						<path id="&lt;Path&gt;" class="s3" d="m34.5 57.9q-0.1 0.6-0.1 1.1c0.1-0.5 0.3-1 0.1-1.1z"/>
						<path id="&lt;Path&gt;" class="s3" d="m79 90.6q0.3-0.1 0.3-0.2c-0.2 0.1-0.3 0.1-0.3 0.2z"/>
						<path id="&lt;Path&gt;" class="s3" d="m34.4 60.2q0-0.1 0.1-0.2c-0.1-0.3-0.1-0.6-0.1-1 0 0.4-0.1 0.8 0 1.2z"/>
						<path id="&lt;Path&gt;" class="s3" d="m81.4 36.6v-0.1q-0.1 0 0 0.1z"/>
						<path id="&lt;Path&gt;" class="s3" d="m67.3 34c0.2 0 0.4 0 0.6 0q-0.1 0-0.6 0z"/>
						<path id="&lt;Path&gt;" class="s3" d="m34.6 48.3c0-0.3-0.1 0 0 0z"/>
						<path id="&lt;Path&gt;" class="s3" d="m35.4 46.8q0 0.1 0 0.1 0-0.1 0-0.1z"/>
						<path id="&lt;Path&gt;" class="s3" d="m35.4 63.5c0.1-0.1 0.1-0.1 0 0z"/>
						<path id="&lt;Path&gt;" class="s3" d="m34.7 47.8q-0.1 0.2-0.1 0.4 0-0.1 0.1-0.4z"/>
						<path id="&lt;Path&gt;" class="s3" d="m34.6 47.9q0-0.2 0-0.3c0-0.1 0 0 0 0.3z"/>
						<path id="&lt;Path&gt;" class="s3" d="m34.6 48.8q0-0.3 0-0.6 0 0.1 0 0.1 0 0.1 0 0.5z"/>
						<path id="&lt;Path&gt;" class="s3" d="m90.2 58.3q0-0.1 0-0.1c0-0.3 0-0.2 0 0.1z"/>
						<path id="&lt;Path&gt;" class="s3" d="m40.7 86.4h-0.1 0.1z"/>
						<path id="&lt;Path&gt;" class="s3" d="m41.6 86.9c-0.5 0-0.7-0.2-0.9-0.5l-0.1 0.6q0.5 0 1-0.1z"/>
						<path id="&lt;Compound Path&gt;" fill-rule="evenodd" class="s3" d="m84.2 87.1c1-0.3 1.5-1.1 1.8-1.6 0.3-0.2 0 0.5 0.7-0.3 0.9-1.3-0.4-0.1 0.1-0.8q0.3-0.1 0.6-0.3c0.5-1.1 0.9-1.8 1.3-2.7q0.1-0.4 0.1-0.4c0.4-1 0.2-2.2 0.4-3 0 0.2 0.2-0.5 0.3-0.6q0-0.7-0.1-1.4c0.1 0.6 0.2 0.6 0.4 0.7 0-0.5-0.1-0.7-0.1-1 0 0.2 0.1 0.4 0.2 0.1l-0.3-1.6c0 0.1 0 0.3 0 0.4 0-0.4-0.1-1.3 0-1.8 0.1 0 0.1 0.2 0.2 0.3-0.2 0.5 0 0.7 0.1 1 0-1.1 0-0.3 0.1-0.8 0-0.8-0.2-1.1-0.3-0.9 0.1-0.9 0.1-1.2 0-2.1l0.2 0.2-0.1-0.9 0.3 0.7c0.1-1.6-0.4-0.3-0.2-2.1h0.2c-0.1-0.7-0.4-0.9-0.2-1.4-0.1-0.7-0.3 1.1-0.3-0.5 0.1-0.2 0.2-0.8 0.2-1.3 0-0.4-0.2 0.3-0.2 0.6 0-2.2 0.7-1.4 0.5-3.5-0.2 0.8-0.4-0.6-0.4 1.2-0.1-0.9 0.3-1.7 0.1-2.5l0.2 0.6c0-0.4-0.1-0.7-0.1-0.9l0.2 0.1c-0.4-1 0.1-2-0.3-2.6 0.3 0.5-0.1-0.8 0.1-1.2 0.2 0.9 0 2.5 0.3 2.6 0.1-0.4-0.1-0.7 0-1.1 0.1 0.2 0.1 0.6 0.2 0.7 0.2-1.3-0.2-2.1-0.3-2.9l0.1 1.5c-0.3-0.1-0.1-0.7-0.3-1.1 0.1-0.7-0.1-1.2 0-1.8 0 0.1 0 0.1 0 0.3 0-1.6 0.5-2 0.5-2.6 0-0.6-0.2-1.8-0.3-1.4-0.1-0.4 0.1 2.1-0.3 1.2 0.5-0.9-0.2-1.8 0.1-3.7 0.2 0.8 0.2-0.5 0.4 0.2-0.1-0.9-0.2-0.9-0.3-1.3l0.1-0.3c-0.5-1.1-0.3-0.3-0.8-2 0.3 0.6 0.1-0.7 0.3-0.3-0.1-0.5-0.3-0.9-0.5-1.2h0.1c-0.3-0.8-0.5-1.1-0.6-1.5-0.1-0.3-0.2-0.6-0.7-1.2l0.1 0.1c-0.7-0.8-1.4-1.6-2.3-2.4-0.9-0.8-1.9-1.3-2.9-1.7q0.2 0.2 0.5 0.3c-0.3-0.1-1.3-0.4-1.9-0.6 0.2 0 0.4 0 0.5 0.1 0-0.1-0.2-0.4-0.7-0.5l-0.2 0.1-0.2-0.2c-0.8-0.2 0.2 0.3-0.6 0.1-0.3-0.6-3.4-0.5-4.1-0.8-0.6 0.3 1.6 0.1 0.9 0.3-0.2 0-0.3-0.1-0.9-0.1l0.2 0.1c-2.5-0.1-3.5-0.3-5.7-0.3h0.1c-0.8-0.1-1.3 0-1.6 0.1-0.2-0.1 0.4-0.1 0.1-0.2-1.4 0.5-2.8-0.4-3.7-0.1 0.1-0.3-1.7-0.7-0.9-1h-0.6c0.2-0.2 1.8 0.1 2.1-0.2l1.9 0.3c-0.1-0.1 0.2-0.2-0.1-0.3 0.5 0 0.9 0 0.3-0.1 2.1 0.3 4.4 0.4 6.6 0.4 2.1-0.1 4.4 0 6.6 0.7 0.3 0 0.1-0.1 0-0.2 0.8 0.5 0.8 0.1 1.3 0.2q0.5 0.4 1 0.8c0.5 0.1 0.2-0.2 0.2-0.2 1.1 0.4 2.1 1.1 2.9 1.9 0.7 0.7 1.4 1.5 2 2.2 0.3 0.6-0.3 0.1 0.1 0.8-0.1-0.6 0.2-0.1 0.6 0.4 0.3 0.5 0.5 1.1 0.5 0.9 0 0.8 0.8 2.6 0.2 2.4 0.2 0.9 0.4 0.7 0.4 0.4 0.2 1.1 0.3 1.9 0.5 2.8 0 0.6 0.3 4.7-0.1 5.7 0.3-0.7 0.2 0 0.3 0.6l0.2-0.5v1.3c0 0.3 0 0.4 0 0.4 0 0.2-0.1-0.1-0.2 0.5 0 1 0.1 1 0.3 1.5v-0.1 0.6c0 0.5-0.2-1.6-0.3-0.1 0 0 0.4 0.9 0.2 1.3 0-0.8-0.2-0.7-0.2-0.4v1.1l0.3-0.4c0 3.1-0.3 6.4-0.3 9.7-0.2-0.1 0 2.3-0.4 2v-0.1c0-0.8-0.2 0.2-0.2 0.9 0.1-0.7 0.3 1.3 0.4-0.4l0.2 1.3c0.3 0.3 0.3 1.2 0.2 2.2-0.1 1.1-0.2 2.2-0.2 3.3-0.1-0.2-0.1-0.2-0.1-0.2 0.1 1.8-0.9 3.9-1 4.3l-0.2 0.1c-0.3 1.6-0.3 1.8-1.5 3.3 0 0 0.1-0.2-0.1 0-0.2 0.4-0.4 0.9-1.3 1.8v-0.1q-0.8 0.7-1.6 1.3c-0.2-0.3-0.8 0.3-1.7 0.7-0.8 0.5-1.7 0.9-2.1 0.6-0.3 0.3-1.7 0.7-2.4 0.8q0 0-0.1 0c-0.8 0.4-2.2 0.1-3 0.1-0.6 0.1-0.3 0.2-0.1 0.3-1-0.2-2.9 0.3-3.3 0.2-0.7 0-0.3-0.2-0.5-0.3-1.1 0 0.2 0.5-1.3 0.3 0.2 0 0.5-0.1 0.4-0.1-0.6 0-1.7-0.7-2.3-0.6l0.4 0.1c-1 0.2-2.5-0.4-2.7 0l0.1 0.2c-1.8-0.2-0.8 0.1-2.6-0.1v-0.1c-0.8 0.1-1.3-0.1-1.7 0.2h0.3c-1 0-1.1 0-2.1 0-0.1 0-0.6 0-0.8 0 0 0.2-2.4 0-2.8 0 0.8 0 0.4-0.1 0.2-0.2-0.5 0.2-0.8 0.2-1.5 0-0.1 0.3-0.2 0.7-1.6 0.7 0.2-0.1 0.6-0.1 0.4-0.2-0.1 0-0.4 0-0.5 0.1-0.1-0.1 0.3-0.2 0.1-0.3-0.9 0.3-1.5 0-2.8 0.1 0.4-0.1 0.1-0.1-0.1-0.2-0.1 0.3-1.7-0.4-1.2 0.1-1.3-0.1-2.9-0.3-4.4-0.6-1.4-0.2-2.6-0.7-3-1-0.2-0.2-0.9-0.3-1.4-0.5l0.2-0.2c-1.3-0.4-1-0.3-2.3-1.1 0.6 0.3 0.4 0 0.1-0.5q-0.5-0.2-1-0.5l0.1-0.3c-0.4-0.2-0.7-0.6-0.9-1-0.5-0.2-1.3-1.7-1.4-1.9 0.1-0.5-0.6-1.1-0.4-1.6q-0.1-0.2-0.3-0.5c0 0.3-0.2 0.4-0.2 0q0-0.1 0-0.1l0.1-0.2c-0.1-0.4-0.3-0.9-0.3-1.1q0 0.2 0 0.4 0-0.3 0-0.5 0-0.1 0-0.2 0 0.1 0 0.1c0-0.2 0-0.5-0.2-0.9 0.1-0.7-0.1-1.5-0.2-2.3-0.1-0.8-0.2-1.7 0-2.5 0 0.3 0 0.6 0 0.7 0-1.3 0.2-2.6 0.1-3.5l-0.2 0.1c-0.1-1-0.2-1.7-0.2-2.5h-0.1c0-1.1-0.3-3.6 0-4.3-0.1-0.2 0.1-1.5 0-2.2l0.2-0.1c0-0.9 0-1.4 0-1.9 0.3-1.7 0-3.3 0-4.7l0.1-0.1-0.1-1.5c0.1 0.4-0.1-0.3 0-0.7-0.1-0.5-0.1-1.3 0-1.8l0.1-1c0.1 1.1 0.2-0.1 0.4-0.1l-0.2-0.6c0.1-0.3 0.2 0.4 0.2-0.1-0.1-0.4 0-1.6-0.2-2q0 0.1-0.1 0.4 0 0 0 0 0 0 0 0c0-0.1-0.1-0.2-0.1-0.2 0.1-0.8 0-0.5 0-0.5 0.3-0.8 0.2-1.3 0.6-1.9-0.2 0.2-0.1-0.2 0-0.7 0.1-0.6 0.3-1.2 0.1-1 0.4-0.5 0.1-0.4 0.5-0.7-0.4 0.8-0.4 1.8-0.4 2.6l0.3-0.7c0.2 0.5-0.4 1.6-0.3 2-0.1-0.2 0.1-0.8 0.1-0.9l-0.2 0.2c-0.3 1-0.1 1.8 0 2.6 0.1-0.7 0.1 0.8 0.3 0.3q-0.1-0.3-0.1-0.5c0.1-0.3 0.2 0.3 0.2 0.6-0.1 1.7 0 4.8-0.2 5.4 0-0.3 0-1-0.1-1.3l-0.1 0.8c0-0.6 0.2-1.1 0.2-2.1-0.2 0.1-0.4-0.6-0.6 0.2-0.3 1.8 0.4 1.5 0.3 3.7 0 0.2-0.3-0.5-0.2 0.7 0.1 1.5 0.5 2.6 0.8 2.6-0.1-0.6-0.3-1.9 0-2.1 0.1 0.7 0.1 1.7 0.2 1.8-0.2 0.6 0-1.2-0.3-0.3 0 0.4 0.1 0.6 0.2 0.8-0.1-0.3-0.2 0.4-0.3 0.5 0 1.4-0.2 2.3-0.2 3.8 0 0.1-0.1 0.2-0.1 0.2 0 0.7 0.5 1.8 0.6 1.5 0.1 0.9-0.1 0.9 0 1.7 0.2-1.2 0 0.2 0.2 0.3 0.1 0.8-0.1 0.3-0.1 0.6 0 0.2 0.1 0.5 0.2 0.5-0.2 0.5-0.6-0.9-0.8-0.4-0.1 0.4-0.4 2.1-0.4 2.2 0.2 0.3 1.1 0.2 1.4-0.3 0.2 0-0.1 0.7-0.1 1-0.3 1 0.2 1.5 0.1 2.3l-0.2-0.6c0 0.1 0.1 1.3 0.2 1.5-0.1 0-0.5-0.6-0.6-0.2 0 1.4 0.5 2.7 0.8 2.6-0.2-0.7-0.2-1.4-0.4-2.2 0.3 0 0.3 1.6 0.5 1.5q0 1 0.1 2c0-0.3-0.2-1-0.3-0.7 0.1 0.8 0 0.4 0 1-0.4-0.9-1.2-2.7-1.5-3.4l0.2 1.1-0.2 0.2c0.3 1.4 1.3 2.6 1.6 2.9 0 0.7-0.5 0.5-0.6 0.4 0.3 1.5 0.9 1.3 1.3 2.7l-0.1-0.5c0.2 0.3 0.6 1.5 0.6 1.3 0 0.3-0.1 0.7-0.3 0.5q0.5 0.5 1 0.9c-0.2-0.1-0.4 0.2-0.5 0.1 0.3 0.5 0.8 0.5 0.7 0.2 0.4 1 0.4 0.7 0.8 1.5 0.2 0.2 0.2-0.3 0.1-0.5 0.5 0.4 0.8 0.7 1 1-0.9-0.6-0.8 0.4-1.1 0.5q1.3 0.5 2.7 0.5c-0.1 0.1-0.5 0.3-0.5 0.3 0.2-0.1 0.9 0.2 1.7 0.5 0.9 0.3 1.9 0.5 2.6 0.7l-0.2-0.1c-0.2 0.1 0.4 0.3 1 0.4 0.9 0.3 1.2-0.4 2.2 0-0.9-0.1-1.1 0-1.1 0.1 0.8 0 2.4 0.2 2.1-0.2 0.5 0.1 0.9 0 0.8 0.2l1.8-0.2c-0.1 0-0.2 0.1 0.3 0.2-1-0.1-2 0.3-2.5 0 0 0.2 0.3 0.4-0.2 0.6 2-0.1 3.1-0.5 4.3-0.8l1.7 0.2 0.1-0.1 0.3 0.3c0.2-0.1 0.3-0.1 0.4-0.1q0 0.1-0.2 0.1 0.3 0 0.5 0c0 0.1-0.3 0.3-0.6 0.4q-0.2-0.1-0.5-0.2c-0.3 0.2-0.5 0.3-0.1 0.4q0.1 0 0.3 0c-0.2 0.1-0.4 0.1-0.2 0.2l1.3-0.1q-0.2-0.1-0.6-0.2c0.8-0.2 1.7-0.4 1-0.6l1 0.2c1.2-0.3 0.9-0.2 2.4-0.4 0 0.1-0.3 0.2-0.1 0.2 1.1-0.3 2.5 0.4 2.8 0.1 0.8-0.1 0.3-0.2 0.9-0.3-0.1 0-0.1 0.1 0 0.1l0.7-0.2c0.2 0.1-0.6 0.1 0.1 0.2 1.2-0.2 1.9-0.3 2.9-0.2 1.5-0.1-0.6-0.4 0.6-0.4 0.2 0.2 0.4 0.4 1.1 0.4 0.4-0.1 0.4-0.2 1.1-0.3l-0.1 0.2c0.7 0 1.2 0 1.2 0.2 0.5-0.2 0.9-0.1 1.1-0.1 1-0.2-0.7-0.5-0.9-0.6 0.9 0.2 1.6 0.1 2.1 0.3l-0.8 0.1c1.8 0.3 1.7-0.4 2.5 0.2-0.6 0-1.3 0.1-1 0.2l0.9-0.1c0.1 0-0.5 0-0.1 0.1 0.3 0 0.8-0.2 1-0.3q0.7 0 1.4-0.1c-0.2 0-0.2 0.1 0.1 0q0.5-0.1 1-0.2c-0.3 0.1 0 0.1 0.4 0.1 1.3-0.2 0.9-0.8 1.9-0.9-0.1 0.1-0.2 0.1-0.3 0.2l0.5-0.1c0-0.3 0.7-0.5 1.3-0.9 0.6-0.3 1.2-0.7 1.1-0.9 0.6-0.3 0.1 0.1-0.5 0.7q0.4-0.1 0.7-0.3c-0.2 0.2-0.5 0.3-0.7 0.5zm-5.4 1.7q0 0-0.1 0.1 0-0.1 0.1-0.1zm-25.9 0.5q0 0 0 0 0 0 0 0zm-6.1-0.1q0 0 0 0 0 0 0 0 0 0 0 0zm0 0q0.2 0 0.4 0c-0.1 0-0.2 0-0.4 0zm-8.1-4.8q0 0 0 0 0 0 0 0zm-0.2-0.3q0 0 0 0 0 0 0 0zm-1-0.9q0 0 0 0 0 0 0 0zm-1.9-37.4q0 0-0.1 0zm-0.3-0.7q0 0 0 0.1 0 0 0-0.1zm2.4 39.9c0.1 0.1 0.1 0 0.1 0q-0.1 0-0.1 0zm0 0q0 0 0 0 0 0 0 0 0 0 0 0zm53.4-31.9q0 0 0 0 0 0 0 0zm-1-11.4q0 0 0 0.1 0-0.1 0-0.1zm-6.6-4.4q0 0-0.1-0.1 0.1 0.1 0.1 0.1zm6.5 17.7q0 0 0 0 0 0 0 0zm-0.3 10.7q0 0 0-0.1 0 0.1 0 0.1zm-0.2 10.2q0 0.1 0 0.1 0 0 0-0.1zm-14.9 13.1c-0.2-0.1-0.6 0.1-0.9 0.1 0.4 0.1 0.7 0.2 0.9-0.1zm-18.7 0.6c-0.3 0-0.6-0.1-0.7 0q0.4 0.1 0.7 0zm-21.2-37.7c0 0.4 0 0.6 0 0zm0.1-1.1c0-0.1 0-0.1 0 0 0 0 0 0.3 0 0.6 0-0.1 0.1-0.3 0-0.6zm56.7 4.2v-0.2c0-0.2-0.1-0.3 0 0.2z"/>
						<path id="&lt;Path&gt;" class="s3" d="m57.2 89.4q0.1 0 0.1 0.1c0.1-0.1 0.1-0.1-0.1-0.1z"/>
						<path id="&lt;Path&gt;" class="s3" d="m88.8 81q0-0.1-0.1-0.1z"/>
						<path id="&lt;Path&gt;" class="s3" d="m36.2 67.9q0 0.3 0 0.4c0 0 0-0.1 0-0.4z"/>
						<path id="&lt;Path&gt;" class="s3" d="m34.9 44.8l-0.1 0.8c0.1-0.4 0.1-0.5 0.2-0.7-0.1 0-0.1 0.1-0.1-0.1z"/>
						<path id="&lt;Path&gt;" class="s3" d="m38.5 39.5c0-0.1 0.1-0.2 0.2-0.3h-0.1c-0.3 0.4-0.4 0.6-0.1 0.3z"/>
						<path id="&lt;Path&gt;" class="s3" d="m35.7 44.3c0.1 0 0.2-0.5 0.3-1v0.1c-0.2-0.2-0.3 0.3-0.3 0.9z"/>
						<path id="&lt;Path&gt;" class="s3" d="m36 43.2q0.1-0.2 0.2-0.4c-0.1-0.1-0.1 0.1-0.2 0.4z"/>
						<path id="&lt;Path&gt;" class="s3" d="m34.7 49.4c0-0.2-0.2-0.2-0.2-0.3-0.2-0.3 0.2 1.6 0.2 0.3z"/>
						<path id="&lt;Path&gt;" class="s3" d="m36.3 44l-0.3 0.1 0.1 0.3z"/>
						<path id="&lt;Path&gt;" class="s3" d="m35.5 47.8l0.1-0.7c0 0 0-0.1 0-0.3-0.1 0.5-0.2 1.1-0.1 1z"/>
						<path id="&lt;Path&gt;" class="s3" d="m35.6 46.8c0-0.2 0-0.5 0-0.6 0 0.1 0 0.4 0 0.6z"/>
						<path id="&lt;Path&gt;" class="s3" d="m36.1 45.1l-0.1 0.2-0.1 0.5z"/>
						<path id="&lt;Path&gt;" class="s3" d="m35.3 56.3l0.1 0.9c0 0.1 0.1-0.2 0-0.5 0-0.2 0-0.5-0.1-0.4z"/>
						<path id="&lt;Path&gt;" class="s3" d="m35.9 53.7c-0.1 0.3-0.1 0.3-0.2 0.4h0.3z"/>
						<path id="&lt;Path&gt;" class="s3" d="m35.9 56.2c0.1 0.1 0.2 1.3 0.2 0.2-0.1-0.1-0.1-0.9-0.2-0.2z"/>
						<path id="&lt;Path&gt;" class="s3" d="m35.6 69.2v-0.2h-0.4z"/>
						<path id="&lt;Path&gt;" class="s3" d="m37.2 80.3c-0.1-0.9-0.3-0.1-0.3-1-0.2-0.2 0 0.7-0.1 0.5 0.2 0.5 0.2 0.8 0.4 0.5z"/>
						<path id="&lt;Path&gt;" class="s3" d="m36.8 79.8q-0.1-0.1-0.1-0.3 0 0.2 0.1 0.3z"/>
						<path id="&lt;Path&gt;" class="s3" d="m64.9 33.8l-0.7-0.1 0.5 0.1z"/>
						<path id="&lt;Path&gt;" class="s3" d="m63.6 34.1l-0.1-0.3-0.4 0.2c0.1 0 0.4 0 0.5 0.1z"/>
						<path id="&lt;Path&gt;" class="s3" d="m71.8 88.6v0.1c0.1 0 0.2 0 0.5 0z"/>
						<path id="&lt;Path&gt;" class="s3" d="m80.5 88.3h-0.2l0.3 0.2z"/>
						<path id="&lt;Path&gt;" class="s3" d="m86.1 84.9c-0.2 0.2-0.4 0.5-0.6 0.7 0.4-0.5 0.9-0.5 0.6-0.7z"/>
					</g>
				</g>
			</g>
			<g id="&lt;Group&gt;">
				<path id="&lt;Compound Path&gt;" fill-rule="evenodd" class="s1" d="m80.4 62.4c0 9.6-7.7 17.3-17.3 17.3-9.6 0-17.4-7.7-17.4-17.3 0-9.6 7.8-17.3 17.4-17.3 9.6 0 17.3 7.7 17.3 17.3zm-6.1 0c0-6.2-5-11.3-11.2-11.3-6.2 0-11.3 5.1-11.3 11.3 0 6.2 5.1 11.3 11.3 11.3 6.2 0 11.2-5.1 11.2-11.3z"/>
				<g id="&lt;Group&gt;">
					<path id="&lt;Compound Path&gt;" fill-rule="evenodd" class="s2" d="m80.4 62.4c0 9.6-7.7 17.3-17.3 17.3-9.6 0-17.4-7.7-17.4-17.3 0-9.6 7.8-17.3 17.4-17.3 9.6 0 17.3 7.7 17.3 17.3zm-6.1 0c0-6.2-5-11.3-11.2-11.3-6.2 0-11.3 5.1-11.3 11.3 0 6.2 5.1 11.3 11.3 11.3 6.2 0 11.2-5.1 11.2-11.3z"/>
					<g id="&lt;Group&gt;">
						<path id="&lt;Path&gt;" class="s3" d="m63.2 74.6c-0.1 0-0.1 0.1-0.1 0.2 0.2-0.1 0.1-0.2 0.1-0.2z"/>
						<path id="&lt;Path&gt;" class="s3" d="m65 74.1l0.2-0.2z"/>
						<path id="&lt;Path&gt;" class="s3" d="m66.6 73.7c-0.2-0.2-0.5 0.2-0.9 0.2v-0.1l-0.1 0.3c0.3-0.2 0.8-0.4 1-0.4z"/>
						<path id="&lt;Path&gt;" class="s3" d="m67.7 73.9c-0.1 0 0.2-0.1-0.2 0.1q0 0 0 0 0.1 0 0.2-0.1z"/>
						<path id="&lt;Path&gt;" class="s3" d="m67.5 74c-0.1 0.1 0.2 0 0 0z"/>
						<path id="&lt;Path&gt;" class="s3" d="m68.3 73.6l-0.2 0.2c0.1 0 0.3 0 0.2 0 0.3-0.1 0.2-0.2 0-0.2z"/>
						<path id="&lt;Path&gt;" class="s3" d="m68.4 73.3l-0.1 0.1c0.1 0 0.1 0 0.1-0.1z"/>
						<path id="&lt;Path&gt;" class="s3" d="m68.1 73.6l0.2-0.2c0 0-0.1-0.1-0.1 0.1 0-0.1 0 0-0.1 0.1z"/>
						<path id="&lt;Path&gt;" class="s3" d="m68 73.6c-0.2 0-0.4 0.1-0.2-0.1-0.4 0.2-0.2 0.4 0.2 0.1z"/>
						<path id="&lt;Path&gt;" class="s3" d="m66.6 73.4q-0.1 0-0.2 0l-0.1 0.1c0.1-0.1 0.4 0 0.3-0.1z"/>
						<path id="&lt;Path&gt;" class="s3" d="m69.7 73c0-0.1-0.1-0.1-0.2-0.1l-0.1 0.1c0.1 0 0.3-0.1 0.3 0z"/>
						<path id="&lt;Path&gt;" class="s3" d="m69.5 72.9l0.2-0.3c-0.2 0.1-0.2 0.2-0.2 0.3z"/>
						<path id="&lt;Path&gt;" class="s3" d="m68.3 73l-0.3 0.4 0.4-0.4z"/>
						<path id="&lt;Path&gt;" class="s3" d="m70.6 72.4l-0.1 0.2 0.1-0.3z"/>
						<path id="&lt;Path&gt;" class="s3" d="m71.1 72c0 0.1 0.3 0 0.2 0.1 0.1-0.1 0.2-0.3 0.3-0.4q-0.2 0.2-0.5 0.3z"/>
						<path id="&lt;Path&gt;" class="s3" d="m71.6 71.4q0 0.1 0 0.3 0-0.2 0-0.3z"/>
						<path id="&lt;Path&gt;" class="s3" d="m70.1 72.4c0 0 0.1 0.1 0.2 0l-0.1-0.1q-0.1 0.1-0.1 0.1z"/>
						<path id="&lt;Path&gt;" class="s3" d="m70.2 72.3q0.1-0.1 0.2-0.1-0.1 0-0.2 0.1z"/>
						<path id="&lt;Path&gt;" class="s3" d="m70.1 72.4q0 0 0 0z"/>
						<path id="&lt;Path&gt;" class="s3" d="m69 72.8c0.1-0.1 0.3-0.4 0-0.3-0.1 0.1 0.1 0.1 0 0.3z"/>
						<path id="&lt;Path&gt;" class="s3" d="m69.8 72.3q-0.1 0.1-0.2 0.1c0 0.1 0.1 0.1 0 0.2q0.1-0.1 0.2-0.3z"/>
						<path id="&lt;Path&gt;" class="s3" d="m69.9 72.2l-0.1 0.1h0.1z"/>
						<path id="&lt;Path&gt;" class="s3" d="m71.2 71.6c0-0.1 0.1-0.2 0.2-0.3q-0.2 0.1-0.4 0.3c0 0 0.1 0.1 0.2 0z"/>
						<path id="&lt;Path&gt;" class="s3" d="m70.7 72v-0.1q0 0 0 0.1z"/>
						<path id="&lt;Path&gt;" class="s3" d="m72.4 70.2z"/>
						<path id="&lt;Path&gt;" class="s3" d="m71 71.6c-0.1 0-0.2 0.1-0.2 0.2q0.1-0.1 0.2-0.2 0-0.1 0 0z"/>
						<path id="&lt;Path&gt;" class="s3" d="m71.9 71q-0.1 0.1-0.2 0.1c0.1 0 0.2 0 0.2-0.1z"/>
						<path id="&lt;Path&gt;" class="s3" d="m70.8 72q0 0 0 0 0 0 0 0z"/>
						<path id="&lt;Path&gt;" class="s3" d="m70.8 72q0-0.1 0-0.2 0 0.1-0.1 0.1 0 0 0.1 0.1z"/>
						<path id="&lt;Path&gt;" class="s3" d="m71.9 69.2c0.1 0.1 0 0.4-0.3 0.5-0.1 0.3 0.4 0.5 0.8 0.5 0-0.1-0.1-0.1 0-0.4-0.1 0.1-0.5 0.4-0.5 0.1 0.2-0.3 0.2-0.2 0.4-0.3-0.2 0 0.1-0.5-0.2-0.6l-0.1 0.3c0 0 0-0.2-0.1-0.1z"/>
						<path id="&lt;Path&gt;" class="s3" d="m72 70.6v0.1c0.1-0.1 0.2-0.1 0.4-0.2 0.1-0.2 0.1-0.2 0-0.3l-0.4 0.4z"/>
						<path id="&lt;Path&gt;" class="s3" d="m71.6 71c0-0.1 0.1-0.4-0.1-0.4-0.3 0.3-0.1 0.3-0.2 0.5 0.4-0.4 0 0.1 0.3-0.1q-0.1 0.2-0.2 0.3 0.1-0.1 0.3-0.2-0.1 0-0.1 0 0 0 0 0c0.2-0.1 0.1 0 0 0h0.1q0.1-0.2 0.3-0.4c-0.1 0-0.2 0.2-0.4 0.3z"/>
						<path id="&lt;Path&gt;" class="s3" d="m69 72q0.1 0 0.1 0 0 0-0.1 0z"/>
						<path id="&lt;Path&gt;" class="s3" d="m69.3 72c-0.1 0-0.1 0.1-0.2 0.2-0.1 0 0-0.1 0-0.2-0.1 0.1-0.2 0.3 0 0.2h0.1c0.2-0.1 0.5 0 0.5 0-0.1-0.1-0.2-0.2-0.4-0.2z"/>
						<path id="&lt;Path&gt;" class="s3" d="m70.4 71.6q0.2-0.2 0.3-0.4h-0.2v0.1c-0.2 0.1-0.1 0.2-0.1 0.3z"/>
						<path id="&lt;Path&gt;" class="s3" d="m72.5 70.2l0.1 0.2q0-0.2 0-0.4z"/>
						<path id="&lt;Path&gt;" class="s3" d="m72.9 69.7l0.1 0.1v-0.2z"/>
						<path id="&lt;Path&gt;" class="s3" d="m57.8 53.5v0.1q0 0 0-0.1z"/>
						<path id="&lt;Path&gt;" class="s3" d="m58.6 53.1h-0.1q0 0 0.1 0z"/>
						<path id="&lt;Path&gt;" class="s3" d="m73.5 56c0-0.3 0.1-0.6-0.1-0.5l-0.1 0.2q0.2 0.1 0.2 0.3z"/>
						<path id="&lt;Path&gt;" class="s3" d="m65.3 51.4v0.1q0.1-0.1 0.2-0.2-0.1 0.1-0.2 0.1z"/>
						<path id="&lt;Path&gt;" class="s3" d="m65 52.1l-0.2-0.2q0.1 0.1 0.2 0.2z"/>
						<path id="&lt;Path&gt;" class="s3" d="m54.7 56.7l0.1 0.2c0.1-0.2 0-0.2-0.1-0.2z"/>
						<path id="&lt;Path&gt;" class="s3" d="m75.1 64.1q0.2-0.2 0.2-0.4c-0.1 0.2-0.3 0.4-0.2 0.4z"/>
						<path id="&lt;Path&gt;" class="s3" d="m57.2 51.8q0 0.1 0 0.1 0.1-0.1 0-0.1z"/>
						<path id="&lt;Path&gt;" class="s3" d="m75.3 63.2q0 0.1 0 0.1c0 0.1 0 0.3 0 0.4 0.1-0.1 0.1-0.3 0-0.5z"/>
						<path id="&lt;Path&gt;" class="s3" d="m57.3 70.9q0 0.1 0.1 0.1 0 0-0.1-0.1z"/>
						<path id="&lt;Path&gt;" class="s3" d="m61.5 74.3q-0.1 0-0.2 0 0 0 0.2 0z"/>
						<path id="&lt;Path&gt;" class="s3" d="m74.2 67.7c-0.1 0.1 0 0 0 0z"/>
						<path id="&lt;Path&gt;" class="s3" d="m73.3 67.9q0 0 0 0 0 0 0 0z"/>
						<path id="&lt;Path&gt;" class="s3" d="m74.3 62q0 0 0 0z"/>
						<path id="&lt;Path&gt;" class="s3" d="m74 67.8q0.1 0 0.2-0.1-0.1 0-0.2 0.1z"/>
						<path id="&lt;Path&gt;" class="s3" d="m74.1 67.9q0 0 0 0c0 0.1 0 0.1 0 0z"/>
						<path id="&lt;Path&gt;" class="s3" d="m74.3 67.5q-0.1 0.1-0.1 0.2 0 0 0 0 0 0 0.1-0.2z"/>
						<path id="&lt;Path&gt;" class="s3" d="m52.4 63.8q0 0 0 0c0.1 0.1 0.1 0.1 0 0z"/>
						<path id="&lt;Path&gt;" class="s3" d="m70.2 54.7z"/>
						<path id="&lt;Path&gt;" class="s3" d="m69.8 54.6c0.3-0.1 0.4 0 0.4 0.1l0.2-0.4z"/>
						<path id="&lt;Compound Path&gt;" fill-rule="evenodd" class="s3" d="m56.5 54.5c-0.4 0-0.5 0.5-0.5 0.7-0.2 0-0.2-0.4-0.4 0-0.3 0.5 0.3 0.2 0.1 0.5l-0.3-0.1c-0.1 0.5-0.4 0.6-0.7 0.9q0 0.1 0 0.1c-0.3 0.3-0.2 0.8-0.4 1 0-0.1-0.2 0.1-0.3 0.1l-0.1 0.5c0.1-0.2-0.1-0.3-0.2-0.4-0.1 0.2 0 0.3 0 0.4-0.1-0.1-0.1-0.2-0.2-0.2q0 0.3 0 0.6 0.1 0 0.1-0.1c0 0.1 0 0.4-0.2 0.6 0-0.1-0.1-0.1-0.1-0.2 0.2-0.1 0.1-0.2 0-0.3-0.1 0.3-0.1 0-0.2 0.2-0.1 0.2 0 0.4 0.2 0.4-0.2 0.2-0.2 0.3-0.1 0.7l-0.2-0.2v0.3l-0.2-0.3c-0.3 0.5 0.3 0.2 0 0.8l-0.1-0.1c0 0.3 0.3 0.4 0.1 0.6 0 0.2 0.3-0.4 0.2 0.1-0.1 0.1-0.2 0.3-0.2 0.4 0.1 0.2 0.2 0 0.2-0.2 0 0.8-0.7 0.5-0.5 1.2 0.2-0.3 0.4 0.2 0.4-0.4 0.1 0.3-0.3 0.5 0 0.8l-0.3-0.2c0 0.2 0.1 0.3 0.1 0.3h-0.2c0.4 0.3-0.1 0.7 0.4 0.8-0.4-0.1 0.1 0.3-0.1 0.4-0.2-0.2-0.1-0.8-0.4-0.8-0.1 0.2 0.1 0.3 0 0.4 0-0.1-0.1-0.2-0.2-0.2-0.1 0.5 0.3 0.7 0.4 0.9l-0.1-0.5c0.3 0 0.1 0.3 0.3 0.3-0.1 0.3 0.2 0.4 0.1 0.6 0 0 0 0 0 0 0.1 0.5-0.3 0.7-0.3 0.9 0.1 0.3 0.4 0.6 0.4 0.4 0.2 0.1-0.3-0.6 0.2-0.5-0.3 0.5 0.3 0.5 0.3 1.2-0.2-0.2-0.1 0.3-0.3 0.1 0.1 0.3 0.2 0.3 0.4 0.3l-0.1 0.2c0.5 0.2 0.3-0.1 0.7 0.4-0.2-0.1 0 0.3-0.2 0.2q0.2 0.3 0.4 0.3h-0.1c0.5 0.5 0.2 0.6 0.7 0.9v-0.1c0.7 0.4 1.2 1.2 1.9 1.5l-0.1-0.2c0 0.1 0.4 0.2 0.5 0.4 0 0-0.1 0-0.1 0-0.1 0-0.1 0.2 0.1 0.3h0.1v0.1c0.2 0.1 0-0.2 0.3-0.1-0.1 0.5 1 0.6 1.1 1.1 0.3-0.2-0.5-0.3-0.2-0.5 0.1 0.1 0.1 0.2 0.2 0.3v-0.2c0.8 0.4 1 0.7 1.8 0.8l-0.1 0.1c0.3 0.1 0.4 0.1 0.6 0 0 0-0.2 0.1-0.1 0.2 0.6-0.5 0.9 0.5 1.3 0.1-0.1 0.4 0.5 0.8 0.2 1.1l0.3-0.1c-0.1 0.3-0.7 0-0.9 0.2q-0.3-0.1-0.6-0.3c0 0.1-0.1 0.2 0 0.3-0.2-0.1-0.4-0.1-0.2 0.1-0.7-0.4-1.5-0.7-2.3-0.9-0.8-0.3-1.6-0.6-2.2-1.2-0.1-0.1-0.1 0.1 0 0.1-0.2-0.3-0.4 0-0.5-0.1l-0.2-0.5c-0.2-0.1-0.1 0.1-0.2 0.1-0.7-0.4-1-1.2-1.6-1.6-0.1-0.2 0.2-0.1 0.1-0.4-0.1 0.5-0.6-0.4-0.7-0.2 0.1-0.4-0.5-0.8 0-1-0.2-0.3-0.4-0.1-0.4 0-0.1-0.4-0.3-0.6-0.6-0.9 0-0.1-0.2-0.5-0.4-0.9-0.1-0.4-0.3-0.9-0.2-1.1-0.1 0.3-0.1 0-0.2-0.2l-0.2 0.3-0.1-0.5q-0.1-0.2 0-0.2c0 0 0.1 0 0.1-0.2-0.1-0.3-0.2-0.3-0.3-0.5l-0.1 0.1v-0.3c0-0.2 0.3 0.6 0.3 0 0 0-0.4-0.3-0.2-0.5 0 0.3 0.1 0.3 0.2 0.2q0-0.2-0.1-0.4l-0.2 0.1c-0.1-1.2 0.1-2.4 0.3-3.6 0.3 0 0.3-0.9 0.6-0.7l-0.1 0.1c0 0.3 0.3 0 0.4-0.3-0.2 0.2-0.3-0.5-0.5 0.1q0-0.3 0-0.6c-0.6-0.5 0.5-1.2 0.6-1.9q0 0.1 0.1 0.1c0.1-0.7 0.9-1.2 0.9-1.4l0.2 0.1c0.1-0.6 0.1-0.7 0.7-1.2 0 0.1 0 0.2 0.1 0.1 0-0.2 0-0.4 0.3-0.7h0.1l0.5-0.5c0.3 0.5 0.7-1 1.3-0.6 0-0.3 0.4-0.6 0.6-0.8q0 0.1 0.1 0.1c0.1-0.5 0.8-0.3 1-0.5 0.2-0.1 0-0.2-0.1-0.2 0.5 0 1-0.7 1.1-0.6 0.3-0.1 0.2 0.1 0.3 0.2 0.4-0.1-0.2-0.5 0.5-0.4-0.1 0.1-0.2 0.1-0.2 0.1 0.3 0 0.8 0.6 1 0.4l-0.2-0.1c0.4-0.2 1 0.4 1 0v-0.2c0.7 0.2 0.3-0.1 1 0.1 0.3-0.1 0.4 0.2 0.6-0.1l-0.1-0.1c0.3 0 0.4 0 0.7 0.1 0.1 0 0.3-0.1 0.3 0 0.1-0.3 0.9 0 1.1 0-0.3 0-0.2 0.2-0.1 0.3 0.2-0.2 0.3-0.2 0.5 0 0.1-0.3 0.3-0.6 0.8-0.5-0.1 0-0.2 0-0.2 0.1 0 0.1 0.2 0 0.2 0 0 0.1-0.1 0.1-0.1 0.2 0.4-0.2 0.5 0.2 1 0.3-0.1 0 0 0.1 0 0.2 0.2-0.3 0.5 0.5 0.5 0.1 0.8 0.6 2.1 1.1 2.2 1.6 0 0.2 0.4 0.2 0.5 0.3l-0.1 0.1c0.5 0.1 0.3 0.1 0.9 0.3-0.3 0-0.3 0.1-0.2 0.3q0.2 0.1 0.5 0.1l-0.1 0.2c0.1 0.1 0.2 0.2 0.3 0.3 0.3 0 0.7 0.4 0.8 0.4-0.1 0.4 0.4 0.4 0.2 0.6q0.1 0.1 0.2 0.1c0.1-0.1 0.2-0.2 0.2-0.1q0 0.1 0 0.1l-0.1 0.1q0.2 0.2 0.3 0.4 0-0.1 0-0.2 0 0.1 0 0.2 0 0 0 0 0 0 0 0c0 0.1 0 0.2 0.2 0.3 0 0.6 0.9 0.9 0.7 1.6 0-0.1 0-0.2-0.1-0.2 0.2 0.5 0.2 1 0.3 1.3l0.2-0.1c0.2 0.4 0.3 0.6 0.4 0.9h0.2c0 0.5 0.4 1.4 0 1.7 0.1 0.1 0 0.6 0 0.8l-0.1 0.1c-0.1 0.3 0 0.5 0 0.7-0.4 0.6-0.2 1.3-0.3 1.8h-0.1v0.6c-0.1-0.2 0.1 0.2 0 0.3 0 0.2-0.1 0.5-0.3 0.7l-0.2 0.3c0.1-0.4-0.2 0-0.3-0.1q0 0.2 0 0.3c-0.1 0-0.1-0.2-0.2-0.1 0.1 0.2-0.1 0.6-0.1 0.8q0.1 0 0.2 0 0-0.1 0 0v-0.1 0.1q0 0 0.1 0c-0.2 0.3-0.1 0.2 0 0.3-0.4 0.1-0.4 0.4-0.7 0.4 0.4 0-0.4 0.7-0.1 0.7-0.3 0-0.1 0.1-0.4 0.1 0.3-0.2 0.3-0.7 0.3-1l-0.3 0.2c-0.1-0.3 0.4-0.5 0.4-0.7 0 0.2-0.1 0.3-0.2 0.3l0.2 0.1c0.3-0.3 0.3-0.7 0.3-1-0.2 0.2 0-0.3-0.2-0.2l-0.1 0.2c-0.1 0-0.1-0.2-0.1-0.3 0.4-0.5 0.6-1.6 0.8-1.8-0.1 0.1-0.1 0.4 0 0.5l0.1-0.2c0 0.2-0.3 0.3-0.3 0.6 0.2 0 0.3 0.4 0.6 0.2 0.4-0.6-0.3-0.7 0-1.5 0 0 0.2 0.3 0.2-0.2 0-0.6-0.3-1-0.7-1 0.1 0.2 0.2 0.7 0 0.7-0.1-0.2-0.1-0.6-0.2-0.6 0.3-0.2 0 0.4 0.3 0.1 0-0.2-0.1-0.2-0.1-0.3 0.1 0.1 0.2-0.1 0.2-0.2 0-0.5 0.2-0.7 0.2-1.3 0 0 0.1-0.1 0.2-0.1-0.1-0.2-0.5-0.6-0.7-0.5 0-0.3 0.1-0.3 0-0.5-0.2 0.4 0-0.1-0.3-0.1 0-0.3 0.2-0.1 0.2-0.3 0 0-0.1-0.1-0.2-0.1 0.2-0.2 0.6 0.2 0.8 0 0.1-0.1 0.2-0.8 0.2-0.8-0.2-0.1-1.1 0.2-1.4 0.4-0.1 0 0.1-0.3 0.1-0.4 0.2-0.4-0.3-0.4-0.3-0.7l0.2 0.2c0.1-0.1-0.2-0.4-0.3-0.5 0.1 0 0.5 0.1 0.6-0.1-0.1-0.5-0.8-0.7-1-0.6 0.2 0.2 0.4 0.4 0.5 0.6-0.2 0.1-0.4-0.4-0.6-0.3l-0.2-0.6c0 0.1 0.2 0.3 0.2 0.1-0.1-0.2 0-0.1 0-0.3 0.4 0.1 1.3 0.4 1.7 0.5q-0.1-0.1-0.3-0.3l0.1-0.1c-0.4-0.4-1.3-0.4-1.6-0.4-0.1-0.2 0.4-0.4 0.5-0.4-0.3-0.5-0.8-0.1-1.1-0.5l0.1 0.2c-0.2-0.1-0.3-0.5-0.4-0.4 0.1-0.2 0.2-0.4 0.3-0.4q-0.3-0.1-0.6-0.1c0.1 0 0.4-0.2 0.4-0.3-0.1-0.1-0.5 0.1-0.5 0.2 0-0.4-0.1-0.3-0.1-0.7-0.1-0.1-0.2 0.3-0.2 0.4-0.2-0.1-0.3-0.3-0.4-0.4 0.4 0.2 0.7-0.5 0.9-0.7q-0.7 0.1-1.4 0.3c0.1-0.1 0.4-0.3 0.4-0.3-0.3 0.2-1.1-0.4-1.5-0.7l0.1 0.1c0.1-0.1-0.2-0.4-0.4-0.4 0.1 0 0.1 0 0.2 0.1-0.2-0.4-0.7 0.2-0.8-0.2 0.2 0.2 0.4 0.1 0.4-0.1-0.3 0-0.7-0.3-0.8 0.1-0.1-0.2-0.2-0.2-0.2-0.3h-0.6c0-0.1 0.1-0.2 0-0.2 0.3 0.1 0.7-0.1 0.8 0.2 0.1-0.2 0-0.4 0.2-0.5-0.6-0.1-1.1 0.1-1.6 0.3l-0.5-0.3v0.1l-0.1-0.3c-0.1 0-0.1 0.1-0.1 0q0 0 0-0.1-0.1 0-0.1 0.1c0-0.2 0.1-0.3 0.2-0.4q0.1 0.1 0.2 0.1c0.1-0.1 0.2-0.2 0.1-0.3q-0.1 0-0.1 0c0.1-0.1 0.2-0.1 0.1-0.2q-0.2 0-0.5 0.1 0.1 0 0.2 0.2c-0.3 0.1-0.7 0.3-0.5 0.5l-0.3-0.2c-0.4 0.2-0.3 0.2-0.8 0.4 0-0.1 0.1-0.2 0-0.3-0.3 0.3-0.8-0.4-0.9-0.1-0.3 0.1-0.1 0.2-0.3 0.3 0 0 0-0.1 0-0.1l-0.2 0.2c-0.1 0 0.2-0.1-0.1-0.2-0.4 0.2-0.6 0.4-0.9 0.3-0.5 0.1 0.2 0.4-0.2 0.4 0-0.2-0.1-0.3-0.4-0.3-0.1 0.1 0 0.3-0.2 0.4l-0.1-0.3c-0.2 0.1-0.3 0.2-0.4 0-0.1 0.2-0.2 0.2-0.3 0.2-0.3 0.2 0.4 0.4 0.4 0.4-0.3 0-0.5 0.1-0.7-0.1l0.2-0.1c-0.7-0.1-0.4 0.5-0.8 0.1 0.2-0.1 0.3-0.3 0.2-0.3q-0.1 0.1-0.2 0.2c-0.1 0 0.1-0.1-0.1-0.1 0 0.1-0.1 0.2-0.2 0.4v-0.1q-0.2 0.2-0.4 0.3c0.1-0.1 0-0.1 0-0.1l-0.3 0.3c0.1-0.1 0-0.1-0.2-0.1-0.4 0.2 0 0.7-0.4 0.7 0 0 0-0.1 0.1-0.1h-0.2c0.2 0.5-0.8 0.7-0.5 1.1-0.3 0-0.1-0.1 0-0.5l-0.3 0.1c0-0.1 0.1-0.1 0.2-0.2zm1.6-1.2q0 0 0 0 0 0 0 0zm8.4-0.9q0 0 0 0 0 0 0 0zm4.4 3q0 0 0 0 0 0 0 0zm0.1 0.1q0 0 0 0 0 0 0 0zm0.7 0.1q-0.1 0-0.1 0 0 0 0.1 0zm1.4 12.6q0 0 0 0zm0.3 0.4q0 0 0 0 0 0 0 0zm-1.5-13.9c0-0.1 0-0.1-0.1 0q0.1 0 0.1 0zm0 0q0 0 0-0.1 0 0.1 0 0.1 0 0 0 0zm-19.9 11.1q0 0 0 0 0 0 0 0zm1.5 3.9q0 0 0 0 0 0 0 0zm3.3 0.8q0 0 0 0zm-3.9-5.6q0 0 0 0 0 0 0 0zm1-6.7h0.1q-0.1 0-0.1 0zm5.5-5.5c0.1 0.1 0.2-0.1 0.3-0.1-0.2 0-0.3-0.1-0.3 0.1zm6.2-0.9q0.1 0.2 0.2 0.1-0.1-0.1-0.2-0.1zm-12.6 9.5q0 0 0 0 0 0 0 0 0 0 0 0 0 0 0 0zm21.6 5.1c0.1-0.2 0.1-0.2 0 0zm-0.2 0.3q0 0.1 0 0.1 0-0.1 0.1-0.2c-0.1 0-0.1 0-0.1 0.1zm-22.9-1.5v0.1c0 0 0.1 0.1 0-0.1z"/>
						<path id="&lt;Path&gt;" class="s3" d="m65.1 52q0-0.1 0-0.1-0.1 0 0 0.1z"/>
						<path id="&lt;Path&gt;" class="s3" d="m54.7 56.6v0.1z"/>
						<path id="&lt;Path&gt;" class="s3" d="m73.4 60.6q0-0.1 0.1-0.2-0.1 0-0.1 0.2z"/>
						<path id="&lt;Path&gt;" class="s3" d="m73.6 68.9l0.1-0.3c0 0.2-0.1 0.2-0.1 0.2 0 0 0.1 0 0 0.1z"/>
						<path id="&lt;Path&gt;" class="s3" d="m71.3 70c0 0.1 0 0.1 0 0.1v0.1c0.1-0.1 0.2-0.3 0-0.2z"/>
						<path id="&lt;Path&gt;" class="s3" d="m73 68.8c-0.2-0.1-0.2 0.1-0.3 0.2 0.2 0.2 0.2 0 0.3-0.2z"/>
						<path id="&lt;Path&gt;" class="s3" d="m72.7 69.1q0 0.1-0.1 0.1c0.1 0.1 0.1 0 0.1-0.1z"/>
						<path id="&lt;Path&gt;" class="s3" d="m74.3 67.3c-0.1 0 0.1 0.1 0 0.1 0.2 0.2 0.1-0.6 0-0.1z"/>
						<path id="&lt;Path&gt;" class="s3" d="m72.5 68.6l0.2 0.1-0.1-0.2z"/>
						<path id="&lt;Path&gt;" class="s3" d="m73.3 67.5l-0.2 0.2q0.1 0 0 0.1c0.1-0.1 0.2-0.3 0.2-0.3z"/>
						<path id="&lt;Path&gt;" class="s3" d="m73.1 67.8q0 0.1 0 0.2c0 0 0-0.1 0-0.2z"/>
						<path id="&lt;Path&gt;" class="s3" d="m72.6 68.3l0.1-0.1 0.1-0.1z"/>
						<path id="&lt;Path&gt;" class="s3" d="m74.3 64.6v-0.3c-0.1-0.1-0.1 0-0.1 0.1 0 0.1 0 0.2 0.1 0.2z"/>
						<path id="&lt;Path&gt;" class="s3" d="m73.6 65.4c0-0.1 0.1-0.1 0.2-0.1l-0.3-0.1z"/>
						<path id="&lt;Path&gt;" class="s3" d="m73.7 64.5c0 0-0.1-0.4-0.1-0.1 0 0.1 0 0.4 0.1 0.1z"/>
						<path id="&lt;Path&gt;" class="s3" d="m74 60v0.1l0.4-0.1z"/>
						<path id="&lt;Path&gt;" class="s3" d="m71.6 56.8c0.1 0.3 0.3 0 0.3 0.3 0.2 0 0-0.3 0.1-0.3-0.2-0.1-0.2-0.2-0.4 0z"/>
						<path id="&lt;Path&gt;" class="s3" d="m72 56.8q0 0.1 0.1 0.1-0.1-0.1-0.1-0.1z"/>
						<path id="&lt;Path&gt;" class="s3" d="m62.4 74.6l0.2 0.1-0.1-0.2z"/>
						<path id="&lt;Path&gt;" class="s3" d="m62.9 74.3v0.3l0.2-0.3c-0.1 0-0.2 0.1-0.2 0z"/>
						<path id="&lt;Path&gt;" class="s3" d="m60.4 52.9v-0.1c-0.1 0-0.1 0-0.2 0z"/>
						<path id="&lt;Path&gt;" class="s3" d="m57.7 53.9l0.1-0.1-0.2-0.1z"/>
						<path id="&lt;Path&gt;" class="s3" d="m56.1 55.6c0-0.1 0.1-0.2 0.2-0.3-0.2 0.2-0.4 0.1-0.2 0.3z"/>
					</g>
					<g id="&lt;Group&gt;">
						<path id="&lt;Path&gt;" class="s3" d="m63.2 46c-0.1 0-0.1 0.1-0.1 0.2 0.2 0 0.1-0.2 0.1-0.2z"/>
						<path id="&lt;Path&gt;" class="s3" d="m65.8 45.9h-0.1l0.4-0.1z"/>
						<path id="&lt;Path&gt;" class="s3" d="m68.1 46.4c-0.1-0.3-0.9-0.2-1.2-0.4l-0.1-0.1-0.2 0.2c0.5 0.1 1.2 0.1 1.5 0.3z"/>
						<path id="&lt;Path&gt;" class="s3" d="m69.1 47.4c0-0.1 0.3 0-0.3-0.1q0.1 0 0.1 0 0 0 0.2 0.1z"/>
						<path id="&lt;Path&gt;" class="s3" d="m68.9 47.3c-0.3-0.1 0.1 0.1 0 0z"/>
						<path id="&lt;Path&gt;" class="s3" d="m69.9 47.7l-0.3-0.1c0 0.1 0.3 0.3 0.2 0.3 0.3 0.1 0.3 0 0.1-0.2z"/>
						<path id="&lt;Path&gt;" class="s3" d="m70.3 47.6h-0.2c0 0 0.1 0.1 0.2 0z"/>
						<path id="&lt;Path&gt;" class="s3" d="m69.8 47.5l0.3 0.1c0-0.1 0-0.1-0.1 0 0-0.1-0.1-0.1-0.2-0.1z"/>
						<path id="&lt;Path&gt;" class="s3" d="m69.6 47.4c-0.1-0.1-0.3-0.3 0-0.2-0.6-0.2-0.6 0 0 0.2z"/>
						<path id="&lt;Path&gt;" class="s3" d="m68.3 46.2q-0.1-0.1-0.2-0.2h-0.2c0.1 0 0.4 0.2 0.4 0.2z"/>
						<path id="&lt;Path&gt;" class="s3" d="m71.6 48.8c0.1-0.1 0-0.2 0-0.3l-0.2-0.1c0.1 0.1 0.2 0.3 0.2 0.4z"/>
						<path id="&lt;Path&gt;" class="s3" d="m71.6 48.5l0.4 0.1c-0.3-0.2-0.4-0.2-0.4-0.1z"/>
						<path id="&lt;Path&gt;" class="s3" d="m70.5 47.4l-0.7-0.1 0.8 0.1z"/>
						<path id="&lt;Path&gt;" class="s3" d="m72.7 49.5h-0.2l0.4 0.1z"/>
						<path id="&lt;Path&gt;" class="s3" d="m73.4 50.1c-0.1 0 0.1 0.2-0.1 0.2 0.2 0.1 0.4 0.2 0.6 0.3q-0.3-0.2-0.5-0.5z"/>
						<path id="&lt;Path&gt;" class="s3" d="m74.2 50.7q-0.1-0.1-0.3-0.1 0.2 0 0.3 0.1z"/>
						<path id="&lt;Path&gt;" class="s3" d="m72.5 49c0 0 0 0.1 0.1 0.3v-0.2q-0.1-0.1-0.1-0.1z"/>
						<path id="&lt;Path&gt;" class="s3" d="m72.6 49v0.1q0.2 0.1 0.2 0.1 0 0-0.2-0.2z"/>
						<path id="&lt;Path&gt;" class="s3" d="m72.4 48.9l0.1 0.1q0-0.1-0.1-0.1z"/>
						<path id="&lt;Path&gt;" class="s3" d="m71.3 48c0.2 0 0.6 0.1 0.3-0.2-0.2 0 0 0.2-0.3 0.2z"/>
						<path id="&lt;Path&gt;" class="s3" d="m72.4 48.7q-0.1-0.2-0.3-0.3c0 0.1 0 0.2-0.1 0.1q0.2 0.1 0.4 0.2z"/>
						<path id="&lt;Path&gt;" class="s3" d="m72.6 48.7h-0.2l0.1 0.1z"/>
						<path id="&lt;Path&gt;" class="s3" d="m73.9 50.1c0.1 0.1 0.3 0.2 0.4 0.3q-0.2-0.2-0.4-0.4c-0.1 0-0.2 0 0 0.1z"/>
						<path id="&lt;Path&gt;" class="s3" d="m73.3 49.6q0-0.1 0 0z"/>
						<path id="&lt;Path&gt;" class="s3" d="m75.7 51.9v-0.1 0.1z"/>
						<path id="&lt;Path&gt;" class="s3" d="m73.9 49.9c-0.1-0.1-0.2-0.2-0.3-0.2q0.1 0.1 0.3 0.3 0-0.1 0-0.1z"/>
						<path id="&lt;Path&gt;" class="s3" d="m74.7 51q-0.1-0.1-0.1-0.3c0 0.1 0 0.3 0.1 0.3z"/>
						<path id="&lt;Path&gt;" class="s3" d="m73.3 49.7q0 0 0 0z"/>
						<path id="&lt;Path&gt;" class="s3" d="m73.3 49.7q0.1 0 0.3 0-0.2-0.1-0.3-0.1 0 0 0 0.1z"/>
						<path id="&lt;Path&gt;" class="s3" d="m76.9 51.7c-0.1 0.1-0.5-0.2-0.6-0.6-0.4-0.2-0.6 0.3-0.6 0.7 0.1 0 0.1 0 0.4 0.2 0-0.2-0.4-0.8-0.1-0.6 0.5 0.3 0.3 0.4 0.4 0.6 0-0.3 0.6 0.4 0.7 0.1l-0.3-0.3c0 0 0.2 0.1 0.1-0.1z"/>
						<path id="&lt;Path&gt;" class="s3" d="m75.2 51.3l-0.1-0.1c0.1 0.2 0.2 0.3 0.2 0.5 0.3 0.2 0.3 0.2 0.4 0.2l-0.5-0.6z"/>
						<path id="&lt;Path&gt;" class="s3" d="m74.6 50.7c0.3-0.1 0.5 0.2 0.5-0.1-0.3-0.3-0.3-0.1-0.6-0.3 0.6 0.5-0.2-0.1 0.1 0.4q-0.1-0.1-0.3-0.3 0.1 0.2 0.3 0.3h-0.1q0 0 0.1 0 0 0 0 0c0.2 0.2 0 0 0 0h-0.1c0.3 0.2 0.4 0.3 0.6 0.5-0.1-0.1-0.2-0.3-0.5-0.5z"/>
						<path id="&lt;Path&gt;" class="s3" d="m72.2 47.7q0 0 0 0c0 0.1 0 0.1 0 0z"/>
						<path id="&lt;Path&gt;" class="s3" d="m72.4 48c-0.1-0.1-0.2 0-0.3-0.1-0.1-0.2 0-0.1 0.1-0.2-0.2 0-0.4 0-0.2 0.2h0.1c0.2 0.2 0.4 0.6 0.4 0.6 0-0.2 0-0.3-0.1-0.5z"/>
						<path id="&lt;Path&gt;" class="s3" d="m73.6 49.3q0.3 0.1 0.6 0.3l-0.2-0.3v0.1c-0.3-0.3-0.3-0.2-0.4-0.1z"/>
						<path id="&lt;Path&gt;" class="s3" d="m75.7 52l-0.2 0.1q0.2 0 0.4 0.1z"/>
						<path id="&lt;Path&gt;" class="s3" d="m76.2 52.6l-0.2 0.1 0.2 0.1z"/>
						<path id="&lt;Path&gt;" class="s3" d="m53.8 78.1l-0.2-0.1q0.1 0.1 0.2 0.1z"/>
						<path id="&lt;Path&gt;" class="s3" d="m55.1 78.8v-0.1q-0.1 0.1 0 0.1z"/>
						<path id="&lt;Path&gt;" class="s3" d="m77 71c-0.3 0.2-0.6 0.3-0.4 0.3l0.2 0.1q0.1-0.3 0.2-0.4z"/>
						<path id="&lt;Path&gt;" class="s3" d="m66.5 79.4l0.1 0.1q0.1-0.1 0.2-0.2-0.2 0.1-0.3 0.1z"/>
						<path id="&lt;Path&gt;" class="s3" d="m66.4 80.2l-0.4-0.1q0.2 0 0.4 0.1z"/>
						<path id="&lt;Path&gt;" class="s3" d="m47.9 72.8q-0.2 0-0.3-0.1c0.2 0.3 0.2 0.1 0.3 0.1z"/>
						<path id="&lt;Path&gt;" class="s3" d="m79.3 60.1q0 0.3 0 0.5c0.1-0.2 0.2-0.5 0-0.5z"/>
						<path id="&lt;Path&gt;" class="s3" d="m55.1 76.8q-0.1 0-0.1 0 0.1 0.1 0.1 0z"/>
						<path id="&lt;Path&gt;" class="s3" d="m79.4 61.3q0-0.1 0-0.1-0.1-0.3-0.1-0.6c0 0.2-0.1 0.5 0.1 0.7z"/>
						<path id="&lt;Path&gt;" class="s3" d="m52.9 47.2q0 0 0 0 0 0 0 0z"/>
						<path id="&lt;Path&gt;" class="s3" d="m60.9 46q-0.1 0-0.3 0 0.1 0 0.3 0z"/>
						<path id="&lt;Path&gt;" class="s3" d="m77.8 55.4c-0.1-0.2-0.1 0 0 0z"/>
						<path id="&lt;Path&gt;" class="s3" d="m78 54.3q0.1 0.1 0.1 0.1-0.1 0-0.1-0.1z"/>
						<path id="&lt;Path&gt;" class="s3" d="m80.4 63q0.1-0.1 0 0z"/>
						<path id="&lt;Path&gt;" class="s3" d="m77.7 55.1q0 0.1 0.1 0.2 0 0-0.1-0.2z"/>
						<path id="&lt;Path&gt;" class="s3" d="m77.7 55.2q-0.1-0.1-0.1-0.1c0-0.1 0 0 0.1 0.1z"/>
						<path id="&lt;Path&gt;" class="s3" d="m77.9 55.6q-0.1-0.1-0.1-0.3 0 0.1 0 0.1 0 0 0.1 0.2z"/>
						<path id="&lt;Path&gt;" class="s3" d="m45.4 60.1q0-0.1 0-0.1c0-0.2 0-0.1 0 0.1z"/>
						<path id="&lt;Path&gt;" class="s3" d="m75.4 75.7z"/>
						<path id="&lt;Path&gt;" class="s3" d="m75 76.2c0.1-0.3 0.2-0.4 0.4-0.5l-0.5-0.2z"/>
						<path id="&lt;Compound Path&gt;" fill-rule="evenodd" class="s3" d="m51.4 76.4c-0.3-0.5-0.9-0.7-1.3-0.9-0.1-0.2 0.4-0.1-0.1-0.5-0.7-0.7-0.2 0.4-0.6 0l-0.1-0.5c-0.7-0.4-0.8-1-1.2-1.5q-0.1-0.2-0.2-0.2c-0.2-0.6-0.9-1-1.1-1.5 0.1 0.1 0-0.3 0-0.4l-0.5-0.7c0.2 0.3 0.4 0.2 0.5 0.2-0.1-0.3-0.2-0.3-0.4-0.5 0.2 0.1 0.3 0.2 0.3 0q-0.4-0.4-0.7-0.8c0 0.1 0.1 0.2 0.1 0.3-0.1-0.2-0.4-0.7-0.4-1 0.1 0 0.2 0 0.3 0.1-0.1 0.3 0.1 0.4 0.3 0.5-0.3-0.6-0.1-0.2-0.1-0.5-0.1-0.4-0.4-0.5-0.5-0.4-0.1-0.5-0.1-0.7-0.4-1.1h0.3l-0.2-0.5 0.3 0.4c0-1-0.4-0.1-0.5-1.2h0.2c-0.1-0.4-0.4-0.5-0.3-0.8-0.1-0.4-0.1 0.7-0.3-0.2 0.1-0.2 0.1-0.5 0.1-0.8-0.1-0.2-0.2 0.1-0.2 0.3-0.1-1.2 0.6-0.8 0.3-1.9-0.1 0.4-0.3-0.4-0.3 0.6-0.1-0.5 0.3-0.9 0.1-1.4l0.2 0.3c0-0.2 0-0.4-0.1-0.5l0.2 0.1c-0.3-0.7 0.2-1.1-0.1-1.5 0.3 0.3 0-0.5 0.2-0.7 0.2 0.5-0.2 1.4 0.1 1.5 0.1-0.2 0-0.4 0.1-0.6 0 0.1 0.1 0.3 0.1 0.4 0.3-0.7 0-1.2 0-1.6v0.8c-0.3-0.1 0-0.4-0.2-0.7 0.2-0.3 0.1-0.7 0.2-1 0 0.1 0 0.1 0 0.2 0.2-0.9 0.7-1 0.9-1.3 0.1-0.3 0.2-1 0-0.8 0-0.3-0.3 1.1-0.5 0.5 0.6-0.3 0.1-1.1 0.9-1.9 0 0.5 0.4-0.2 0.3 0.3 0.2-0.5 0.2-0.6 0.1-0.8l0.2-0.1c0.1-0.8-0.1-0.3 0.2-1.3 0 0.4 0.4-0.2 0.4 0.1 0.1-0.3 0.2-0.5 0.3-0.8v0.1c0.6-0.9 0.6-0.6 1.1-1.4h-0.1c0.7-1.1 1.9-2.2 2.9-3l-0.4 0.2c0.2-0.1 0.7-0.6 1.1-0.8-0.1 0.1-0.2 0.2-0.3 0.2 0.1 0.1 0.3 0.1 0.6 0v-0.2h0.2c0.4-0.2-0.3-0.1 0.2-0.3 0.2 0.1 0.6-0.2 1.1-0.4 0.5-0.3 1-0.5 1.2-0.4 0.2-0.4-0.8 0.3-0.6-0.1 0.2 0 0.2 0 0.5-0.1l-0.1-0.1c1.4-0.5 1.9-0.5 3.2-0.8h-0.1c0.5 0 0.7-0.1 0.9-0.3 0.1 0.1-0.2 0.1 0 0.2 0.7-0.6 1.6 0.1 2-0.3 0 0.4 1 0.7 0.6 1h0.3c-0.1 0.2-0.9 0-1.1 0.3q-0.5-0.1-1-0.1c0 0.1-0.1 0.2 0.1 0.2-0.3 0.1-0.5 0.1-0.1 0.2-0.6-0.1-1.2 0-1.8 0.1-0.6 0.1-1.1 0.3-1.7 0.5-1 0.5-2 1.1-3.1 1.5-0.1 0.1 0 0.2 0.1 0.2-0.5 0-0.3 0.3-0.4 0.5l-0.7 0.1c-0.1 0.2 0.1 0.2 0.1 0.2-0.9 0.8-1.9 1.3-2.4 2.2-0.3 0.1-0.1-0.3-0.4 0 0.5-0.2-0.6 0.9-0.3 0.9-0.5 0.1-0.8 1.1-1.1 0.7-0.3 0.4-0.1 0.4 0.1 0.3-0.3 0.5-0.6 0.9-0.6 1.4-0.2 0.1-0.4 0.6-0.7 1.2-0.2 0.6-0.5 1.3-0.7 1.4 0.3-0.2 0.1 0.1 0.1 0.5l0.3-0.3-0.2 0.7c0 0.2 0 0.2-0.1 0.2 0 0.1-0.1-0.1-0.2 0.2-0.2 0.5 0 0.6 0.1 0.8v0.3c-0.1 0.3-0.1-0.9-0.3-0.1 0 0 0.2 0.5 0 0.7 0.1-0.4 0-0.4-0.1-0.2q-0.1 0.3-0.1 0.5l0.3-0.1c-0.2 1.6-0.4 3.3 0 5.1-0.3 0 0.3 1.2-0.1 1.1v-0.1c-0.1-0.4-0.2 0.2-0.1 0.6 0-0.4 0.5 0.5 0.3-0.4 0.2 0.2 0.2 0.5 0.4 0.6 0.4 0.1 0.5 0.5 0.6 1.1 0.2 0.5 0.3 1.1 0.7 1.5q-0.1 0-0.2 0c0.7 0.7 0.9 1.9 1.2 2l-0.1 0.1c0.7 0.5 0.7 0.6 1.3 1.4 0 0-0.2-0.1-0.1 0.1 0.3 0 0.5 0.1 0.9 0.6l0.8 0.7c-0.4 0.5 1.5 0.8 1.4 1.4 0.3 0 0.9 0.3 1.3 0.4q-0.1 0.1 0 0.2c0.5-0.1 0.9 0.5 1.4 0.7 0.2 0.1 0.2-0.1 0.1-0.2 0.4 0.4 1.5 0.2 1.7 0.4 0.3 0.1 0 0.3 0.1 0.4 0.6 0.1 0-0.5 0.8-0.1-0.1 0-0.3 0-0.3 0 0.3 0.1 0.7 1 1.1 0.9l-0.2-0.1c0.6-0.1 1.2 0.6 1.4 0.3v-0.2c0.9 0.3 0.4-0.1 1.4 0.2h-0.1c0.5 0 0.7 0.3 0.9 0l-0.1-0.1c0.5 0 0.6 0 1.1 0 0.1-0.1 0.3-0.1 0.4-0.1 0-0.2 1.3-0.3 1.5-0.3-0.4 0.1-0.2 0.2 0 0.3 0.2-0.2 0.3-0.3 0.7-0.3 0-0.3 0-0.6 0.6-0.8-0.1 0.1-0.2 0.1-0.1 0.2 0.1 0 0.2-0.1 0.2-0.1 0.1 0-0.1 0.1 0 0.2 0.4-0.4 0.8-0.2 1.4-0.6-0.2 0.2 0 0.2 0.1 0.3-0.1-0.4 1-0.1 0.6-0.4 1.3-0.3 2.9-1.6 3.5-1.7 0.2 0 0.4-0.4 0.5-0.5l0.1 0.1c0.3-0.6 0.3-0.4 0.7-1.1-0.1 0.3 0.1 0.3 0.4 0.2q0.1-0.3 0.1-0.6l0.3 0.1c0.1-0.3 0.2-0.4 0.4-0.6 0-0.1 0.1-0.3 0.2-0.5 0.2-0.3 0.3-0.5 0.3-0.6 0.4 0 0.3-0.5 0.6-0.5q0-0.1 0.1-0.3c-0.2 0-0.3 0-0.2-0.2q0 0 0.1 0h0.2c0-0.2 0.1-0.4 0.2-0.5q-0.1 0-0.2 0.1 0.1-0.1 0.2-0.2 0 0 0.1 0 0 0-0.1 0c0.1-0.1 0.2-0.2 0.3-0.4 0.3-0.2 0.4-0.7 0.5-1.1 0.1-0.4 0.2-0.8 0.5-1.1-0.1 0.1-0.1 0.2-0.1 0.3 0.2-0.6 0.7-1.2 0.7-1.7h-0.2c0-0.5 0.1-0.9 0.2-1.3h-0.2c0.2-0.6 0-1.8 0.4-2.2-0.2-0.1 0.1-0.8 0-1.1l0.2-0.1c0-0.4-0.1-0.7-0.1-0.9 0.1-0.5 0.1-0.9 0-1.3q-0.2-0.6-0.3-1.2l-0.3-0.7c0.2 0.1-0.1-0.1-0.2-0.4-0.1-0.2-0.2-0.6-0.2-0.9l-0.2-0.5c0.3 0.5 0.2-0.1 0.4-0.2q-0.2-0.1-0.3-0.2c0-0.2 0.2 0.1 0.1-0.1-0.1-0.2-0.4-0.7-0.6-0.8q-0.1 0-0.1 0.2 0.1 0 0 0 0 0 0 0 0 0-0.1 0c-0.1-0.4-0.1-0.3-0.2-0.2 0.1-0.5-0.2-0.6-0.2-1-0.1 0.3-0.5-1-0.6-0.6 0-0.4-0.1-0.1-0.1-0.5 0.3 0.5 0.7 0.7 1 1l-0.1-0.4c0.4 0 0.4 0.8 0.6 0.9-0.1-0.1-0.2-0.4-0.2-0.4l-0.2 0.2c0.3 0.5 0.6 0.8 0.9 1.1-0.1-0.4 0.3 0.3 0.3 0l-0.1-0.2c0-0.2 0.2 0 0.3 0.2 0.3 0.9 0.9 2.5 0.8 2.9 0-0.2-0.1-0.6-0.2-0.7v0.4c-0.1-0.3 0-0.6-0.2-1.1-0.2 0.1-0.5-0.2-0.5 0.3 0.1 1 0.6 0.6 0.8 1.8 0.1 0.1-0.3-0.2-0.1 0.4 0.3 0.8 0.7 1.3 1.1 1.3-0.2-0.3-0.5-1-0.3-1.1 0.2 0.3 0.3 0.9 0.5 0.9-0.2 0.4-0.2-0.7-0.3-0.2 0 0.3 0.1 0.4 0.2 0.5-0.2-0.2-0.2 0.2-0.3 0.3 0 0.8 0 1.3-0.1 2.1 0 0-0.1 0.1-0.2 0.1 0.1 0.4 0.5 1 0.6 0.9 0 0.5-0.1 0.5-0.1 0.9 0.3-0.6-0.1 0.1 0.2 0.3-0.1 0.4-0.2 0.1-0.3 0.3 0 0 0.1 0.2 0.2 0.3-0.3 0.2-0.5-0.6-0.7-0.4-0.2 0.2-0.7 1-0.7 1.1 0.2 0.2 1.1 0.4 1.4 0.1 0.2 0.1-0.2 0.4-0.3 0.6-0.4 0.5 0 0.9-0.3 1.3v-0.4c-0.1 0-0.2 0.7-0.2 0.8-0.1 0-0.3-0.4-0.5-0.3-0.2 0.8-0.2 1.6 0.1 1.7 0.1-0.4 0.2-0.8 0.2-1.3 0.3 0.1-0.1 1 0.1 1l-0.5 1.1c0-0.2 0.2-0.6 0-0.5-0.2 0.4-0.2 0.2-0.4 0.5 0-0.7-0.2-1.9-0.4-2.4q0 0.3-0.1 0.6l-0.1 0.1c-0.2 0.7 0.2 1.7 0.3 2-0.3 0.4-0.6 0-0.6-0.1-0.5 0.7 0.1 1.1-0.5 1.7l0.3-0.2c-0.1 0.2-0.6 0.8-0.5 0.8-0.2 0-0.5 0-0.5-0.2q0 0.4-0.1 0.8c0-0.1-0.3-0.3-0.4-0.3-0.2 0.2 0 0.6 0.2 0.6-0.6 0.2-0.4 0.2-1 0.4-0.1 0.1 0.3 0.2 0.4 0.2-0.2 0.3-0.4 0.4-0.6 0.6 0.4-0.6-0.4-0.8-0.5-1.1q-0.1 0.9-0.4 1.8c0-0.1-0.1-0.4-0.1-0.4 0.1 0.3-1.2 1.4-2 1.7h0.1c0.1-0.2-0.5 0.1-0.7 0.3 0-0.1 0.1-0.1 0.2-0.1-0.6 0-0.4 0.7-1.1 0.7 0.5-0.2 0.5-0.3 0.5-0.4-0.4 0.3-1.3 0.5-0.9 0.8-0.3 0.1-0.5 0.2-0.6 0l-0.9 0.6c0.1-0.1 0.1-0.2-0.2-0.1 0.6-0.2 1-0.7 1.3-0.6 0-0.2-0.3-0.3-0.1-0.6-1 0.5-1.4 1.2-2 1.6l-1 0.1v0.1l-0.2-0.2q-0.2 0.1-0.2 0.1-0.1 0 0-0.1-0.1 0-0.2 0.1c-0.1-0.2 0.1-0.3 0.2-0.5q0.1 0 0.3 0.1c0.1-0.2 0.2-0.4 0-0.4q-0.1 0-0.1 0.1c0-0.2 0.1-0.3 0-0.3q-0.3 0.2-0.7 0.3 0.2 0 0.4 0.1c-0.4 0.3-0.9 0.6-0.5 0.7l-0.5-0.1c-0.7 0.4-0.5 0.3-1.4 0.6 0-0.1 0.2-0.2 0.1-0.3-0.6 0.4-1.5-0.3-1.6 0-0.5 0-0.2 0.2-0.5 0.3 0-0.1 0-0.1-0.1-0.1l-0.3 0.1c-0.2 0 0.3-0.1-0.1-0.2-0.7 0.1-1.1 0.1-1.7-0.1-0.9 0 0.3 0.5-0.4 0.3-0.1-0.1-0.2-0.3-0.6-0.5-0.2 0.1-0.2 0.2-0.6 0.2l0.1-0.3c-0.4 0-0.7-0.1-0.7-0.3-0.3 0.1-0.5 0-0.6-0.1-0.6-0.1 0.2 0.6 0.3 0.7-0.4-0.3-0.8-0.4-1-0.8l0.5 0.1c-0.9-0.6-1.1 0-1.3-0.7 0.3 0.2 0.7 0.2 0.6 0q-0.3 0-0.5-0.1c-0.1 0 0.2 0.1 0.1 0-0.2-0.1-0.5-0.1-0.7-0.1q-0.3-0.1-0.7-0.3c0.1 0 0.1 0 0-0.1l-0.6-0.2c0.2 0 0.1-0.1-0.2-0.3-0.6-0.5-0.8 0.2-1.2-0.4 0.1 0 0.1 0 0.2 0.1l-0.2-0.3c-0.2 0.2-0.5-0.1-0.9-0.3-0.4-0.3-0.7-0.6-0.9-0.5-0.2-0.4 0-0.1 0.6 0.1l-0.2-0.4c0.1 0.1 0.2 0.2 0.4 0.3zm2.9 2q0 0 0.1 0-0.1 0-0.1 0zm22.3-4q0 0.1 0 0.1 0 0 0-0.1zm0.2-0.1q0-0.1 0-0.1 0 0 0 0.1zm0.1-0.9q0 0 0 0 0 0 0 0zm0.9-19.5q0 0 0 0zm0.2 0.4q0 0 0 0 0 0 0 0zm-0.7-0.5q-0.1 0-0.1 0.1 0-0.1 0.1-0.1zm-1.6 19.7c0 0.1 0 0.1 0.1 0.1q-0.1 0-0.1-0.1zm0 0q0 0 0 0 0 0 0 0 0 0 0 0zm-28.8-16q0 0 0 0 0 0 0 0zm3.1-5.1q0 0-0.1 0 0.1 0 0.1 0zm1.8-4.4q0 0 0 0zm-6.3 10.2q0 0 0 0 0 0 0 0zm-0.8 6.2q0-0.1 0-0.1 0 0 0 0.1zm1.6 5.7v0.1q0 0 0-0.1zm10.3 9.3c0 0.2 0.3 0.2 0.5 0.2-0.2-0.2-0.3-0.3-0.5-0.2zm10.5 0.2c0.2 0.1 0.4 0 0.5 0q-0.3 0-0.5 0zm11.5-22.5q0 0 0-0.1c0 0.2 0.1 0.3 0 0.1zm-0.1-0.6q-0.1-0.1-0.1 0c0.1 0 0.1 0.1 0.2 0.3 0-0.1 0-0.2-0.1-0.3zm-31.6 2l0.1-0.1c0 0-0.1-0.1-0.1 0.1z"/>
						<path id="&lt;Path&gt;" class="s3" d="m66.5 80.1q-0.1-0.1-0.1-0.1-0.1 0 0.1 0.1z"/>
						<path id="&lt;Path&gt;" class="s3" d="m47.9 72.8q0 0 0 0z"/>
						<path id="&lt;Path&gt;" class="s3" d="m80.9 65.5q-0.1 0.2-0.1 0.3c0 0 0.1-0.1 0.1-0.3z"/>
						<path id="&lt;Path&gt;" class="s3" d="m76.9 53.9l0.2 0.3c-0.1-0.2-0.1-0.2-0.1-0.3 0 0-0.1 0.1-0.1 0z"/>
						<path id="&lt;Path&gt;" class="s3" d="m75.8 50.6c0 0-0.1-0.1-0.1-0.1l-0.1 0.1c0.2 0.2 0.4 0.2 0.2 0z"/>
						<path id="&lt;Path&gt;" class="s3" d="m77.2 53.3c0.1-0.1 0-0.3-0.2-0.5-0.2 0.1 0 0.3 0.2 0.5z"/>
						<path id="&lt;Path&gt;" class="s3" d="m76.9 52.8q0-0.1-0.1-0.2c-0.1 0 0 0 0.1 0.2z"/>
						<path id="&lt;Path&gt;" class="s3" d="m78.1 55.8c0-0.1-0.2 0-0.2 0-0.2-0.1 0.6 0.6 0.2 0z"/>
						<path id="&lt;Path&gt;" class="s3" d="m77.5 52.8l-0.1 0.2h0.2z"/>
						<path id="&lt;Path&gt;" class="s3" d="m78.5 54.7l-0.2-0.4q0 0-0.1 0c0.1 0.2 0.2 0.5 0.3 0.4z"/>
						<path id="&lt;Path&gt;" class="s3" d="m78.2 54.3q-0.1-0.2-0.2-0.3c0.1 0 0.2 0.2 0.2 0.3z"/>
						<path id="&lt;Path&gt;" class="s3" d="m77.9 53.3v0.1l0.2 0.3z"/>
						<path id="&lt;Path&gt;" class="s3" d="m79.9 59.1l0.2 0.5c0 0 0.1-0.1 0-0.3-0.1-0.1-0.1-0.3-0.2-0.2z"/>
						<path id="&lt;Path&gt;" class="s3" d="m80.1 57.6c0 0.1 0 0.1-0.1 0.2h0.3z"/>
						<path id="&lt;Path&gt;" class="s3" d="m80.5 58.9c0.1 0.1 0.3 0.7 0.2 0.1-0.1 0-0.2-0.5-0.2-0.1z"/>
						<path id="&lt;Path&gt;" class="s3" d="m80.1 66.1l0.1-0.1h-0.4z"/>
						<path id="&lt;Path&gt;" class="s3" d="m78.5 72.5c0.4-0.5-0.2-0.3 0.2-0.7 0-0.2-0.3 0.3-0.3 0.2-0.1 0.3-0.2 0.5 0.1 0.5z"/>
						<path id="&lt;Path&gt;" class="s3" d="m78.4 72q0-0.1 0.1-0.2-0.1 0.1-0.1 0.2z"/>
						<path id="&lt;Path&gt;" class="s3" d="m62.2 46.1h0.3l-0.2-0.1z"/>
						<path id="&lt;Path&gt;" class="s3" d="m62.8 45.7l0.1 0.3 0.2-0.3c-0.1 0.1-0.2 0.1-0.3 0z"/>
						<path id="&lt;Path&gt;" class="s3" d="m58 80.4v-0.1c0-0.1-0.1-0.1-0.3-0.1z"/>
						<path id="&lt;Path&gt;" class="s3" d="m53.3 78.1v-0.3z"/>
						<path id="&lt;Path&gt;" class="s3" d="m49.6 75.5c0.1 0.2 0.3 0.3 0.5 0.4-0.4-0.2-0.3-0.6-0.5-0.4z"/>
					</g>
				</g>
			</g>
			<g id="&lt;Group&gt;">
				<path id="&lt;Path&gt;" class="s2" d="m85.2 44.4c0 2.2-1.8 4-4.1 4-2.2 0-4-1.8-4-4 0-2.3 1.8-4.1 4-4.1 2.3 0 4.1 1.8 4.1 4.1z"/>
				<g id="&lt;Group&gt;">
					<path id="&lt;Path&gt;" class="s3" d="m86.1 44.3c0 0.1 0.2 0.1 0.2 0.1 0-0.1-0.2-0.1-0.2-0.1z"/>
					<path id="&lt;Path&gt;" class="s3" d="m85.7 43.6h0.1-0.2z"/>
					<path id="&lt;Path&gt;" class="s3" d="m85.5 43c-0.2 0.1 0.1 0.2 0.1 0.3l-0.1 0.1h0.3c-0.1-0.2-0.3-0.3-0.3-0.4z"/>
					<path id="&lt;Path&gt;" class="s3" d="m86 42.4c-0.1 0.1-0.1 0 0 0.1q0 0 0 0 0 0 0-0.1z"/>
					<path id="&lt;Path&gt;" class="s3" d="m86 42.5c0 0.1 0.1-0.1 0 0z"/>
					<path id="&lt;Path&gt;" class="s3" d="m85.8 42.2h0.1c0.1 0 0.1-0.1 0.1-0.1-0.1-0.1-0.1 0-0.2 0.1z"/>
					<path id="&lt;Path&gt;" class="s3" d="m85.6 42.2c0.1 0 0.1 0 0 0z"/>
					<path id="&lt;Path&gt;" class="s3" d="m85.8 42.3l-0.2-0.1c0 0.1-0.1 0.1 0.1 0.1-0.1 0 0 0 0.1 0z"/>
					<path id="&lt;Path&gt;" class="s3" d="m85.7 42.4c0 0 0 0.1-0.1 0.1 0.1 0.1 0.3 0 0.1-0.1z"/>
					<path id="&lt;Path&gt;" class="s3" d="m85.3 43l-0.1 0.1 0.1 0.1c0-0.1 0-0.2 0-0.2z"/>
					<path id="&lt;Path&gt;" class="s3" d="m85.6 41.6c0 0-0.1 0.1-0.2 0.1h0.1c0.1 0 0-0.1 0.1-0.1z"/>
					<path id="&lt;Path&gt;" class="s3" d="m85.4 41.7h-0.1c0 0.1 0.1 0.1 0.1 0z"/>
					<path id="&lt;Path&gt;" class="s3" d="m85.3 42.3l0.3 0.1-0.3-0.1z"/>
					<path id="&lt;Path&gt;" class="s3" d="m85.4 41.2h0.1-0.2z"/>
					<path id="&lt;Path&gt;" class="s3" d="m85.2 41c0.1-0.1 0.1-0.2 0.2-0.2-0.1-0.1-0.2 0-0.3 0q0.1 0 0.1 0.2z"/>
					<path id="&lt;Path&gt;" class="s3" d="m84.9 40.8q0.1 0 0.2 0-0.1 0-0.2 0z"/>
					<path id="&lt;Path&gt;" class="s3" d="m85.2 41.5c0 0 0.1-0.1 0.1-0.2l-0.1 0.2z"/>
					<path id="&lt;Path&gt;" class="s3" d="m85.2 41.5q0-0.1-0.1-0.1 0.1 0 0.1 0.1z"/>
					<path id="&lt;Path&gt;" class="s3" d="m85.2 41.5q0 0 0 0z"/>
					<path id="&lt;Path&gt;" class="s3" d="m85.3 42c-0.1 0-0.3-0.1-0.3 0.1 0.1 0 0.1-0.1 0.3-0.1z"/>
					<path id="&lt;Path&gt;" class="s3" d="m85.1 41.7v0.1c0 0 0.1-0.1 0.1-0.1z"/>
					<path id="&lt;Path&gt;" class="s3" d="m85 41.7h0.1v-0.1z"/>
					<path id="&lt;Path&gt;" class="s3" d="m84.9 41c-0.1 0-0.1 0-0.2 0q0.1 0.1 0.1 0.1c0.1 0 0.2 0 0.1-0.1z"/>
					<path id="&lt;Path&gt;" class="s3" d="m85 41.3v-0.1q0 0.1 0 0.1z"/>
					<path id="&lt;Path&gt;" class="s3" d="m84.3 40.5v0.1z"/>
					<path id="&lt;Path&gt;" class="s3" d="m84.8 41.2c0 0 0.1 0 0.1 0q0 0-0.1-0.1 0 0.1 0 0.1z"/>
					<path id="&lt;Path&gt;" class="s3" d="m84.7 40.7q0 0.1 0 0.1c0 0 0.1-0.1 0-0.1z"/>
					<path id="&lt;Path&gt;" class="s3" d="m85.1 41.2q0 0 0 0z"/>
					<path id="&lt;Path&gt;" class="s3" d="m85.1 41.2q-0.1 0-0.2 0 0.1 0 0.1 0 0 0 0.1 0z"/>
					<path id="&lt;Path&gt;" class="s3" d="m83.5 41.3c0.1-0.1 0.3-0.2 0.2 0 0.2 0 0.5-0.4 0.6-0.7-0.1 0-0.1 0.1-0.2 0.1-0.1 0.1 0 0.3-0.1 0.3-0.2 0-0.1-0.1-0.1-0.2-0.1 0.2-0.3 0.1-0.4 0.4h0.1c0 0-0.1 0-0.1 0.1z"/>
					<path id="&lt;Path&gt;" class="s3" d="m84.4 40.7l0.1 0.1q0-0.1 0-0.3-0.1 0-0.2 0.1l0.2 0.1z"/>
					<path id="&lt;Path&gt;" class="s3" d="m84.6 40.9c-0.1 0.1-0.2 0.1-0.3 0.2 0.1 0.1 0.2 0 0.3 0-0.2-0.1 0.1 0 0-0.2q0.1 0 0.1 0.1 0-0.1 0-0.2 0 0.1 0 0.1h-0.1c0-0.1 0.1 0 0.1 0v-0.1q-0.1 0-0.2 0 0 0 0.1 0.1z"/>
					<path id="&lt;Path&gt;" class="s3" d="m84.6 42.2q0 0 0 0 0 0 0 0z"/>
					<path id="&lt;Path&gt;" class="s3" d="m84.7 42.1c0 0 0 0 0.1 0-0.1 0.1-0.1 0.1-0.2 0.1 0.1 0 0.2 0 0.2-0.1 0-0.1 0.1-0.3 0.1-0.3-0.1 0.1-0.1 0.2-0.2 0.3z"/>
					<path id="&lt;Path&gt;" class="s3" d="m84.7 41.5q-0.1 0-0.2 0l-0.1 0.1h0.1c0 0 0.1 0 0.2-0.1z"/>
					<path id="&lt;Path&gt;" class="s3" d="m84.3 40.5l0.2-0.1-0.3 0.1z"/>
					<path id="&lt;Path&gt;" class="s3" d="m84.1 40.3l0.1-0.1-0.1 0.1z"/>
					<path id="&lt;Path&gt;" class="s3" d="m78.4 46h0.1q0 0-0.1 0z"/>
					<path id="&lt;Path&gt;" class="s3" d="m78.3 45.7l-0.1 0.1q0.1 0 0.1-0.1z"/>
					<path id="&lt;Path&gt;" class="s3" d="m78.5 40.1c-0.2-0.1-0.4-0.2-0.3-0.1l0.2 0.2q0-0.1 0.1-0.1z"/>
					<path id="&lt;Path&gt;" class="s3" d="m77.2 43.6q0-0.1-0.1-0.1z"/>
					<path id="&lt;Path&gt;" class="s3" d="m77.9 43.8h-0.2q0.1 0 0.2 0z"/>
					<path id="&lt;Path&gt;" class="s3" d="m79.5 46.8l0.1-0.1c-0.1 0-0.1 0-0.1 0.1z"/>
					<path id="&lt;Path&gt;" class="s3" d="m81.8 39.5q-0.1-0.2-0.1-0.2c0 0.1 0.1 0.3 0.1 0.2z"/>
					<path id="&lt;Path&gt;" class="s3" d="m76.8 46.7q0.1 0.1 0.1 0 0 0-0.1 0z"/>
					<path id="&lt;Path&gt;" class="s3" d="m81.5 39.3q0 0 0 0.1 0.1-0.1 0.2-0.1c-0.1-0.1-0.2-0.1-0.2 0z"/>
					<path id="&lt;Path&gt;" class="s3" d="m83.7 46.1q0 0 0 0 0 0 0 0z"/>
					<path id="&lt;Path&gt;" class="s3" d="m85.9 45q0 0 0 0.1 0 0 0-0.1z"/>
					<path id="&lt;Path&gt;" class="s3" d="m83.3 39.8c0.1 0 0-0.1 0 0z"/>
					<path id="&lt;Path&gt;" class="s3" d="m83.2 40.5q0 0 0 0 0 0 0 0z"/>
					<path id="&lt;Path&gt;" class="s3" d="m81 40.3q0 0.1 0 0z"/>
					<path id="&lt;Path&gt;" class="s3" d="m83.4 39.9q-0.1-0.1-0.1-0.1 0 0 0.1 0.1z"/>
					<path id="&lt;Path&gt;" class="s3" d="m83.4 39.8q0 0 0 0 0.1 0 0 0z"/>
					<path id="&lt;Path&gt;" class="s3" d="m83.3 39.7q0 0.1 0 0.1 0 0 0 0 0 0 0-0.1z"/>
					<path id="&lt;Path&gt;" class="s3" d="m81.6 47.9q0 0 0 0c0-0.1 0-0.1 0 0z"/>
					<path id="&lt;Path&gt;" class="s3" d="m78.7 42.1z"/>
					<path id="&lt;Path&gt;" class="s3" d="m78.7 42.3c-0.1-0.2 0-0.2 0-0.2l-0.4-0.3z"/>
					<path id="&lt;Compound Path&gt;" fill-rule="evenodd" class="s3" d="m78.7 46.4c-0.1 0.2 0.2 0.1 0.3 0 0 0.1-0.3 0.3-0.1 0.3 0.2 0 0.2-0.3 0.3-0.3l-0.1 0.3c0.2-0.1 0.2 0.1 0.3 0.2q0 0 0-0.1c0.1 0.2 0.4-0.1 0.4 0-0.1 0.1-0.1 0.2-0.1 0.3l0.2-0.1c-0.1 0-0.1 0.2-0.2 0.3 0 0 0.1-0.1 0.1-0.1q0 0.1-0.1 0.2 0.2-0.1 0.3-0.2 0 0 0 0c0 0 0.1-0.1 0.1 0l-0.1 0.2c0.1-0.2 0 0-0.1 0.1 0.1 0 0 0 0 0.1 0.1 0.1 0.2-0.1 0.2-0.3 0.1 0.1 0.1 0.2 0.3 0l-0.1 0.2h0.1l-0.1 0.2c0.1 0.2 0.1-0.3 0.2-0.2v0.2c0.1 0 0.1-0.3 0.2-0.1 0-0.1-0.1-0.3 0.1-0.3q0 0.1 0.1 0.2c0-0.1-0.1-0.2-0.1-0.2 0.2-0.1 0.1 0.7 0.3 0.4 0-0.1 0.1-0.3-0.1-0.3 0.1-0.1 0.2 0.2 0.3 0l-0.1 0.3c0.1 0 0.1-0.1 0.1-0.2v0.2c0.1-0.3 0.2 0.2 0.3-0.3 0 0.4 0 0 0.1 0.1-0.1 0.3-0.3 0.1-0.2 0.4 0 0.1 0-0.1 0.1 0 0 0-0.1 0.1-0.1 0.2 0.2 0.1 0.2-0.2 0.3-0.3l-0.1 0.1c-0.1-0.3 0-0.1 0-0.3 0.1 0.1 0.1-0.1 0.2-0.1q0 0.1 0 0.1c0.1-0.1 0.3 0.4 0.4 0.4 0.1 0 0.2-0.2 0.1-0.3 0-0.1-0.2 0.1-0.2-0.3 0.2 0.4 0.1-0.2 0.4 0 0 0.2 0.1 0.2 0.1 0.4 0.1-0.1 0.1-0.2 0-0.3l0.1 0.1c0-0.3-0.1-0.3 0-0.5 0 0.1 0.2 0.1 0.2 0.2q0.1 0 0.1-0.1c0.1-0.2 0.2 0 0.3-0.2l-0.1-0.1c0-0.3 0.3-0.4 0.4-0.6h-0.1c0 0-0.1-0.2 0.1-0.2 0 0 0 0.1 0 0.1 0.1 0 0.2 0.1 0.3 0l-0.2-0.1 0.1 0.1c0.1-0.1-0.1-0.1-0.1-0.2 0.4 0.2 0.2-0.3 0.6-0.2-0.3-0.2-0.1 0.1-0.3 0 0 0 0.1 0 0.1-0.1h-0.2c0.2-0.2 0.4-0.3 0.4-0.5h0.1q0.1-0.1-0.1-0.2c0.1 0 0.1 0.1 0.2 0.1-0.4-0.3 0.4-0.3 0.1-0.5 0.3 0.1 0.7-0.1 1 0v-0.1c0.2 0-0.1 0.3 0.2 0.3q-0.1 0.2-0.3 0.3c0.1 0 0.2 0 0.3 0 0 0.1 0 0.1 0.1 0.1-0.4 0.2-0.4 0.5-0.5 0.9-0.1 0.3-0.2 0.6-0.5 0.8 0 0 0.1 0.1 0.1 0.1-0.2-0.1 0 0.1 0 0.2h-0.3c0 0.1 0.1 0.1 0.2 0.1-0.2 0.4-0.7 0.4-0.7 0.7-0.2-0.1-0.2-0.2-0.3-0.2 0.3 0.2-0.1 0.3 0.1 0.4-0.3-0.2-0.4 0.2-0.6-0.2-0.2 0 0 0.2 0 0.2-0.1 0.1-0.2 0.1-0.2 0.3-0.1 0-0.6 0.5-0.9 0.1 0.2 0.2 0 0.1 0 0.3l0.1 0.2h-0.2q0 0 0 0c-0.1 0-0.1-0.1-0.2-0.2-0.1 0.1-0.1 0.2-0.1 0.3l-0.1 0.1c-0.1 0 0.2-0.3 0-0.4 0 0.1-0.1 0.4-0.2 0.3 0.1-0.1 0.1-0.2 0-0.3h-0.1l0.1 0.3c-0.5 0-1-0.2-1.5-0.2 0.1-0.3-0.3-0.1-0.2-0.5v0.1c0.1 0 0.1-0.3 0-0.3 0 0.1-0.3 0.3-0.1 0.4q-0.1 0.1-0.2 0.1c-0.4 0.7-0.5-0.2-0.8-0.1q0-0.1 0-0.1c-0.3 0.1-0.4-0.5-0.5-0.4l0.1-0.2c-0.3 0.1-0.4 0.1-0.5-0.1 0-0.1 0.1-0.1 0.1-0.1-0.2 0-0.3 0.1-0.4-0.1l-0.2-0.2c0.5-0.4-0.6-0.2-0.1-0.6-0.2 0-0.4-0.1-0.5-0.2q0.1 0 0.1 0c-0.4 0-0.1-0.4-0.2-0.4-0.1-0.1-0.1 0-0.2 0.1 0.2-0.3-0.4-0.4-0.4-0.5 0-0.1 0.2-0.1 0.4-0.2-0.1-0.1-0.6 0.2-0.4-0.1 0 0 0.1 0.1 0.1 0.1 0-0.2 0.7-0.4 0.5-0.5l-0.1 0.1c-0.2-0.2 0.4-0.4 0-0.4h-0.1c0.2-0.3-0.1-0.1 0.1-0.4 0-0.1 0.2-0.1-0.1-0.2-0.1-0.1 0-0.1 0-0.3 0 0-0.1-0.1 0-0.1-0.3 0-0.1-0.3-0.1-0.4 0.1 0.1 0.2 0.1 0.3 0.1q-0.3-0.2-0.1-0.2c-0.3-0.1-0.6-0.2-0.5-0.4 0 0 0 0.1 0.1 0.1 0 0 0-0.1 0-0.1 0 0 0.1 0 0.2 0-0.3-0.2 0-0.2 0-0.4 0.1 0.1 0.1 0.1 0.2 0.1-0.3-0.2 0.4-0.2 0-0.3 0.4-0.2 0.5-0.8 0.8-0.7 0.1 0 0-0.2 0.1-0.3l0.1 0.1c-0.1-0.3 0-0.1-0.1-0.5 0.1 0.2 0.2 0.2 0.3 0.3q0-0.2-0.1-0.3l0.2 0.1c0-0.1 0.1-0.1 0.1-0.1-0.1-0.3 0.1-0.4 0-0.5 0.3 0.2 0.1-0.2 0.4 0q-0.1-0.1 0-0.1c-0.2-0.1-0.3-0.3-0.2-0.2q0 0 0.1 0l0.1 0.1q0-0.1 0.1-0.1-0.1-0.1-0.1-0.1 0 0 0.1 0 0 0 0 0 0 0 0 0c0.1 0.1 0.1 0.1 0.1 0 0.3 0.1 0.3-0.6 0.7-0.3-0.1-0.1-0.1 0-0.1 0 0.2-0.1 0.5 0.1 0.5 0v-0.2c0.1-0.1 0.2-0.2 0.3-0.2v-0.2c0.2 0 0.6-0.4 0.7 0.1 0.1-0.2 0.3 0 0.4-0.1v0.2c0.1 0 0.2 0 0.3 0 0.2 0.3 0.5 0 0.7 0.1h0.3c-0.1 0.1 0.1-0.1 0.1 0 0.1-0.1 0.2 0 0.3 0.1l0.1 0.1c-0.2 0 0 0.2-0.1 0.4l0.1-0.1c0 0.1-0.1 0.1 0 0.1 0.1 0 0.2 0 0.4-0.1q0-0.1 0-0.1-0.1 0 0 0 0 0 0-0.1c0.1 0.1 0.1 0 0.1 0 0 0.2 0.2 0.2 0.1 0.4 0.1-0.3 0.3 0.2 0.4-0.1-0.1 0.3 0 0.1 0 0.3-0.1-0.2-0.4 0-0.5 0v0.2c-0.2 0.2-0.2-0.2-0.3-0.1 0.1-0.1 0.1 0 0.1 0.1l0.1-0.2c-0.1-0.2-0.3-0.1-0.4 0 0 0.1-0.2 0.1-0.2 0.2l0.1 0.1c0 0-0.1 0.1-0.2 0.1-0.1-0.2-0.5-0.2-0.5-0.4 0 0.1 0.1 0 0.1 0v-0.1c0 0 0 0.2 0.2 0.2 0-0.2 0.2-0.3 0.1-0.6-0.1-0.3-0.3 0.3-0.6 0.2 0 0 0.2-0.2 0-0.2-0.3 0.1-0.4 0.4-0.5 0.8 0.1-0.1 0.3-0.3 0.3 0-0.1 0-0.2 0.1-0.3 0.2 0-0.2 0.2 0 0.1-0.3-0.1 0-0.1 0.1-0.1 0.2 0-0.1 0-0.2 0-0.3-0.2 0-0.3-0.1-0.5-0.2 0 0-0.1-0.1-0.1-0.1-0.1 0-0.1 0.5-0.1 0.6-0.1 0-0.1-0.1-0.2 0 0.2 0.2 0 0 0 0.2-0.1 0.1 0-0.1-0.1-0.1 0 0 0 0.1 0 0.1-0.1-0.1 0-0.5-0.1-0.7-0.1-0.1-0.4-0.4-0.4-0.4 0 0.3 0.3 1.1 0.4 1.4 0 0.2-0.1-0.1-0.2-0.1-0.1-0.2 0 0.2-0.2 0.1l0.1-0.1c-0.1-0.1-0.2 0.1-0.1 0.1-0.1 0-0.1-0.4-0.2-0.5-0.2 0-0.1 0.5 0 0.8q0-0.2 0.1-0.4c0.1 0.2-0.1 0.3 0 0.5h-0.2c0 0 0.1-0.1 0-0.2-0.1 0.1-0.1 0-0.2 0 0-0.3-0.1-1.1-0.1-1.4q-0.1 0.1-0.1 0.2l-0.1-0.1c-0.1 0.2 0.2 1.1 0.2 1.3-0.1 0-0.3-0.5-0.3-0.5-0.2 0 0.2 0.6 0 0.6l0.1 0.1c0 0.1-0.1 0.1-0.1 0.1-0.1-0.1-0.3-0.2-0.3-0.3q0.1 0.2 0.2 0.4c-0.1-0.1-0.3-0.3-0.3-0.4-0.1 0 0.1 0.4 0.2 0.4-0.2-0.1-0.1 0-0.4-0.2 0 0.1 0.3 0.3 0.3 0.3 0 0.1 0 0.1-0.1 0.1 0-0.2-0.6-0.6-0.7-0.8q0.2 0.5 0.6 1c-0.1-0.1-0.3-0.3-0.4-0.3 0.3 0.2 0.1 0.5 0 0.6-0.1-0.1-0.2 0-0.2 0.1 0-0.1 0-0.1 0-0.1-0.3 0 0.4 0.4 0.1 0.3 0.1-0.1 0-0.1-0.2-0.2 0.1 0.1-0.1 0.2 0.3 0.4-0.1 0-0.1 0-0.3 0l0.2 0.2c0 0-0.1-0.1-0.2 0 0.1-0.1-0.2-0.3 0-0.3-0.2-0.1-0.3-0.1-0.5-0.2 0 0.3 0.4 0.5 0.6 0.7l-0.2 0.1 0.1 0.1-0.3-0.1c0.1 0.1 0.1 0.1 0.1 0.1q0 0-0.1 0 0 0 0.1 0-0.2 0-0.5-0.1 0.1 0 0.2-0.1c-0.1 0-0.3-0.1-0.4 0h0.1q-0.2-0.1-0.2-0.1 0 0.1 0.1 0.2 0 0 0.2 0c0.1 0.1 0.3 0.3 0.5 0.2l-0.1 0.1c0.2 0.2 0.2 0.1 0.4 0.3-0.1 0-0.2-0.1-0.3 0 0.3 0.1-0.4 0.2-0.1 0.3 0.1 0.1 0.3 0 0.3 0 0 0-0.1 0-0.1 0.1h0.2c0 0-0.1 0-0.2 0 0.2 0.2 0.3 0.2 0.2 0.3 0.1 0.2 0.4-0.1 0.4 0-0.2 0.1-0.4 0.1-0.4 0.2 0.1 0 0.3 0 0.4 0l-0.3 0.1c0 0 0.1 0.1-0.1 0.1 0.1 0 0.1 0.1 0.1 0.1 0.2 0.1 0.5-0.2 0.5-0.2-0.1 0.1 0 0.1-0.2 0.3l-0.1-0.1c-0.3 0.3 0.3 0-0.1 0.3 0-0.1-0.2-0.1-0.3 0h0.2c-0.1 0.1-0.1 0-0.1 0.1 0 0 0.2 0 0.2 0l0.1 0.1c0 0 0 0 0 0l0.1 0.1c0 0-0.1 0-0.1 0.1 0 0.2 0.5-0.2 0.4 0 0 0-0.1 0-0.1 0v0.1c0.4-0.3 0.2 0.2 0.6-0.1-0.1 0.2-0.1 0.1-0.3 0.2l-0.1 0.1c0 0 0 0-0.1 0zm-0.4-0.5q0 0 0 0zm-0.4-2.6q0 0 0 0 0 0 0 0zm1-1.4q0 0 0 0 0 0 0 0zm0.1 0q0 0 0 0 0 0 0 0zm-0.2-0.5q0 0.1 0 0.1 0 0 0-0.1zm4.5-0.8q0 0 0 0zm0.3-0.3q0-0.1 0-0.1 0 0 0 0.1zm-5.5 0.7q0 0 0.1 0-0.1 0-0.1 0zm0 0q0 0 0 0 0 0 0 0 0 0 0 0zm4.3 7.6q0 0 0 0 0 0 0 0zm1.7-0.4q0 0 0 0 0 0 0 0zm-0.5-1.9q0 0 0 0zm-1.7 1.3q0 0 0 0 0 0 0 0zm-1.1-0.3q0 0 0 0 0 0 0 0zm-2.6-1.8c0.1-0.1 0-0.1-0.1-0.1 0 0.1-0.1 0.1 0.1 0.1zm-0.7-2q0.2 0 0.1-0.1-0.1 0.1-0.1 0.1zm5.2-3.8c0-0.1 0-0.1 0 0zm0.2 0.1q0 0 0-0.1 0 0.1-0.1 0c0 0.1 0 0.1 0.1 0.1zm-0.7 9.2h0.1c0 0 0-0.1-0.1 0z"/>
					<path id="&lt;Path&gt;" class="s3" d="m77.8 43.7q-0.1 0-0.1 0 0 0.1 0.1 0z"/>
					<path id="&lt;Path&gt;" class="s3" d="m79.4 46.8h0.1z"/>
					<path id="&lt;Path&gt;" class="s3" d="m80.6 41.1q-0.1 0-0.1-0.1 0 0.1 0.1 0.1z"/>
					<path id="&lt;Path&gt;" class="s3" d="m83.8 40l-0.1-0.1c0.1 0.1 0.1 0.1 0.1 0.1 0 0 0-0.1 0 0z"/>
					<path id="&lt;Path&gt;" class="s3" d="m83.9 41.4c0 0 0 0 0 0h0.1c-0.1-0.1-0.2-0.1-0.1 0z"/>
					<path id="&lt;Path&gt;" class="s3" d="m83.6 40.5c-0.1 0.2 0 0.2 0.1 0.2 0.1-0.2 0-0.2-0.1-0.2z"/>
					<path id="&lt;Path&gt;" class="s3" d="m83.7 40.7q0 0 0 0c0.1-0.1 0 0 0 0z"/>
					<path id="&lt;Path&gt;" class="s3" d="m83.1 39.8c0 0.1 0.1-0.2 0.1-0.1 0.1-0.2-0.3 0.1-0.1 0.1z"/>
					<path id="&lt;Path&gt;" class="s3" d="m83.4 41v-0.2l-0.1 0.1z"/>
					<path id="&lt;Path&gt;" class="s3" d="m83 40.6l0.1 0.1q0 0 0 0c0-0.1-0.1-0.1-0.1-0.1z"/>
					<path id="&lt;Path&gt;" class="s3" d="m83.1 40.7q0.1 0 0.1 0 0 0-0.1 0z"/>
					<path id="&lt;Path&gt;" class="s3" d="m83.2 41v-0.1z"/>
					<path id="&lt;Path&gt;" class="s3" d="m81.9 40.2l-0.1 0.1q0 0.1 0.1 0c0 0 0 0 0-0.1z"/>
					<path id="&lt;Path&gt;" class="s3" d="m82.1 40.8q0-0.1 0-0.1v0.2z"/>
					<path id="&lt;Path&gt;" class="s3" d="m81.8 40.8c0 0.1-0.1 0.2 0 0.2 0-0.1 0.1-0.1 0-0.2z"/>
					<path id="&lt;Path&gt;" class="s3" d="m80.3 40.5l-0.1-0.4z"/>
					<path id="&lt;Path&gt;" class="s3" d="m79.5 41.9c0.1 0-0.1-0.3 0-0.2 0-0.1-0.1-0.1-0.1-0.1 0 0.1-0.1 0.1 0.1 0.3z"/>
					<path id="&lt;Path&gt;" class="s3" d="m79.4 41.6q0-0.1 0-0.1 0 0 0 0.1z"/>
					<path id="&lt;Path&gt;" class="s3" d="m86.1 44.7l0.1-0.1h-0.1z"/>
					<path id="&lt;Path&gt;" class="s3" d="m85.8 44.5l0.3-0.1h-0.2c0 0 0 0-0.1 0.1z"/>
					<path id="&lt;Path&gt;" class="s3" d="m78.5 45.1c-0.1 0.1-0.1 0.1-0.1 0.1z"/>
					<path id="&lt;Path&gt;" class="s3" d="m78.7 45.9l-0.2 0.1z"/>
					<path id="&lt;Path&gt;" class="s3" d="m79.3 46.2c0 0-0.1 0-0.1 0 0.1 0-0.1 0.2 0.1 0z"/>
				</g>
			</g>
		</g>
	</g>
</svg>