<svg version="1.2" xmlns="http://www.w3.org/2000/svg" viewBox="0 0 126 125" width="126" height="125">
	<title>&lt;Group&gt;</title>
	<style>
		.s0 { fill: #2f312e } 
		.s1 { fill: #ffffff } 
	</style>
	<g id="&lt;Group&gt;">
		<path id="&lt;Path&gt;" class="s0" d="m63.1 62.9q-0.6 0.4-0.5 0.4c0.4-0.3 0.5-0.4 0.5-0.4z"/>
		<path id="&lt;Compound Path&gt;" fill-rule="evenodd" class="s0" d="m125 58.5c0.1 0.5 0.2 3.1 0.1 4.4l-0.1 0.3c-0.1 1.6-0.1 2.6-0.1 3.6-0.2 1.7-0.5 3.3-0.7 4.8-0.2 1.6-0.3 3.1-0.8 4.5l-0.7 2.9c0.1-0.8 0 0.6-0.3 1.5-0.2 0.9-0.8 2.3-1.2 3.4l-0.7 1.7c0.6-2-0.2 0.1-0.4 0.2q-0.1 0.6-0.4 1.1c-0.2 0.4 0.3-0.7-0.1 0.1-0.3 0.7-1.4 2.9-1.6 3.6 0.1-0.1 0.3-0.3 0.5-0.6q0-0.2 0-0.1 0 0 0 0.1c-0.1 0.1-0.1 0.2-0.1 0.3-0.7 1.3-0.4 0.9-0.3 0.8-0.5 0.8-0.9 1.3-1.2 1.8-0.3 0.5-0.6 0.9-1 1.4 0.8-0.8-2.1 3.4-1.3 2.7-1 0.9-0.6 0.7-1.2 1.2 1.2-1.3 1.8-3.1 2.5-4.3l-0.8 1.1c0.2-0.9 1.7-2.6 2-3.4-0.2 0.5-0.8 1.5-1 1.6l0.4-0.3q0.4-0.6 0.8-1.2 0.2-0.6 0.5-1.2 0.5-1.1 0.9-2.1c-0.7 1.2 0.5-1.4 0-0.7q-1.8 4-4.2 7.7l-0.2 0.6-0.3 0.2q-0.8 1.2-1.8 2.5c-0.2 0.6-1.2 2-0.8 1.6-0.3 0.4-0.4 0.4-0.6 0.6-0.2 0.3-0.4 0.5-1 1.3-0.7 0.9 1.2-1 1.5-1.4-0.8 1.2-0.8 1.2-0.8 1.3-0.9 0.7-1.7 1-1.3 0.4q-0.6 0.7-1.2 1.3-0.2 0.3-0.5 0.6c-3.7 3.8-7.8 7.2-12.3 10q0 0-0.1 0.1 0 0 0 0c-9.5 5.8-20.5 9.2-32.4 9.2q-1.6 0-3.2-0.1c0.6 0.2 1 0.3 0.3 0.4h1.1c-0.3 0.2-3.5-0.1-4.2 0-1.2-0.1-2.4-0.4-3.5-0.7 0.1 0.1-0.5 0.1 0 0.3-0.9-0.2-1.6-0.3-0.5 0-8.4-1.8-16.9-4.6-23.9-9.5-0.5-0.3-0.3-0.1-0.1 0.1-1.2-1-1.3-0.8-2-1.2l-1.7-1.6c-0.8-0.5-0.2 0-0.3 0-1.8-1.2-3.3-2.8-4.8-4.2q-0.5-0.5-1.1-1c-0.3-0.4-0.6-0.8-1-1.1q-0.9-1.1-1.9-2c-0.6-0.9 0.4 0-0.6-1.1 0.6 0.9-0.2 0.1-0.9-0.8-0.7-0.8-1.4-1.7-1.2-1.4q0 0 0 0 0 0 0 0.1 0-0.1 0-0.1c-0.4-0.7-1.1-1.7-1.7-2.5-0.6-0.9-0.9-1.6-0.6-1.5-0.9-1.5-0.9-1.1-0.7-0.7q-0.8-1.3-1.4-2.4-0.4-0.5-0.7-1.1-0.3-0.5-0.6-1c-0.2-0.6-1.3-2.6-2.3-4.9-0.8-2.2-1.6-4.5-1.8-5.5 0.2 1.2-0.1-0.1-0.5-1.2l0.1 1.1-0.6-2.6c-0.2-0.6-0.2-0.7-0.2-0.7-0.1-0.5 0.1 0.1-0.1-1.1-0.2-0.8-0.4-1.3-0.4-1.7-0.1-0.3-0.2-0.6-0.3-1.1v0.3l-0.2-1.3c-0.2-0.9 0.6 3.2 0.3 0.3-0.1-0.1-0.6-1.8-0.6-2.6 0.2 1.5 0.3 1.3 0.3 0.7-0.1-0.7-0.2-1.4-0.3-2.1 0 0.3-0.1 0.5-0.1 0.8-0.6-6.2-0.3-12.6 0.9-19 0.1 0.1 1.2-4.5 1.3-3.8l-0.1 0.2c-0.2 1.1 0 0.5 0.3-0.4q0.2-0.6 0.3-1.1 0-0.1 0.1-0.2c-0.5 1.3 0.3-2.4-0.6 0.8 0.2-0.8 0.3-1.7 0.6-2.5-0.1-0.8 0.6-2.4 1.3-4.3 0.3-0.9 0.9-1.9 1.4-2.8 0.5-1 0.9-2 1.3-2.9-0.1 0.3-0.1 0.4-0.1 0.4 0.3-0.8 0.8-1.6 1.3-2.4 0.5-0.7 0.9-1.5 1.4-2.1 0.8-1.4 1.7-2.4 1.9-2.7l0.3-0.2c1.6-2.5 1.6-2.9 4.1-5.4 0 0.1-0.2 0.4 0.2 0 0.2-0.3 0.5-0.7 0.8-1.2 0.5-0.5 0.9-1.1 1.9-1.9l-0.1 0.1 2.8-2.6c0.2 0.3 4.9-4.2 6.2-4.4 0.5-0.5 2.8-2 3.9-2.7q0 0 0.2-0.1c1.2-1 3.8-1.8 5.2-2.5 1-0.5 0.5-0.4 0.1-0.3 1.9-0.6 5.3-2.2 6-2.4 1.5-0.5 0.6 0 1 0 2.2-0.6-0.5-0.4 2.5-0.9-0.3 0.1-0.9 0.3-0.7 0.2 1.2-0.2 3.3-0.3 4.4-0.5q-0.4 0-0.8 0c2.1-0.4 5-0.3 5.3-0.7l-0.2-0.1c0.9-0.1 1.4-0.2 1.8-0.2 0.4 0 0.6 0 0.7 0 0.4-0.1 0.8-0.1 2.7-0.1h-0.1c1.6-0.1 2.5 0 3.3-0.1l-0.6-0.1c2 0.1 2.2 0.1 4.2 0.2 0.2 0 1.2 0 1.5 0.1 0.1-0.3 4.7 0.6 5.6 0.7-1.6-0.2-0.9 0-0.5 0.2 0.5 0 0.9 0 1.4 0 0.4 0.1 0.9 0.3 1.5 0.5 0.2-0.2 0.5-0.4 3.1 0.2-0.4 0-1.1-0.2-0.8-0.1 0.2 0.2 0.8 0.2 1 0.3 0.3 0.1-0.6-0.1-0.3 0.1 1.8 0.1 2.9 0.9 5.3 1.7-0.8-0.2-0.1 0 0.1 0.2 0.1-0.1 0.9 0.3 1.6 0.6 0.6 0.3 1.1 0.6 0.8 0.2 4.5 2.2 11 6.1 12.3 7.6 0.4 0.4 1.6 1.1 2.3 1.6h-0.2c2 1.4 1.5 1.2 3.7 2.9-0.9-0.7-0.6-0.3 0.2 0.6l0.8 0.6 0.7 0.6 0.1 0.4c0.6 0.5 1.2 1.2 1.8 1.9 0.3 0.2 0.9 0.8 1.5 1.4 0.6 0.7 1.2 1.5 1.4 1.7 0.3 0.9 1.5 1.9 1.7 2.5 0.2 0.2 0.4 0.5 0.7 0.8-0.2-0.4-0.1-0.6 0.2 0.1q0.1 0.1 0.1 0.2l0.1 0.3c0.4 0.7 0.9 1.4 1.1 1.9q-0.1-0.4-0.3-0.8 0.2 0.5 0.4 0.9 0.1 0.1 0.2 0.2-0.1 0-0.1-0.1c0.2 0.4 0.5 0.9 0.9 1.4 0.6 1.3 1.3 2.7 2 4.1 0.4 0.7 0.8 1.4 1.1 2.2q0.5 1.1 0.8 2.2c-0.2-0.4-0.4-1-0.5-1.2 0.9 2.5 1.7 4.9 2.1 6.5l0.1-0.2c0.5 1.9 1 3.3 1.3 4.8h0.1c0.2 1.2 0.5 2.9 0.8 4.5q0.1 0.6 0.1 1.2 0 0.6 0.1 1.1c0 0.7 0 1.3-0.1 1.6zm-15.8-37.3c-0.3-0.3-0.2-0.1-0.2-0.1q0.1 0 0.2 0.1zm0 0q0 0 0 0 0 0 0 0 0 0 0 0zm-105.8 59q0 0 0 0 0 0 0 0zm112.7 13q0 0 0 0zm-0.3 1.2q0.1-0.1 0.1-0.2 0 0.1-0.1 0.2zm6.6-47.6q0.3 1.1 0.5 2.2l0.3 0.2-0.2 0.1q0.2 1.1 0.4 2.1 0 0 0-0.1c-0.1-0.4 0-1.4-0.2-2.3-0.2-0.9-0.3-1.7-0.4-1.9q-0.2-0.3-0.4-0.3zm-3.3-10.5c-0.6-1.1-1.3-2-1.9-2.8q0.9 1.6 1.6 3.2c0.6 0.8 1.1 1.5 1.3 2-0.2-0.7-0.6-1.3-0.9-1.9zm-14.6-19.4q0.5 0.4 0.9 0.9c0.1-0.2 0.1-0.3 0.2-0.2q-0.5-0.4-1.1-0.7zm-30.9-15.5c0.2 0.1 0.6 0.2 0.9 0.3q0.4 0 0.7 0.1 0.3 0 0.6 0.1-0.1 0-0.3 0 0.6 0.1 1.2 0.2-0.1 0-0.5-0.2-0.2 0-0.4 0c0.4 0 0.7 0 0.4-0.1-0.9-0.2-1.7-0.3-2.6-0.4zm-71.3 75.2l0.1 0.4c0.1 0.3 0.2 0.5-0.1-0.4zm108.6 23.8q-0.6 0.8-1.2 1.5c0.5-0.4 0.9-1 1.2-1.5zm12.9-30.8q-0.1 1.4-0.3 2.7 0-0.1 0 0l-0.2 1.7c-0.1 0.2 0-0.4 0-0.8q0-0.1 0-0.1-0.5 3-1.3 5.9c-0.1 0.4-0.2 0.8-0.3 1l0.5-1.5c-0.1 0.7-0.3 1.2-0.5 1.8-0.2 0.6-0.5 1.3-0.8 2.2 0.2-0.3-0.1 1.1 0.6-0.2 0.7-1.7 0.8-2.4 0.9-3.3 0.1-0.8 0.2-1.7 0.8-3.9 0-0.1 0 0.1 0.1 0.1 0 0 0.2-0.2 0.3-1.4 0.2-1.8 0.3-3.3 0.2-4.2zm-2.2 12.8q0 0 0 0c0.3-0.6 0.4-1 0 0zm2.7-22.8q0-0.4-0.1-0.9 0 0.5 0.1 1 0-0.1 0-0.1z"/>
		<path id="&lt;Compound Path&gt;" fill-rule="evenodd" class="s1" d="m99.6 55.2q0 0 0 0 0 0 0 0zm0 0c0.4 0.9 0.1 1.7 0.6 2.4v-0.2l-0.1 1c0 0.4 0 0.5-0.2 1.1v-0.9c-0.3 0.5 0.1 1.1 0 1.7-0.1 0 0-0.6-0.2-0.5 0 0.5 0 0.8 0 1.2h-0.1c-0.3 1 0.4 0.4-0.1 1.1 0.1 0 0.1 0.1 0.2 0.1-0.2 0.3-0.4 0.9-0.4 0.2-0.1 0.4-0.1 0.8-0.1 1 0.2-0.3 0.2-0.4 0.4-0.5-0.1 0.5-0.3 1-0.4 1.5 0 0.2 0-0.1 0-0.3-0.8 1.5-0.9 3.5-2.4 4.9 0.2-0.1 0 0.2 0 0.4-0.4 0.5-0.9 1.3-1.4 1.7l0.1-0.2c-0.9 1.2-1.6 2-2.4 2.7 0 0 0-0.1 0-0.2-0.4 0.6-1.4 0.7-1.3 1.1l0.2-0.2c-1.2 0.9-2.3 2-3.5 3-0.4 0 0.7-0.6 0.3-0.6-0.9 0.6-1.6 1.3-2.5 2 0.1-0.2 0-0.2 0.1-0.2-1 0.5 0.2 0.1-0.5 0.6-0.1-0.1-0.1-0.1-0.4 0l-0.1 0.3c-0.1 0.1-0.1 0-0.1-0.1-0.2 0.4-1.3 1-1.4 1.3-0.1 0.1 0-0.2-0.2-0.2-0.4 0.2-0.6 0.5-0.9 0.8h0.1c-0.4 0.1-1.1 0.6-1 0.5-0.7 0.4 0 0.1-0.5 0.7l0.7-0.4-1 0.8 0.3-0.4c-0.5 0.3-0.9 0.8-1.4 1.2l0.3-0.1-0.6 0.5c-0.2-0.1-0.8 0.6-0.6 0.1-1.2 0.8-1.8 1.6-2.8 2.3 0.1-0.1 0.1 0 0.1-0.1-0.7 0.4-1 0.8-1.2 1.2 0-0.2 0.1-0.3 0.1-0.3-0.7 0.5-0.4 0.4-1.1 1.1 0.1-0.3 0-0.3-0.2-0.1 0.1 0-0.1 0.2-0.2 0.3 0.3-0.8-1 0.5-0.9 0 0 0.2-0.9 1.1-0.6 1.1-1 0.9-2.3 1.7-3.5 2.8 0.1-0.2 0.5-0.6 0.2-0.4-1.3 0.9-1.9 1.6-3.1 2.7-0.2-0.2 1.4-1.1 1.2-1.4-1.3 1.1-2.6 2.3-4.1 3.5q-0.3-0.2-0.7-0.4c-0.5-0.7-0.7-0.8-1.2-1.1-0.4-0.2-0.9-0.5-1.3-1 0 0.2-0.5-0.1-1-0.5 0.3 0-0.3-0.4-0.1-0.3-0.5-0.3-1.8-1.2-1.6-1.4-0.2 0.2-0.9-0.7-1.4-0.8-0.5-0.5-1.2-0.8-1.8-1.4 0.1 0.3-0.6-0.3-1-0.5 0.1 0 0.2 0 0.1 0-0.1-0.3-0.8-0.5-1.2-0.9-0.1-0.2 0.2-0.1-0.1-0.3-0.1 0.1-1.2-0.6-1.5-1 0.2 0.1 0.2 0.1 0.3 0.1-1.9-1.2-3.7-2.9-5.8-4.1l0.5 0.1c-1-1.1-1-0.3-1.9-1-2.5-2-5-4.3-7.5-6-0.3-0.1 0 0.1 0 0.2-0.2-0.2-0.2-0.4-0.5-0.5v0.1c-1-1-3.5-2.4-3.9-3.6-1.1-0.9-1.5-1.9-2.7-3.1-0.2-0.5 0.6 0.4 0.2-0.2q-0.5-0.6-1-1.3c-1.1-1.2-1.3-3.8-1.9-5.6l0.1 0.1c0.1 0 0.1-0.4 0-0.7-0.1-0.1-0.1 0.1-0.1 0.3-0.4-1.6-0.5-2-0.6-3.4 0.2 0.6 0.1-0.5 0.3-0.6-0.1-0.3-0.2 0.2-0.2-0.6 0-1.1 0.2-2.1 0.4-3-0.1-0.4 0.1-0.9-0.1-1 0.3-1.2 0.4-1.9 0.9-3.4h0.1c-0.1-0.5 0.6-1.3 0.6-1.6 0 0.1 0 0.3 0.1 0.3l0.2-0.7c-0.1 0.3 0 0.6 0.3 0.1 0.1-0.6-0.2 0.1-0.2-0.2l0.3-0.1c0.2-0.4 0-0.7-0.3-0.2 0.7-1.4 1.5-2.8 2.4-3.8v0.2c0.4-0.7 1.1-1.5 1.5-1.7 0-0.1 0.1-0.3-0.1-0.2 0.5-0.7 0.3-0.1 0.7-0.6-0.1 0.2-0.2 0.3-0.2 0.3 0.4-0.4 0.8-0.9 1.3-1.4 0.1 0.1 1-0.5 1.6-1 0-0.1-0.2 0-0.4 0.1l0.4-0.3 0.5-0.1q0.2-0.3 0.4-0.6l0.2 0.2c0.4-0.3 0.4-0.7 0.8-0.9 1.5-0.6 1.3-0.4 2.4-0.7 0-0.5 1.7-0.7 1.9-1 1.6-0.2 3.8-0.8 5.8-0.8l-0.2 0.1c0.9 0.1 1-0.3 2-0.2h-0.3c1.2 0.3 3.3 0.4 4.5 0.6-0.3 0-0.2 0.1 0.2 0.2 0.3 0-0.3-0.3 0.4-0.1-0.2 0-0.1 0.1 0 0.2h0.7c1.5 0.6 3.3 1.6 4.8 2.3 0.2 0.2 0 0.1-0.1 0.2 1.2 0.5 2.4 1 3.5 1.5v0.3c0.5 0.2 0.3-0.1 0.5 0q0 0 0.1 0c0 0 0 0-0.1 0.1q-0.1 0-0.2 0 0.1 0.1 0.2 0.1c0.3-0.1 0-0.3 0.9-0.7l-0.2 0.4c0.9-0.3 0.8-0.6 1-0.9 1-0.8 1 0.1 2.4-0.9 0.2-0.2-0.2-0.1 0-0.4 1.1-0.4 1.1-0.6 2.2-1.1 0.8 0.1-0.5 0.2 0.3 0.3l-0.9 0.3c0.8-0.2-0.6 0.3-0.4 0.5 0.5-0.2 1.2-0.8 1.9-1.1 0.1 0.1-0.8 0.3-0.4 0.4l0.4-0.2c-0.1 0.1-0.1 0.2-0.3 0.2 0.2 0.1 0.4-0.1 0.8-0.3-0.1-0.1-0.1-0.2-0.3-0.2q0.1 0 0.1 0c0.7-0.5 2-0.8 2.5-1.1 0 0.1 0 0.1 0.1 0.1 0.4-0.1 0.9-0.5 1.5-0.6 0.3 0-0.2 0.4 0.8 0.1 0.2-0.1-0.3-0.3 0.5-0.4 0 0-0.7 0.2-0.3 0.2 0.8-0.2 0.3 0.1 1.1 0.1 0.4-0.2 0.8 0 0.9-0.3 0.2 0.2 0.2 0.1 0.7 0.3-0.3-0.2 1-0.2 0.9-0.4 0.2 0.3-0.9 0.3-0.2 0.5 0.5-0.1 1.3-0.1 1.4-0.4 0.4 0.1 0.5 0.2 1 0.3 0 0-0.1 0.1-0.2 0.1 1-0.1 2.4 0.4 3 0.3-0.2 0.2 2 0.7 1.2 0.8 0.4 0.1 1.1 0.2 1.2 0.2-0.2 0.2 0.9 0.4 1.2 0.8 0.3 0 0.9 0.3 1.3 0.5q-0.2-0.1-0.2 0c0.5 0.2 0.3 0.2 0.6 0.6 0.6 0.2 0-0.3 0.4-0.2 0.5 0.4 0 0.2 0 0.4q0.5 0.1 0.9 0.2 0.2 0.2 0.2 0.4c0.3 0.1 0.6 0.1 0.9 0.5q-0.3-0.2-0.6-0.4l0.1 0.3q0.4 0.2 0.8 0.4c0.4 0.5 0.5 0.7 0.4 0.8q0 0 0 0l0.4 0.3h-0.3q-0.1-0.1-0.1-0.2-0.1 0.1-0.3 0.2 0 0 0 0c1.5 1.4 2.8 2.9 3.8 4.6l0.4 0.1c-0.4-0.7-1.4-1.4-1.4-1.9l0.3 0.3c0-0.1 0-0.4-0.4-0.7-0.1-0.1-0.2-0.1-0.2-0.1q-0.1-0.1-0.2-0.2c0.3 0 0.9 0.8 1.4 1.3-0.2-0.2-0.6-0.5-0.6-0.3q0.6 0.6 1.2 1.2c-0.2-0.2-0.4-0.2-0.5-0.3 0.2 0.6 0.3 0.3 0.6 0.7 0 0.2 0.1 0.3 0 0.3 0.3 0.4 0.5 0.8 0.7 1.4 0 0-0.4-0.6-0.3-0.2 0.6 0.9 0.9 1 1.4 2.1 0.8 1.2 0.7 2.6 1.1 3.4 0.1 0.1 0-0.7 0.2-0.1-0.2-0.1 0 0.4-0.1 0.4 0.4 0.7 0.2 1 0.4 1.5-0.1-0.1-0.1 0.3-0.1 0.5-0.2 0 0 0.8-0.4-0.1zm-4.8-11.5q0 0 0-0.1 0 0.1 0 0.1zm-5.6-5.7q-0.1 0-0.1 0 0 0 0.1 0zm-7.7-2.7q0 0-0.1 0 0.1 0 0.1 0zm-11.1 1.6q0 0 0 0 0 0 0 0zm-38 4.4q-0.1 0.1-0.1 0.2 0.1-0.1 0.1-0.2zm-4.4 26.7l-0.1-0.1q0 0 0 0 0 0 0.1 0.1zm24.8 21.3q0.1 0 0.1 0.1 0-0.1-0.1-0.1zm19.5 0.3q0 0 0 0 0 0 0 0 0 0 0 0zm0 0q0 0 0 0l0.2-0.2c0.1 0.1-0.2 0.2-0.4 0.4 0.1-0.1 0.2-0.2 0.2-0.2zm0.6-1.1q0 0 0 0 0.1 0 0 0zm3.4-2q0 0 0-0.1 0 0.1 0 0.1zm9-7.3q0 0 0 0.1 0-0.1 0-0.1zm7.9-5.9q-0.1 0-0.1 0.1 0.1-0.1 0.1-0.1zm6.1-19.6c0-0.1 0-0.1 0-0.1q0 0.1 0 0.1 0 0 0 0zm-1.1-3.8q0.1 0.3 0.2 0.7 0.1-0.2 0.1-0.3c-0.2-0.3-0.3-0.4-0.3-0.4zm-2-3.9q0.2 0.3 0.4 0.6c0.1 0.1 0.1 0 0.1-0.2q-0.2-0.2-0.5-0.4zm-37.2-7.4q0.2 0.1 0.3 0.2-0.1-0.1-0.3-0.2zm-1.5-0.7c0.2 0.1 0.5 0.3 0.5 0.3 0.1 0.1 0.2 0.1 0.2 0q-0.4-0.2-0.7-0.3zm40.8 27.6q-0.1 0.2-0.2 0.4 0.1 0.1 0.2 0.1c0.1-0.4 0.1-0.5 0-0.5z"/>
	</g>
</svg>